<svg xmlns="http://www.w3.org/2000/svg" width="61.586" height="46.948" viewBox="0 0 61.586 46.948">
  <g id="Grupo_10287" data-name="Grupo 10287" transform="translate(-188.8 -201.5)">
    <path id="Caminho_9602" data-name="Caminho 9602" d="M222.881,201.5h27.473v23.648a19.137,19.137,0,0,1-7.535,16.345,27.97,27.97,0,0,1-7.535,4.173c-2.782,1.043-5.448,1.971-8.23,2.782L223,241.029c2.087-.811,3.825-1.623,5.216-2.318a12.618,12.618,0,0,0,3.594-2.666A8.693,8.693,0,0,0,233.9,232.8a11.88,11.88,0,0,0,.7-4.289H223V201.5Zm-34.081,0h27.473v23.648a19.137,19.137,0,0,1-7.535,16.345,27.971,27.971,0,0,1-7.535,4.173c-2.782,1.043-5.448,1.971-8.23,2.782l-4.173-7.419c2.087-.811,3.825-1.623,5.216-2.318a12.618,12.618,0,0,0,3.594-2.666,8.693,8.693,0,0,0,2.09-3.245,11.881,11.881,0,0,0,.7-4.289H188.8Z" fill="#c2e0ff"/>
  </g>
</svg>
