<svg xmlns="http://www.w3.org/2000/svg" width="250" height="39" viewBox="0 0 250 39">
  <g id="Grupo_10003" data-name="Grupo 10003" transform="translate(-767 -862)">
    <rect id="Retângulo_2343" data-name="Retângulo 2343" width="250" height="39" rx="3" transform="translate(767 862)" fill="#0eb7c1"/>
    <text id="Finalizada" transform="translate(809 887)" fill="#fff" font-size="14" font-family="Gotham, sans-serif"><tspan x="-31.927" y="0">Finalizada</tspan></text>
    <path id="path" d="M6,8A2,2,0,1,0,4,6,2.006,2.006,0,0,0,6,8Zm0,2a2,2,0,1,0,2,2,2.006,2.006,0,0,0-2-2Zm0,6a2,2,0,1,0,2,2,2.006,2.006,0,0,0-2-2Z" transform="translate(999 870)" fill="#fff" fill-rule="evenodd"/>
  </g>
</svg>
