<svg xmlns="http://www.w3.org/2000/svg" xmlns:xlink="http://www.w3.org/1999/xlink" width="444.493" height="208.417" viewBox="0 0 444.493 208.417">
  <defs>
    <filter id="Elipse_157" x="0" y="0" width="157.891" height="157.891" filterUnits="userSpaceOnUse">
      <feOffset dy="3" input="SourceAlpha"/>
      <feGaussianBlur stdDeviation="3" result="blur"/>
      <feFlood flood-color="#fc9b8e" flood-opacity="0.161"/>
      <feComposite operator="in" in2="blur"/>
      <feComposite in="SourceGraphic"/>
    </filter>
    <filter id="Interseção_10" x="72.785" y="25.512" width="87.779" height="87.271" filterUnits="userSpaceOnUse">
      <feOffset dy="3" input="SourceAlpha"/>
      <feGaussianBlur stdDeviation="3" result="blur-2"/>
      <feFlood flood-color="#fc9b8e" flood-opacity="0.161"/>
      <feComposite operator="in" in2="blur-2"/>
      <feComposite in="SourceGraphic"/>
    </filter>
    <filter id="Caminho_3853" x="33.63" y="145.235" width="409.642" height="63.182" filterUnits="userSpaceOnUse">
      <feOffset dy="3" input="SourceAlpha"/>
      <feGaussianBlur stdDeviation="3" result="blur-3"/>
      <feFlood flood-color="#fc9b8e" flood-opacity="0.2"/>
      <feComposite operator="in" in2="blur-3"/>
      <feComposite in="SourceGraphic"/>
    </filter>
    <filter id="Elipse_159" x="100.493" y="154.514" width="28" height="28" filterUnits="userSpaceOnUse">
      <feOffset dy="3" input="SourceAlpha"/>
      <feGaussianBlur stdDeviation="3" result="blur-4"/>
      <feFlood flood-color="#fc9b8e" flood-opacity="0.502"/>
      <feComposite operator="in" in2="blur-4"/>
      <feComposite in="SourceGraphic"/>
    </filter>
    <filter id="Elipse_160" x="262.493" y="174.514" width="28" height="28" filterUnits="userSpaceOnUse">
      <feOffset dy="3" input="SourceAlpha"/>
      <feGaussianBlur stdDeviation="3" result="blur-5"/>
      <feFlood flood-color="#fc9b8e" flood-opacity="0.502"/>
      <feComposite operator="in" in2="blur-5"/>
      <feComposite in="SourceGraphic"/>
    </filter>
    <filter id="Elipse_161" x="416.493" y="142.514" width="28" height="28" filterUnits="userSpaceOnUse">
      <feOffset dy="3" input="SourceAlpha"/>
      <feGaussianBlur stdDeviation="3" result="blur-6"/>
      <feFlood flood-color="#fc9b8e" flood-opacity="0.502"/>
      <feComposite operator="in" in2="blur-6"/>
      <feComposite in="SourceGraphic"/>
    </filter>
  </defs>
  <g id="Grupo_9998" data-name="Grupo 9998" transform="translate(-111.507 -1676.529)">
    <g id="Grupo_8775" data-name="Grupo 8775" transform="matrix(0.966, 0.259, -0.259, 0.966, 599.45, -1788.919)">
      <g transform="matrix(0.97, -0.26, 0.26, 0.97, 425.61, 3473.65)" filter="url(#Elipse_157)">
        <circle id="Elipse_157-2" data-name="Elipse 157" cx="57.11" cy="57.11" r="57.11" transform="translate(148.89 116.33) rotate(165)" fill="#0eb7c1"/>
      </g>
      <path id="Interseção_9" data-name="Interseção 9" d="M0,49.78A56.875,56.875,0,0,0,56.408,49.5L28.284,0Z" transform="translate(535.629 3551.019) rotate(-120)" fill="#fff"/>
      <g transform="matrix(0.97, -0.26, 0.26, 0.97, 425.61, 3473.65)" filter="url(#Interseção_10)">
        <path id="Interseção_10-2" data-name="Interseção 10" d="M0,49.78A56.875,56.875,0,0,0,56.408,49.5L28.284,0Z" transform="translate(96.38 100.78) rotate(-105)" fill="#fc9b8e"/>
      </g>
      <text id="_30_" data-name="30%" transform="matrix(0.966, -0.259, 0.259, 0.966, 553.304, 3510.787)" fill="#fff" font-size="14" font-family="Gotham, sans-serif"><tspan x="0" y="0">30%</tspan></text>
    </g>
    <g id="Grupo_8779" data-name="Grupo 8779" transform="translate(-167 -1712.956)">
      <g transform="matrix(1, 0, 0, 1, 278.51, 3389.49)" filter="url(#Caminho_3853)">
        <path id="Caminho_3853-2" data-name="Caminho 3853" d="M-18.16,10.631,51.633-16.9,213.465,2.415,369.757-30.826" transform="translate(62.74 183.84)" fill="none" stroke="#fc9b8e" stroke-linecap="round" stroke-width="3"/>
      </g>
      <g transform="matrix(1, 0, 0, 1, 278.51, 3389.49)" filter="url(#Elipse_159)">
        <g id="Elipse_159-2" data-name="Elipse 159" transform="translate(109.49 160.51)" fill="#fc9b8e" stroke="#fff" stroke-width="1">
          <circle cx="5" cy="5" r="5" stroke="none"/>
          <circle cx="5" cy="5" r="4.5" fill="none"/>
        </g>
      </g>
      <g transform="matrix(1, 0, 0, 1, 278.51, 3389.49)" filter="url(#Elipse_160)">
        <g id="Elipse_160-2" data-name="Elipse 160" transform="translate(271.49 180.51)" fill="#fa4c5f" stroke="#fff" stroke-width="1">
          <circle cx="5" cy="5" r="5" stroke="none"/>
          <circle cx="5" cy="5" r="4.5" fill="none"/>
        </g>
      </g>
      <g transform="matrix(1, 0, 0, 1, 278.51, 3389.49)" filter="url(#Elipse_161)">
        <g id="Elipse_161-2" data-name="Elipse 161" transform="translate(425.49 148.51)" fill="#fc9b8e" stroke="#fff" stroke-width="1">
          <circle cx="5" cy="5" r="5" stroke="none"/>
          <circle cx="5" cy="5" r="4.5" fill="none"/>
        </g>
      </g>
    </g>
    <g id="Grupo_8881" data-name="Grupo 8881">
      <rect id="Retângulo_2474" data-name="Retângulo 2474" width="24" height="107" transform="translate(440 1722)" fill="#007eff"/>
      <rect id="Retângulo_2475" data-name="Retângulo 2475" width="24" height="134" transform="translate(406 1695)" fill="#0eb7c1"/>
      <rect id="Retângulo_2476" data-name="Retângulo 2476" width="24" height="71" transform="translate(372 1758)" fill="#f6c194"/>
    </g>
  </g>
</svg>
