<svg xmlns="http://www.w3.org/2000/svg" width="18" height="18" viewBox="0 0 18 18">
  <g id="Grupo_329" data-name="Grupo 329" transform="translate(-190 -4024)">
    <g id="telefone" transform="translate(194 4028)">
      <g id="Grupo_328" data-name="Grupo 328">
        <path id="Caminho_590" data-name="Caminho 590" d="M9.2,6.564A5.678,5.678,0,0,1,7.415,6.28a.815.815,0,0,0-.793.167L5.5,7.3A6.214,6.214,0,0,1,2.7,4.5l.824-1.1a.808.808,0,0,0,.2-.819A5.686,5.686,0,0,1,3.441.8a.8.8,0,0,0-.8-.8H.8A.8.8,0,0,0,0,.8,9.208,9.208,0,0,0,9.2,10a.8.8,0,0,0,.8-.8V7.366A.8.8,0,0,0,9.2,6.564Z" fill="#8e99a9"/>
      </g>
    </g>
    <rect id="Retângulo_15" data-name="Retângulo 15" width="18" height="18" transform="translate(190 4024)" fill="none"/>
  </g>
</svg>
