<svg id="Icon_-_Instagram" data-name="Icon - Instagram" xmlns="http://www.w3.org/2000/svg" width="24" height="24" viewBox="0 0 24 24">
  <path id="Caminho_591" data-name="Caminho 591" d="M146.579,137.084a2.3,2.3,0,0,0-1.316-1.316,3.838,3.838,0,0,0-1.288-.239c-.732-.033-.951-.041-2.8-.041s-2.072.007-2.8.04a3.841,3.841,0,0,0-1.288.239,2.3,2.3,0,0,0-1.317,1.316,3.839,3.839,0,0,0-.239,1.288c-.033.731-.041.951-.041,2.8s.007,2.071.041,2.8a3.838,3.838,0,0,0,.239,1.288,2.3,2.3,0,0,0,1.316,1.316,3.833,3.833,0,0,0,1.288.239c.731.033.951.04,2.8.04s2.072-.007,2.8-.04a3.833,3.833,0,0,0,1.288-.239,2.3,2.3,0,0,0,1.316-1.316,3.841,3.841,0,0,0,.239-1.288c.033-.732.04-.951.04-2.8s-.007-2.072-.04-2.8A3.833,3.833,0,0,0,146.579,137.084Zm-5.407,7.653a3.562,3.562,0,1,1,3.562-3.562A3.562,3.562,0,0,1,141.172,144.737Zm3.7-6.432a.832.832,0,1,1,.832-.832A.832.832,0,0,1,144.874,138.3Zm0,0" transform="translate(-129.172 -129.175)" fill="#8e99a9"/>
  <path id="Caminho_592" data-name="Caminho 592" d="M211.624,209.312A2.312,2.312,0,1,1,209.312,207,2.312,2.312,0,0,1,211.624,209.312Zm0,0" transform="translate(-197.312 -197.312)" fill="#8e99a9"/>
  <path id="Caminho_593" data-name="Caminho 593" d="M22.269,0H1.731A1.731,1.731,0,0,0,0,1.731V22.269A1.731,1.731,0,0,0,1.731,24H22.269A1.731,1.731,0,0,0,24,22.269V1.731A1.731,1.731,0,0,0,22.269,0Zm-3.42,14.841a5.055,5.055,0,0,1-.32,1.673,3.523,3.523,0,0,1-2.015,2.015,5.059,5.059,0,0,1-1.672.32c-.735.034-.97.042-2.841.042s-2.106-.008-2.841-.042a5.059,5.059,0,0,1-1.672-.32,3.523,3.523,0,0,1-2.015-2.015,5.054,5.054,0,0,1-.32-1.672c-.034-.735-.042-.97-.042-2.841s.008-2.106.042-2.841a5.056,5.056,0,0,1,.32-1.673A3.526,3.526,0,0,1,7.487,5.471a5.06,5.06,0,0,1,1.673-.32c.735-.034.97-.042,2.841-.042s2.106.008,2.841.042a5.061,5.061,0,0,1,1.673.32,3.524,3.524,0,0,1,2.015,2.015,5.055,5.055,0,0,1,.32,1.673c.034.735.041.97.041,2.841S18.883,14.106,18.849,14.841Zm0,0" transform="translate(0)" fill="#8e99a9"/>
</svg>
