<svg id="Icon_-_Whatsapp" data-name="Icon - Whatsapp" xmlns="http://www.w3.org/2000/svg" width="18" height="18" viewBox="0 0 18 18">
  <path id="Caminho_588" data-name="Caminho 588" d="M14.556,12.367l-.007.057c-1.636-.829-1.807-.939-2.019-.617-.147.223-.574.729-.7.879s-.26.159-.481.057A6.019,6.019,0,0,1,9.56,11.619a6.845,6.845,0,0,1-1.235-1.565c-.218-.383.238-.437.653-1.235a.421.421,0,0,0-.019-.4c-.056-.113-.5-1.225-.686-1.668s-.362-.386-.5-.386a1.1,1.1,0,0,0-1.018.26c-1.2,1.341-.9,2.725.129,4.2,2.019,2.686,3.1,3.18,5.063,3.867a3.031,3.031,0,0,0,1.4.091,2.291,2.291,0,0,0,1.5-1.078,1.9,1.9,0,0,0,.134-1.077c-.055-.1-.2-.159-.424-.261Z" transform="translate(-1.458 -1.622)" fill="#8e99a9"/>
  <path id="Caminho_589" data-name="Caminho 589" d="M15.39,2.587A9,9,0,0,0,.076,8.92a8.877,8.877,0,0,0,1.2,4.459L0,18l4.751-1.239A8.978,8.978,0,0,0,18,8.924a8.846,8.846,0,0,0-2.621-6.308ZM16.5,8.9A7.467,7.467,0,0,1,5.243,15.277l-.27-.161-2.813.731.754-2.734-.179-.281A7.439,7.439,0,0,1,14.32,3.657,7.341,7.341,0,0,1,16.5,8.9Z" transform="translate(0 0)" fill="#8e99a9"/>
</svg>
