<svg id="Icon_-_Facebook" data-name="Icon - Facebook" xmlns="http://www.w3.org/2000/svg" width="24" height="24" viewBox="0 0 24 24">
  <path id="facebook_1_" data-name="facebook (1)" d="M22.269,0H1.731A1.731,1.731,0,0,0,0,1.731V22.269A1.731,1.731,0,0,0,1.731,24H12.821V14.718H9.7V11.086h3.117V8.412c0-3.1,1.893-4.788,4.658-4.788a25.636,25.636,0,0,1,2.795.143v3.24H18.367c-1.5,0-1.8.715-1.8,1.764v2.314h3.6L19.7,14.718H16.571V24h5.7A1.731,1.731,0,0,0,24,22.269V1.73A1.731,1.731,0,0,0,22.269,0Zm0,0" transform="translate(0 0)" fill="#8e99a9"/>
</svg>
