<svg id="Logo" xmlns="http://www.w3.org/2000/svg" width="38.54" height="28" viewBox="0 0 38.54 28">
  <path id="Caminho_599" data-name="Caminho 599" d="M788.809,162.5a8.561,8.561,0,0,0-2.989.532,8.649,8.649,0,0,0-5.663,8.12v14h5.663v-5.88a8.56,8.56,0,0,0,2.989.531,8.652,8.652,0,1,0,0-17.3Zm0,11.537a2.885,2.885,0,1,1,2.885-2.885A2.887,2.887,0,0,1,788.809,174.036Z" transform="translate(-758.921 -157.151)" fill="#2163ff"/>
  <path id="Caminho_603" data-name="Caminho 603" d="M771.663,157.151v14.157a2.832,2.832,0,0,1-5.663,0v-5.663a8.435,8.435,0,0,0-.3-2.234c-.053-.2-.116-.4-.186-.6a8.515,8.515,0,0,0-5.178-5.179,8.239,8.239,0,0,0-1.416-.365V163.2a2.826,2.826,0,0,1,1.416,2.449v5.663a8.435,8.435,0,0,0,.3,2.234c.053.2.116.4.186.6a8.495,8.495,0,0,0,16.019,0,8.417,8.417,0,0,0,.485-2.831V157.151Z" transform="translate(-758.921 -157.151)" fill="#2163ff"/>
</svg>
