<svg id="Visual_data-pana" data-name="Visual data-pana" xmlns="http://www.w3.org/2000/svg" width="381.269" height="444.841" viewBox="0 0 381.269 444.841">
  <g id="freepik--back-screens--inject-3" transform="translate(40.776 28.88)">
    <path id="Caminho_2551" data-name="Caminho 2551" d="M103.511,80.3c40.225,2.919,84.15,8.247,116.355,20.617l-10.178,68.828S147.274,147.4,96.48,148.954Z" transform="translate(92.588 -78.612)" fill="#007eff"/>
    <g id="Grupo_1826" data-name="Grupo 1826" transform="translate(189.068 1.688)" opacity="0.8">
      <path id="Caminho_2552" data-name="Caminho 2552" d="M103.511,80.3c40.225,2.919,84.15,8.247,116.355,20.617l-10.178,68.828S147.274,147.4,96.48,148.954Z" transform="translate(-96.48 -80.3)" fill="#fff"/>
    </g>
    <path id="Caminho_2553" data-name="Caminho 2553" d="M105.69,137.956l.391.065,1.139.163,4.34.543c1.91.228,4.243.51,6.945.9s5.784.781,9.169,1.346a535.046,535.046,0,0,1,52.551,10.851c7.053,1.823,13.857,3.7,20.074,5.653l.315.087v-.315c2.17-15.777,4.275-29.385,5.892-39.064.825-4.8,1.487-8.681,1.942-11.3.228-1.291.4-2.3.532-3.017a3.97,3.97,0,0,1,.119-.781.868.868,0,0,0,0-.271,1.085,1.085,0,0,0-.076.26,4.281,4.281,0,0,1-.174.77c-.141.716-.347,1.714-.618,3.006-.521,2.615-1.248,6.445-2.094,11.263-1.714,9.636-3.885,23.243-6.1,39.064l.358-.217c-6.239-1.975-13.021-3.863-20.107-5.686a512.443,512.443,0,0,0-52.627-10.656c-3.4-.532-6.511-.89-9.191-1.248s-5.046-.619-6.955-.814l-4.406-.445-1.15-.1a1.509,1.509,0,0,0-.271-.065Z" transform="translate(93.35 -76.696)" fill="#007eff"/>
    <path id="Caminho_2554" data-name="Caminho 2554" d="M109.612,120.7s.152-.477.467-1.378a14.443,14.443,0,0,1,2.073-3.548,18.023,18.023,0,0,1,4.883-4.286c.521-.347,1.139-.608,1.736-.922a15.54,15.54,0,0,1,1.964-.705,10.742,10.742,0,0,1,4.481-.434,9.332,9.332,0,0,1,4.557,1.79,15.441,15.441,0,0,1,3.646,3.961c2.17,3.136,3.483,6.955,5.111,10.916a13.553,13.553,0,0,0,3.787,5.425,7.107,7.107,0,0,0,3.136,1.508,6.37,6.37,0,0,0,3.537-.412c4.579-1.812,6.619-7.1,11.252-8.681a9.082,9.082,0,0,1,6.869.564,8.789,8.789,0,0,1,2.724,2.105,14.109,14.109,0,0,1,1.812,2.908c1.031,2.04,1.812,4.34,3.559,5.914a5.3,5.3,0,0,0,3.125,1.4,6.239,6.239,0,0,0,3.255-.694,11.8,11.8,0,0,0,4.492-4.416,39.059,39.059,0,0,0,2.376-5.426,25.535,25.535,0,0,1,2.355-4.894,9.766,9.766,0,0,1,3.592-3.342,9.332,9.332,0,0,1,8.247-.239,13.944,13.944,0,0,1,5.241,3.776,10.167,10.167,0,0,1,1.964,3.592c.282.9.315,1.411.358,1.4a6.141,6.141,0,0,0-.25-1.432,9.766,9.766,0,0,0-1.9-3.7,14.107,14.107,0,0,0-5.284-3.928,9.636,9.636,0,0,0-8.561.184,10.135,10.135,0,0,0-3.776,3.451,25.738,25.738,0,0,0-2.42,4.97,39.214,39.214,0,0,1-2.376,5.328,11.209,11.209,0,0,1-4.34,4.21,5.719,5.719,0,0,1-2.984.64,4.829,4.829,0,0,1-2.81-1.28c-1.606-1.465-2.387-3.678-3.418-5.751a14.6,14.6,0,0,0-1.888-3.038,9.31,9.31,0,0,0-2.9-2.235,9.625,9.625,0,0,0-7.3-.6c-2.463.814-4.232,2.713-5.87,4.427a16.418,16.418,0,0,1-5.426,4.34,5.827,5.827,0,0,1-3.255.38,6.662,6.662,0,0,1-2.9-1.389,13.216,13.216,0,0,1-3.646-5.208c-1.617-3.917-3.038-7.791-5.208-10.97a15.376,15.376,0,0,0-3.776-4.058,9.853,9.853,0,0,0-4.764-1.834,11.177,11.177,0,0,0-4.623.488,15.67,15.67,0,0,0-2.007.749,18.707,18.707,0,0,0-6.652,5.425,13.922,13.922,0,0,0-2.007,3.657,10.078,10.078,0,0,0-.282,1.085Q109.6,120.593,109.612,120.7Z" transform="translate(88.018 -76.168)" fill="#007eff"/>
    <path id="Caminho_2555" data-name="Caminho 2555" d="M101.8,111.458c0,.152.5.38,1.172.51s1.248.109,1.27,0-.488-.38-1.161-.51S101.854,111.306,101.8,111.458Z" transform="translate(202.441 -75.97)" fill="#007eff"/>
    <path id="Caminho_2556" data-name="Caminho 2556" d="M103.887,123c-.065.152.326.467.879.727s1.085.347,1.085.206-.336-.456-.89-.716S103.952,122.9,103.887,123Z" transform="translate(198.574 -74.983)" fill="#007eff"/>
    <path id="Caminho_2557" data-name="Caminho 2557" d="M105.9,135.7c0,.152.358.423.911.619s1.085.228,1.085.087-.358-.423-.911-.619S105.954,135.556,105.9,135.7Z" transform="translate(194.336 -73.906)" fill="#007eff"/>
    <path id="Caminho_2558" data-name="Caminho 2558" d="M108.1,148.137c0,.152.423.434,1.085.618s1.15.239,1.194.087-.412-.423-1.02-.619S108.152,148,108.1,148.137Z" transform="translate(189.47 -72.847)" fill="#007eff"/>
    <path id="Caminho_2559" data-name="Caminho 2559" d="M200.134,88.563a5.632,5.632,0,0,0-1.313-.3c-.868-.141-2.17-.336-3.744-.564-3.255-.456-7.824-1.085-13.3-1.725h-.26v.26c-.423,4.623-.922,9.94-1.443,15.582v.51h.271l17.98,2.17h.25v-.239c.5-4.72.922-8.681,1.226-11.491.13-1.324.228-2.376.315-3.179a9.114,9.114,0,0,0,.065-1.085,9.758,9.758,0,0,0-.2,1.15c-.119.8-.26,1.877-.445,3.255-.358,2.8-.846,6.684-1.443,11.35l.271-.217-17.98-2.29.25.3v-.228c.5-5.643.966-10.97,1.378-15.593l-.282.228Z" transform="translate(21.574 -78.13)" fill="#007eff"/>
    <path id="Caminho_2560" data-name="Caminho 2560" d="M182.87,90.894c0,.174,3.093.163,6.869.575s6.8,1.085,6.847.879A33.377,33.377,0,0,0,182.87,90.894Z" transform="translate(22.127 -77.726)" fill="#007eff"/>
    <path id="Caminho_2561" data-name="Caminho 2561" d="M183.86,94.615c0,.163,2.886.271,6.413.619s6.391.781,6.424.618a25.154,25.154,0,0,0-6.37-1.183,24.763,24.763,0,0,0-6.467-.054Z" transform="translate(20.942 -77.41)" fill="#007eff"/>
    <path id="Caminho_2562" data-name="Caminho 2562" d="M184.91,97.845a11.871,11.871,0,0,0,3.668.749,12.663,12.663,0,0,0,3.722.2,12.24,12.24,0,0,0-3.657-.749,12.738,12.738,0,0,0-3.733-.2Z" transform="translate(24.2 -77.124)" fill="#007eff"/>
    <path id="Caminho_2563" data-name="Caminho 2563" d="M270.15,100.724c39.389-12,72.626-22.255,117.191-21.973l6.814,70.13c-46.345,4.1-61.851,7.14-104.625,22.624Z" transform="translate(-270.15 -78.745)" fill="#007eff"/>
    <g id="Grupo_1827" data-name="Grupo 1827" transform="translate(0 0)" opacity="0.8">
      <path id="Caminho_2564" data-name="Caminho 2564" d="M270.15,100.724c39.389-12,72.626-22.255,117.191-21.973l6.814,70.13c-46.345,4.1-61.851,7.14-104.625,22.624Z" transform="translate(-270.15 -78.745)" fill="#fff"/>
    </g>
    <path id="Caminho_2565" data-name="Caminho 2565" d="M287.51,111.244l-1.736-14.877a17.416,17.416,0,0,1,12.142,3.364,18.251,18.251,0,0,1,7.465,14.692,21.34,21.34,0,0,1-.054,2.17h0l-17.362-1.953Z" transform="translate(-198.336 -77.253)" fill="#007eff"/>
    <path id="Caminho_2566" data-name="Caminho 2566" d="M304.536,108.778a16.83,16.83,0,0,1,12.381-11.752l.521-.109.336-.076,1.02-.152h.087L320.6,111.5l.412,3.494-16.407,5.99h0a18.8,18.8,0,0,1-.846-3.809A20.476,20.476,0,0,1,304.536,108.778Z" transform="translate(-233.321 -77.218)" fill="#007eff"/>
    <g id="Grupo_1828" data-name="Grupo 1828" transform="translate(70.299 19.472)" opacity="0.3">
      <path id="Caminho_2567" data-name="Caminho 2567" d="M304.536,108.778a16.83,16.83,0,0,1,12.381-11.752l.521-.109.336-.076,1.02-.152h.087L320.6,111.5l.412,3.494-16.407,5.99h0a18.8,18.8,0,0,1-.846-3.809A20.476,20.476,0,0,1,304.536,108.778Z" transform="translate(-303.62 -96.69)"/>
    </g>
    <path id="Caminho_2568" data-name="Caminho 2568" d="M302.93,115.1l17.362,1.953c-.727,8.42-6.869,15.4-15.116,16.418s-15.984-4.34-18.7-12.37l16.407-5.99" transform="translate(-214.006 -75.651)" fill="#007eff"/>
    <path id="Caminho_2569" data-name="Caminho 2569" d="M333.36,112.184a9.355,9.355,0,0,0,1.53-.619c.966-.445,2.376-1.085,4.134-1.79A126.28,126.28,0,0,1,353,104.87a127.562,127.562,0,0,1,14.475-3.255c1.866-.3,3.4-.521,4.449-.662a8.422,8.422,0,0,0,1.628-.282,10.611,10.611,0,0,0-1.66.065c-1.085.076-2.593.239-4.482.488a104.473,104.473,0,0,0-28.549,8.138c-1.736.781-3.125,1.454-4.069,1.953A9.764,9.764,0,0,0,333.36,112.184Z" transform="translate(-318.136 -76.88)" fill="#007eff"/>
    <path id="Caminho_2570" data-name="Caminho 2570" d="M332.26,118.9a10.3,10.3,0,0,0,1.53-.629c.966-.434,2.376-1.085,4.134-1.78a123.008,123.008,0,0,1,28.451-8.117c1.866-.3,3.4-.521,4.449-.662a11.287,11.287,0,0,0,1.628-.282,8.017,8.017,0,0,0-1.66.065c-1.085.065-2.593.228-4.482.477a104.844,104.844,0,0,0-14.562,3.06,106.617,106.617,0,0,0-13.987,5.089c-1.736.781-3.125,1.454-4.069,1.953a8.059,8.059,0,0,0-1.432.825Z" transform="translate(-315.842 -76.305)" fill="#007eff"/>
    <path id="Caminho_2571" data-name="Caminho 2571" d="M331.16,125.676a9.356,9.356,0,0,0,1.53-.618c.966-.434,2.376-1.085,4.134-1.79A128.576,128.576,0,0,1,350.8,118.33a129.983,129.983,0,0,1,14.475-3.255c1.866-.293,3.386-.521,4.449-.662a8.421,8.421,0,0,0,1.628-.282,10.614,10.614,0,0,0-1.66.065c-1.085.076-2.593.239-4.481.488a104.84,104.84,0,0,0-14.562,3.06,103.536,103.536,0,0,0-13.987,5.089c-1.736.781-3.125,1.454-4.069,1.953A8.584,8.584,0,0,0,331.16,125.676Z" transform="translate(-313.549 -75.734)" fill="#007eff"/>
    <path id="Caminho_2572" data-name="Caminho 2572" d="M330.05,132.42a10.653,10.653,0,0,0,1.487-.618c.933-.445,2.3-1.085,3.993-1.78a117.058,117.058,0,0,1,27.6-8.127c1.823-.3,3.255-.521,4.34-.662a8.1,8.1,0,0,0,1.584-.282,8.681,8.681,0,0,0-1.617.065c-1.031.065-2.517.228-4.34.488a99.071,99.071,0,0,0-14.161,3.06,101.2,101.2,0,0,0-13.575,5.122c-1.682.781-3.027,1.454-3.928,1.953A8.465,8.465,0,0,0,330.05,132.42Z" transform="translate(-310.052 -75.154)" fill="#007eff"/>
    <path id="Caminho_2573" data-name="Caminho 2573" d="M328.96,137.686a8.294,8.294,0,0,0,1.335-.532l3.592-1.6a87.427,87.427,0,0,1,24.762-7.064l3.9-.543a8.766,8.766,0,0,0,1.421-.25,6.141,6.141,0,0,0-1.443,0c-.933,0-2.268.174-3.917.358a75.414,75.414,0,0,0-24.881,7.1c-1.508.716-2.7,1.324-3.527,1.769a6.836,6.836,0,0,0-1.237.76Z" transform="translate(-303.775 -74.582)" fill="#007eff"/>
    <path id="Caminho_2574" data-name="Caminho 2574" d="M327.42,137.939a18.448,18.448,0,0,0,2.8-.575c1.714-.4,4.091-.922,6.738-1.367s5.067-.792,6.814-1.085a16.742,16.742,0,0,0,2.821-.488,13.227,13.227,0,0,0-2.865.087c-1.769.152-4.2.412-6.869.879a61.254,61.254,0,0,0-6.738,1.541A12.585,12.585,0,0,0,327.42,137.939Z" transform="translate(-284.732 -74.01)" fill="#007eff"/>
    <path id="Caminho_2575" data-name="Caminho 2575" d="M327.03,86.381l-.911-.054-2.713-.087c-2.387,0-5.859,0-10.287.228a164.5,164.5,0,0,0-36.134,6.511l-.2.065v.206c2.713,15.549,5.946,34.029,9.4,53.8.141.8.282,1.606.423,2.387v.3l.3-.076a234.643,234.643,0,0,1,24.122-4.981c7.78-1.194,15.191-2.04,22.114-2.474h.271v-.26c-1.9-16.591-3.494-30.48-4.612-40.257-.564-4.84-1.02-8.681-1.324-11.285-.152-1.28-.282-2.268-.358-2.962a5.264,5.264,0,0,0-.1-.76c-.022-.2,0-.25,0-.239a1.276,1.276,0,0,0,0,.271,3.218,3.218,0,0,0,.076.781c.065.705.174,1.714.3,3.017.271,2.648.684,6.511,1.194,11.35,1.085,9.766,2.561,23.6,4.34,40.149l.239-.271c-6.934.412-14.378,1.248-22.169,2.431a235.656,235.656,0,0,0-24.187,4.97l.347.228c-.141-.781-.282-1.584-.423-2.387-3.483-19.77-6.738-38.239-9.473-53.777l-.163.271a167.813,167.813,0,0,1,36-6.652c4.406-.293,7.9-.369,10.243-.358h3.646Z" transform="translate(-216.621 -78.107)" fill="#007eff"/>
  </g>
  <g id="freepik--Character--inject-3" transform="translate(57.529 0)">
    <path id="Caminho_2576" data-name="Caminho 2576" d="M286.023,219.717l-38.413,8.507-5.87-8.507.944-10.949,5.838-5.339H268.64l18.794,16.928" transform="translate(-149.354 -39.254)" fill="#007eff"/>
    <g id="Grupo_1829" data-name="Grupo 1829" transform="translate(92.386 164.176)" opacity="0.3">
      <path id="Caminho_2577" data-name="Caminho 2577" d="M286.023,219.717l-38.413,8.507-5.87-8.507.944-10.949,5.838-5.339H268.64l18.794,16.928" transform="translate(-241.74 -203.43)"/>
    </g>
    <path id="Caminho_2578" data-name="Caminho 2578" d="M365.71,146.589l-48.493-6.511-7.6-2.17s-17.481-3.841-19.109-4.427c-1.888-.673-2.669.076-2.865.781-.315,1.085.749,2.355,2.355,2.984.543.217,9.408,3.255,9.408,3.255a21.7,21.7,0,0,0-2.995.868c-2.116.716-4.145,3.451-5.165,6.641s-1.031,4.167.2,4.623a1.7,1.7,0,0,0,1.411-.2,3.364,3.364,0,0,0,1.454-1.823c1.7-5.089,4.883-5.491,4.883-5.491l1,.282s-3.255,2.29-3.255,5.067a3.106,3.106,0,0,0,.26,1.183,4.2,4.2,0,0,0,4.677,5.523c.694-.13,1.454-.543,1.552-1.237a2.171,2.171,0,0,0-.228-1.085,5.015,5.015,0,0,1-.174-.575l2.908.4s6.587.543,9.419,1.085l45.4,13.672a11.763,11.763,0,0,0,14.725-8.008h0a11.752,11.752,0,0,0-9.766-14.844Z" transform="translate(-287.592 -45.229)" fill="#ffbe9d"/>
    <path id="Caminho_2579" data-name="Caminho 2579" d="M357.392,140.863a2.442,2.442,0,0,1-2.094,1.931c-1,.206-2.04.076-3.049.206-3.017.412-5.371,3.158-8.4,3.418-.423,0-.966,0-1.085-.456s.206-.727.5-.987l7.6-6.7" transform="translate(-328.908 -44.798)" fill="#ffbe9d"/>
    <path id="Caminho_2580" data-name="Caminho 2580" d="M351.077,138.28a5.219,5.219,0,0,0-.89.64c-.543.445-1.335,1.085-2.29,1.91l-3.353,2.876-.955.836c-.293.293-.792.543-.879,1.237a.857.857,0,0,0,.521.8,1.78,1.78,0,0,0,.814.13,6.065,6.065,0,0,0,1.454-.293,38.725,38.725,0,0,0,4.85-2.452,7.423,7.423,0,0,1,2.17-.716c.705-.108,1.4-.087,2.029-.13a3.57,3.57,0,0,0,2.767-1.194,1.337,1.337,0,0,0,.336-1.085,3.158,3.158,0,0,1-.51.911,3.4,3.4,0,0,1-2.6.933,20.314,20.314,0,0,0-2.083.065,8.019,8.019,0,0,0-2.322.705,43.906,43.906,0,0,1-4.8,2.4,6.393,6.393,0,0,1-1.313.26c-.423,0-.781-.119-.738-.336a2.143,2.143,0,0,1,.673-.846l.955-.846,3.255-2.973,2.17-2.04C350.849,138.595,351.109,138.313,351.077,138.28Z" transform="translate(-329.157 -44.798)" fill="#eb996e"/>
    <path id="Caminho_2581" data-name="Caminho 2581" d="M366.693,144.424a4.091,4.091,0,0,0-1.91,0,3.157,3.157,0,0,0-1.66,1.085,8,8,0,0,0-1.194,2.268,13.3,13.3,0,0,1-1.085,2.409,4.232,4.232,0,0,1-1.584,1.53,1.628,1.628,0,0,1-1.487,0c-.315-.163-.434-.326-.423-.336s.174.087.477.206a1.617,1.617,0,0,0,1.313-.13,4.21,4.21,0,0,0,1.411-1.476,13.823,13.823,0,0,0,1.085-2.376,7.985,7.985,0,0,1,1.28-2.344,3.4,3.4,0,0,1,1.856-1.183,3.1,3.1,0,0,1,1.487,0A2.63,2.63,0,0,1,366.693,144.424Z" transform="translate(-354.061 -44.313)" fill="#eb996e"/>
    <path id="Caminho_2582" data-name="Caminho 2582" d="M356.4,136.7a9.649,9.649,0,0,1,1.769.6l4.21,1.552,4.21,1.487a9.048,9.048,0,0,1,1.736.662,8.681,8.681,0,0,1-1.823-.412c-1.085-.315-2.626-.792-4.275-1.389s-3.136-1.183-4.188-1.649A8.172,8.172,0,0,1,356.4,136.7Z" transform="translate(-354.663 -44.933)" fill="#eb996e"/>
    <path id="Caminho_2583" data-name="Caminho 2583" d="M357.969,146.88s-.13.174-.38.445a1.725,1.725,0,0,0-.553,1.335.922.922,0,0,0,.575.716,5.207,5.207,0,0,0,1.172.326,2.072,2.072,0,0,1,1.313.694,1.8,1.8,0,0,1,.217,1.6,2.018,2.018,0,0,1-1.085,1.172,2.442,2.442,0,0,1-1.454.217,8.258,8.258,0,0,1-2.246-.836,4.8,4.8,0,0,1-1.3-.966,1.237,1.237,0,0,1-.3-.51,4.729,4.729,0,0,0,.412.4,5.425,5.425,0,0,0,1.313.836,8.551,8.551,0,0,0,2.17.738,2,2,0,0,0,2.17-1.161,1.443,1.443,0,0,0-.152-1.27,1.747,1.747,0,0,0-1.085-.575,5.308,5.308,0,0,1-1.237-.391,1.226,1.226,0,0,1-.694-.955,1.856,1.856,0,0,1,.705-1.476A2.222,2.222,0,0,1,357.969,146.88Z" transform="translate(-344.057 -44.067)" fill="#eb996e"/>
    <path id="Caminho_2584" data-name="Caminho 2584" d="M359.975,152.624a.829.829,0,0,1,.477.228,1.628,1.628,0,0,1,.542,1.346,2.17,2.17,0,0,1-1.291,1.725,3.527,3.527,0,0,1-2.626,0,4.253,4.253,0,0,1-2.094-1.6,4.08,4.08,0,0,1-.705-2.018,3.721,3.721,0,0,1,.163-1.432,1.171,1.171,0,0,1,.217-.477,7.533,7.533,0,0,0-.119,1.877,4.015,4.015,0,0,0,2.658,3.255,3.255,3.255,0,0,0,2.365,0,1.9,1.9,0,0,0,1.172-1.432,1.541,1.541,0,0,0-.38-1.215C360.137,152.722,359.953,152.657,359.975,152.624Z" transform="translate(-345.021 -43.767)" fill="#eb996e"/>
    <path id="Caminho_2585" data-name="Caminho 2585" d="M347.36,149.228a1.765,1.765,0,0,1,.315-.846,3.559,3.559,0,0,1,1.769-1.443v.326a8.681,8.681,0,0,1-1.085-.608,8.019,8.019,0,0,1-3.038-3.136,20.616,20.616,0,0,0,3.255,2.821,12.254,12.254,0,0,0,1.085.608l.369.2-.391.13a3.712,3.712,0,0,0-1.7,1.237C347.534,148.935,347.414,149.238,347.36,149.228Z" transform="translate(-324.344 -44.352)" fill="#eb996e"/>
    <path id="Caminho_2586" data-name="Caminho 2586" d="M361.114,144c.065-.065.575.5.64,1.4s-.369,1.519-.456,1.465.141-.662.076-1.443S361.016,144.066,361.114,144Z" transform="translate(-353.192 -44.312)" fill="#eb996e"/>
    <path id="Caminho_2587" data-name="Caminho 2587" d="M121.021,160.9s7.075-11.47,8.334-12.446,12.468-5.078,13.423-4.774,14.54,2.615,13.021,4.232-11.035-.141-11.035-.141l-1.28.64s8.193,1.3,9.918,2.3,1.085,2.854-.467,2.7-8.6-1.53-9.028-1.237,7.737,1.921,8.616,2.431c1.183.705,1.3,2.8-.2,2.7-.879-.065-8.572-2.051-8.572-2.051a66.34,66.34,0,0,1,6.663,2.886,1.114,1.114,0,0,1-1.085,1.91c-.911-.2-5.219-2.257-6.435-2.517,0,0-1.085.3-2.17,2.6-.477,1.085-2.669,7.758-6.673,7.672-3.548-.076-7.031,2.843-7.031,2.843Z" transform="translate(113.156 -44.34)" fill="#ffbe9d"/>
    <path id="Caminho_2588" data-name="Caminho 2588" d="M138.074,147.656a6.207,6.207,0,0,1-2.474.684,14.107,14.107,0,0,1-2.8.119c-1.085-.119-2.17-.271-3.364-.445l-2.539-.369h.152a35.461,35.461,0,0,1-5.86,1.834,37.289,37.289,0,0,1,5.653-2.409H127l2.517.336,3.331.488a17.58,17.58,0,0,0,2.713,0C137.1,147.786,138.052,147.558,138.074,147.656Z" transform="translate(130.815 -44.05)" fill="#eb996e"/>
    <path id="Caminho_2589" data-name="Caminho 2589" d="M133.735,158.876a2.724,2.724,0,0,0,3.158,0c.966-.586,1.714-1.476,2.637-2.17,2.756-1.953,6.738-1.487,9.408-3.57.369-.282.738-.76.532-1.183s-.716-.434-1.161-.423l-11.187.26" transform="translate(105.747 -43.671)" fill="#ffbe9d"/>
    <path id="Caminho_2590" data-name="Caminho 2590" d="M136.914,151.854a5.11,5.11,0,0,1,1.2-.152c.781,0,1.91-.119,3.255-.174l4.894-.2h1.421a2.17,2.17,0,0,1,1.638.347.955.955,0,0,1,.184,1.085,1.91,1.91,0,0,1-.564.727,7.456,7.456,0,0,1-1.4.857,43.1,43.1,0,0,1-5.805,1.66,8.541,8.541,0,0,0-2.29,1.085c-.651.445-1.194.987-1.747,1.432a3.961,3.961,0,0,1-3.147,1.085,1.513,1.513,0,0,1-1.085-.608,3.494,3.494,0,0,0,1.085.369,3.885,3.885,0,0,0,2.821-1.215c.51-.445,1.085-1.009,1.736-1.519a8.681,8.681,0,0,1,2.42-1.172,49.2,49.2,0,0,0,5.7-1.671,7.162,7.162,0,0,0,1.28-.77c.358-.293.532-.694.336-.846a2.337,2.337,0,0,0-1.183-.174H138.1A4.568,4.568,0,0,1,136.914,151.854Z" transform="translate(105.954 -43.691)" fill="#eb996e"/>
    <path id="Caminho_2591" data-name="Caminho 2591" d="M214.2,393.78l2.572,28.451,8.54,21.93a2.93,2.93,0,0,1-1.856,3.852h0a2.93,2.93,0,0,1-2.648-.456c-4.807-3.657-22.418-17.221-22.494-19.315-.087-2.42-4.731-29.884-4.731-29.884Z" transform="translate(-35.164 -23.055)" fill="#007eff"/>
    <g id="Grupo_1830" data-name="Grupo 1830" transform="translate(162.929 403.267)" opacity="0.6">
      <path id="Caminho_2592" data-name="Caminho 2592" d="M220.829,445.472l-25.359-21.7.13,1.2a4.449,4.449,0,0,0,1.367,2.724c2.04,1.91,7.8,7.075,21.127,17.362a2.919,2.919,0,0,0,2.734.445Z" transform="translate(-195.47 -423.77)" fill="#fff"/>
    </g>
    <g id="Grupo_1831" data-name="Grupo 1831" transform="translate(165.34 393.284)" opacity="0.6">
      <path id="Caminho_2593" data-name="Caminho 2593" d="M215.988,414.744a1.78,1.78,0,0,1,.738,2.246,1.693,1.693,0,0,1-2.17.749,1.866,1.866,0,0,1-.781-2.376,1.769,1.769,0,0,1,2.4-.532" transform="translate(-213.614 -414.57)" fill="#fff"/>
    </g>
    <path id="Caminho_2594" data-name="Caminho 2594" d="M197.791,433.3c.174.065.64-1.5,2.246-2.5a9,9,0,0,1,3.19-1c0-.065-.369-.25-1.085-.271a4.558,4.558,0,0,0-2.5.749,4.449,4.449,0,0,0-1.7,1.953C197.715,432.883,197.725,433.3,197.791,433.3Z" transform="translate(-17.413 -20.013)" fill="#263238"/>
    <path id="Caminho_2595" data-name="Caminho 2595" d="M195.813,436.506c.141.108.955-.922,2.376-1.508a24.6,24.6,0,0,1,2.724-.673,3.255,3.255,0,0,0-2.973.1C196.345,435.084,195.65,436.451,195.813,436.506Z" transform="translate(-12.973 -19.632)" fill="#263238"/>
    <path id="Caminho_2596" data-name="Caminho 2596" d="M199.73,429.242a29.12,29.12,0,0,1,3.516-2.572c2.105-1.139,4.113-1.27,4.091-1.465a8.014,8.014,0,0,0-7.607,4.037Z" transform="translate(-23.671 -20.387)" fill="#263238"/>
    <path id="Caminho_2597" data-name="Caminho 2597" d="M201.34,421.132c.1.163,1.584-.673,3.624-.977s3.7,0,3.744-.184A7.291,7.291,0,0,0,201.34,421.132Z" transform="translate(-26.79 -20.871)" fill="#263238"/>
    <path id="Caminho_2598" data-name="Caminho 2598" d="M201.992,413.466a14.1,14.1,0,0,1,3.744-1.085,14.59,14.59,0,0,1,3.874.51c0-.065-.3-.38-1.009-.684a6.164,6.164,0,0,0-2.908-.456,6.445,6.445,0,0,0-2.81.9C202.209,413.032,201.916,413.4,201.992,413.466Z" transform="translate(-28.386 -21.528)" fill="#263238"/>
    <path id="Caminho_2599" data-name="Caminho 2599" d="M206.473,411.253a2.387,2.387,0,0,0-.087-1.085,7.6,7.6,0,0,0-1.172-2.713,3.407,3.407,0,0,0-1.6-1.421,1.193,1.193,0,0,0-1.291.412,1.91,1.91,0,0,0-.3,1.335,4.145,4.145,0,0,0,4.037,3.4,4.807,4.807,0,0,0,4.406-3.028,1.693,1.693,0,0,0-.076-1.389,1.161,1.161,0,0,0-1.27-.467,3.983,3.983,0,0,0-1.758,1.183,8.257,8.257,0,0,0-1.693,2.431,2.68,2.68,0,0,0-.326,1.031,13.457,13.457,0,0,1,2.322-3.147,3.765,3.765,0,0,1,1.563-.988.619.619,0,0,1,.694.25,1.15,1.15,0,0,1,0,.911,4.264,4.264,0,0,1-3.841,2.583,3.592,3.592,0,0,1-3.472-2.832,1.378,1.378,0,0,1,.174-.933.629.629,0,0,1,.705-.239,2.951,2.951,0,0,1,1.378,1.172A11.08,11.08,0,0,1,206.473,411.253Z" transform="translate(-29.384 -22.017)" fill="#263238"/>
    <path id="Caminho_2600" data-name="Caminho 2600" d="M221.159,425.474,199.859,256.8l6.814-39.215,40.149,2.17,5.024,202.61a3.071,3.071,0,0,1-2.5,3.114l-23.395,3.613a4.2,4.2,0,0,1-4.8-3.613Z" transform="translate(-68.322 -38.05)" fill="#2c404a"/>
    <path id="Caminho_2601" data-name="Caminho 2601" d="M314.514,263.12l-38.749,38.347,55.742,13.553-3.961,28.126-75.458-10.265a23.786,23.786,0,0,1-16.06-9.647h0a23.742,23.742,0,0,1-.369-27.258L294.45,209.69l26.259,8.561Z" transform="translate(-182.359 -38.721)" fill="#2c404a"/>
    <path id="Caminho_2602" data-name="Caminho 2602" d="M247.368,249.94a21.891,21.891,0,0,0-1.345,4.818,21.135,21.135,0,0,0-.792,4.937,22.865,22.865,0,0,0,1.346-4.818,22.6,22.6,0,0,0,.792-4.937Z" transform="translate(-113.075 -35.296)" fill="#455a64"/>
    <path id="Caminho_2603" data-name="Caminho 2603" d="M277.254,315.149l-.922-.3L273.618,314l-10.4-3.158L225.4,299.47l.1.358L272,250.293l-.488-.152c.922,7.78,1.888,15.908,2.865,24.2,4.8,40.149,9.31,76.521,12.793,102.8,1.736,13.141,3.255,23.764,4.34,31.1.619,3.646,1.085,6.511,1.454,8.41.2.944.358,1.66.467,2.17s.174.738.174.738a3.539,3.539,0,0,0-.119-.749c-.119-.488-.239-1.237-.412-2.17-.391-1.91-.76-4.764-1.346-8.42-1.085-7.346-2.517-17.969-4.189-31.121-3.4-26.281-7.834-62.643-12.631-102.813-.987-8.29-1.953-16.418-2.875-24.2l-.065-.6-.412.434-46.388,49.622-.239.26.336.1,37.881,11.2,10.439,3.049,2.724.781A3.025,3.025,0,0,0,277.254,315.149Z" transform="translate(-137.286 -35.334)" fill="#455a64"/>
    <path id="Caminho_2604" data-name="Caminho 2604" d="M248.794,418.776c.152,0-4.275-35.808-9.885-79.961s-10.287-79.907-10.439-79.885,4.264,35.808,9.874,79.961S248.631,418.787,248.794,418.776Z" transform="translate(-96.315 -34.531)" fill="#455a64"/>
    <path id="Caminho_2605" data-name="Caminho 2605" d="M245.415,233.49a13.021,13.021,0,0,0-.89,2.615c-.477,1.628-1.085,3.917-1.628,6.456s-.966,4.861-1.215,6.511a12.568,12.568,0,0,0-.271,2.745,14.028,14.028,0,0,0,.662-2.68c.4-1.855.868-4.058,1.378-6.511s1.085-4.623,1.454-6.511a13.019,13.019,0,0,0,.51-2.626Z" transform="translate(-106.977 -36.696)" fill="#455a64"/>
    <path id="Caminho_2606" data-name="Caminho 2606" d="M245.671,230.463a1.526,1.526,0,0,0-1.573-.174,1.834,1.834,0,0,0-1.172,1.389,2.007,2.007,0,0,0,.879,2.062,1.942,1.942,0,0,0,2.17-.228,1.649,1.649,0,0,0,.5-1.747,1.617,1.617,0,0,0-.727-.966c-.25-.141-.412-.141-.423-.109a2.17,2.17,0,0,1,.76,1.161,1.248,1.248,0,0,1-.445,1.259,1.476,1.476,0,0,1-1.606.141,1.541,1.541,0,0,1-.651-1.487,1.465,1.465,0,0,1,.825-1.085A2.9,2.9,0,0,1,245.671,230.463Z" transform="translate(-109.718 -36.979)" fill="#455a64"/>
    <path id="Caminho_2607" data-name="Caminho 2607" d="M283,300.837c.119.119,2.3-1.888,5.425-3.689s5.946-2.734,5.892-2.9a16.873,16.873,0,0,0-6.185,2.409A17.078,17.078,0,0,0,283,300.837Z" transform="translate(-201.008 -31.525)" fill="#455a64"/>
    <path id="Caminho_2608" data-name="Caminho 2608" d="M334.372,112.181l22.245,10.742-9.592,66.929,3.765,30.036a11.719,11.719,0,0,1-3.917,10.3h0l-35.928-.705-25.131-13.792-11.556-1.953,4.731-22.863-2.17-32.434-26.292,14.03a9.148,9.148,0,0,1-6.608.792L195.75,160.75l2.507-18.577L241.9,147.11l33.237-29.363,24.74-5.567,4.384-7.281h25.315l1.812,1.324a5.349,5.349,0,0,1,1.834,2.507Z" transform="translate(-168.632 -47.639)" fill="#007eff"/>
    <path id="Caminho_2609" data-name="Caminho 2609" d="M150.123,121.51a26.7,26.7,0,0,1,10.015,13.021c2.539,7.9,8.279,39.834,8.279,39.834l25.272-15.647,14.562,15.311-33.638,29.71a17.134,17.134,0,0,1-18.761,2.593h0a17.145,17.145,0,0,1-9.538-13.119l-4.134-30.285Z" transform="translate(37.861 -46.225)" fill="#007eff"/>
    <path id="Caminho_2610" data-name="Caminho 2610" d="M246.1,209.87l1.563-2.3,16.635,3.071,3.06,7.086Z" transform="translate(-134.008 -38.902)" fill="#ffbe9d"/>
    <path id="Caminho_2611" data-name="Caminho 2611" d="M292.589,224.4c-14.866,5.979-30.741,3.776-44.891-3.722-4.275-2.268-8.236-5.078-12.533-7.314s-9.05-3.874-13.878-3.537-9.69,2.995-11.621,7.433,0,10.471,4.547,12.131l-1.606,1.432c-6.673-3.1-9.842-12.088-6.587-18.7,2.5-5.057,7.748-8.084,11.589-12.218,5.653-6.077,6.239-17.839,6.283-27" transform="translate(-114.349 -41.851)" fill="#007eff"/>
    <path id="Caminho_2612" data-name="Caminho 2612" d="M216.26,124.559a6.762,6.762,0,0,0,1.085,0,4.21,4.21,0,0,1,2.637,1.215,6.207,6.207,0,0,1,1.313,4.243,14.388,14.388,0,0,1-1.2,5.7l-.423.933.814-.608a43.783,43.783,0,0,0,5.61-4.959,41.332,41.332,0,0,0,8.616-13.195,30.142,30.142,0,0,0,1.4-4.579,11.593,11.593,0,0,0,.25-1.747,51.552,51.552,0,0,1-2.018,6.174,43.49,43.49,0,0,1-8.681,12.956,46.051,46.051,0,0,1-5.512,4.915l.4.336a12.867,12.867,0,0,0,.922-3.049,13.334,13.334,0,0,0,.25-2.875,6.4,6.4,0,0,0-1.53-4.471,4.178,4.178,0,0,0-2.854-1.161,4.71,4.71,0,0,0-1.074.174Z" transform="translate(-70.628 -47.072)" fill="#263238"/>
    <path id="Caminho_2613" data-name="Caminho 2613" d="M253.622,124.913c-1.834-.792-4.547.369-5.86,1.866-.868,1-1.356,2.366-2.5,3.017s-4.764,1.161-5.816.358c0,0-.64-3.093-.987-4.34A96.078,96.078,0,0,1,236,110.969c3.494-1.7,2.528-3.939,8.833-3.5a16.038,16.038,0,0,0-.228,8.876" transform="translate(-109.314 -47.425)" fill="#007eff"/>
    <path id="Caminho_2614" data-name="Caminho 2614" d="M245.01,116.329c.065,0-.228-.836-.358-2.376a17.427,17.427,0,0,1,.781-6.435l.076-.26h-.26a10.764,10.764,0,0,0-4.644.412,7.065,7.065,0,0,0-2.17,1.552,8.5,8.5,0,0,1-2.17,1.5l-.174.087v.184c.282,2.637.6,5.512,1.085,8.485.326,1.942.716,3.82,1.172,5.61s.814,3.516,1.194,5.143v.109l.065.054a3.451,3.451,0,0,0,1.866.445,11.39,11.39,0,0,0,1.736-.109,11.1,11.1,0,0,0,1.628-.358,3.494,3.494,0,0,0,1.421-.77,14.354,14.354,0,0,0,1.671-2.3,5.881,5.881,0,0,1,1.714-1.552,6.12,6.12,0,0,1,3.125-.977,6.262,6.262,0,0,1,1.172.174,2.431,2.431,0,0,0-1.172-.336,5.935,5.935,0,0,0-3.255.868,6.044,6.044,0,0,0-1.856,1.606,14.212,14.212,0,0,1-1.66,2.17,5.317,5.317,0,0,1-2.821.977,10.5,10.5,0,0,1-1.66.087,3.136,3.136,0,0,1-1.563-.358l.1.152c-.369-1.639-.716-3.4-1.161-5.176s-.836-3.646-1.15-5.577c-.5-2.951-.825-5.816-1.085-8.442l-.152.271a9.212,9.212,0,0,0,2.344-1.6,6.39,6.39,0,0,1,1.986-1.476,10.656,10.656,0,0,1,4.427-.456l-.184-.271a16.917,16.917,0,0,0-.618,6.587,12.065,12.065,0,0,0,.369,1.769,2.518,2.518,0,0,0,.184.586Z" transform="translate(-109.729 -47.446)" fill="#263238"/>
    <path id="Caminho_2615" data-name="Caminho 2615" d="M234.927,217.236V216a7.671,7.671,0,0,1,1.085-3.353,11.285,11.285,0,0,1,3.993-3.852,16.84,16.84,0,0,1,7.118-1.953c2.756-.25,5.816-.1,9.1-.326a34.321,34.321,0,0,0,10.265-2.17,21.181,21.181,0,0,0,9.256-6.923,16.114,16.114,0,0,0,2.658-5.567,21.29,21.29,0,0,0,.608-6.326c-.163-4.34-1.15-8.366-1.747-12.316a93.736,93.736,0,0,1-1.085-11.459,95.043,95.043,0,0,1,4.633-32.206c.456-1.487.879-2.615,1.15-3.385.13-.369.228-.662.3-.89a1.305,1.305,0,0,0,.087-.3,2.534,2.534,0,0,0-.141.282c-.087.2-.206.51-.358.868-.3.76-.76,1.877-1.259,3.364a90.063,90.063,0,0,0-3.385,12.761,94.4,94.4,0,0,0-1.552,19.532,92.856,92.856,0,0,0,1.085,11.535c.586,3.971,1.563,8.03,1.725,12.251a17.622,17.622,0,0,1-3.147,11.545,20.617,20.617,0,0,1-9.006,6.76,33.845,33.845,0,0,1-10.1,2.17c-3.255.239-6.315.119-9.115.4a17.037,17.037,0,0,0-7.314,2.116,11.3,11.3,0,0,0-4.015,4.015,7.432,7.432,0,0,0-1,3.451,4.477,4.477,0,0,0,.054.944A1.031,1.031,0,0,0,234.927,217.236Z" transform="translate(-136.714 -45.931)" fill="#263238"/>
    <path id="Caminho_2616" data-name="Caminho 2616" d="M225.45,191.79a9.652,9.652,0,0,0,1.248,1.3c.412.4.933.89,1.563,1.421s1.324,1.172,2.17,1.79a59.355,59.355,0,0,0,6,4.156,61.318,61.318,0,0,0,16.45,6.89,58.408,58.408,0,0,0,7.173,1.356c1.031.163,1.964.217,2.789.282s1.53.109,2.116.119a10.514,10.514,0,0,0,1.8,0,12.5,12.5,0,0,0-1.79-.206,17.324,17.324,0,0,1-2.094-.206c-.814-.109-1.747-.174-2.767-.358a67.408,67.408,0,0,1-7.1-1.476,70.437,70.437,0,0,1-8.388-2.854,69.055,69.055,0,0,1-7.921-3.982,67.517,67.517,0,0,1-6.033-4.015c-.835-.6-1.552-1.2-2.17-1.714s-1.183-.966-1.617-1.346a12.911,12.911,0,0,0-1.432-1.161Z" transform="translate(-111.004 -40.245)" fill="#263238"/>
    <path id="Caminho_2617" data-name="Caminho 2617" d="M223.17,159a2.089,2.089,0,0,0,.1.6l.38,1.693a23.871,23.871,0,0,0,.716,2.648c.326,1.02.64,2.17,1.15,3.451.25.629.5,1.291.76,1.975s.618,1.367.933,2.094c.629,1.465,1.454,2.941,2.29,4.514a62.6,62.6,0,0,0,14.844,17.7c1.411,1.085,2.724,2.17,4.058,3.038.651.445,1.27.9,1.9,1.291l1.812,1.085a32.17,32.17,0,0,0,3.2,1.747,26.05,26.05,0,0,0,2.474,1.161l1.606.673a3.311,3.311,0,0,0,.575.2,2.658,2.658,0,0,0-.532-.3l-1.552-.76c-.684-.315-1.508-.716-2.431-1.248s-2.018-1.085-3.136-1.8l-1.78-1.085c-.618-.391-1.226-.857-1.877-1.3-1.3-.879-2.593-1.953-3.982-3.06a70.862,70.862,0,0,1-8.149-8.117,72.032,72.032,0,0,1-6.576-9.43c-.846-1.563-1.682-3.017-2.311-4.46-.336-.716-.684-1.4-.966-2.073l-.781-1.953c-.543-1.226-.879-2.387-1.226-3.4s-.618-1.888-.814-2.615l-.477-1.66A2.17,2.17,0,0,0,223.17,159Z" transform="translate(-101.735 -43.035)" fill="#263238"/>
    <path id="Caminho_2618" data-name="Caminho 2618" d="M208.911,226.532a6.511,6.511,0,0,0,1.986-1.476,15.007,15.007,0,0,0,4.525-10.775,6.792,6.792,0,0,0-.326-2.441,22.885,22.885,0,0,0-.076,2.431,17,17,0,0,1-4.416,10.515C209.594,225.881,208.813,226.456,208.911,226.532Z" transform="translate(-41.717 -38.538)" fill="#263238"/>
    <path id="Caminho_2619" data-name="Caminho 2619" d="M214.2,217.59c-.163,0,.141,1.443,0,3.147s-.673,3.038-.521,3.114a6.511,6.511,0,0,0,.532-6.261Z" transform="translate(-46.214 -38.049)" fill="#263238"/>
    <path id="Caminho_2620" data-name="Caminho 2620" d="M195.731,185.758a1.737,1.737,0,0,0,.13-.51c.076-.4.163-.89.271-1.476.228-1.367.543-3.255.911-5.426.76-4.59,1.845-10.927,3.147-17.9s2.572-13.292,3.472-17.861c.456-2.17.836-4.037,1.085-5.425.119-.586.206-1.085.282-1.465a1.638,1.638,0,0,0,.065-.532,2.065,2.065,0,0,0-.174.5c-.108.4-.228.879-.38,1.454-.326,1.259-.77,3.093-1.291,5.36-1.085,4.536-2.376,10.851-3.689,17.817s-2.311,13.347-2.973,17.948c-.336,2.311-.586,4.178-.738,5.426-.065.6-.119,1.085-.163,1.5a1.736,1.736,0,0,0,.043.6Z" transform="translate(-17.036 -45.064)" fill="#263238"/>
    <path id="Caminho_2621" data-name="Caminho 2621" d="M271.938,185.923a2.985,2.985,0,0,0,.054-.532v-7.216c0-4.785-.26-11.394-.814-18.675s-1.28-13.857-1.845-18.609c-.293-2.311-.532-4.21-.716-5.621q-.13-.911-.228-1.53a2.534,2.534,0,0,0-.108-.521,1.727,1.727,0,0,0,0,.543c0,.412.076.922.119,1.53.13,1.421.315,3.32.532,5.643.467,4.753,1.085,11.328,1.682,18.609s.825,13.868.977,18.642c.065,2.322.119,4.232.163,5.664l.054,1.541a1.747,1.747,0,0,0,.13.532Z" transform="translate(-162.689 -45.229)" fill="#263238"/>
    <path id="Caminho_2622" data-name="Caminho 2622" d="M178.926,185.571c.184.076,1.617-3.874,4.34-8.171s6.022-7,5.881-7.14a9.961,9.961,0,0,0-2.17,1.725,29.84,29.84,0,0,0-4.232,5.1,35.313,35.313,0,0,0-3.038,5.881,10.937,10.937,0,0,0-.781,2.6Z" transform="translate(17.087 -42.077)" fill="#263238"/>
    <path id="Caminho_2623" data-name="Caminho 2623" d="M178.92,180.833a20.725,20.725,0,0,0,1.215-2.17,16.8,16.8,0,0,1,3.754-4.34,23.762,23.762,0,0,1,4.959-3.027,14.3,14.3,0,0,0,2.17-1.085,8.508,8.508,0,0,0-2.355.694,19,19,0,0,0-5.165,2.962,14.584,14.584,0,0,0-3.744,4.633,7.075,7.075,0,0,0-.836,2.333Z" transform="translate(15.227 -42.081)" fill="#263238"/>
    <path id="Caminho_2624" data-name="Caminho 2624" d="M183.045,157.115a2.739,2.739,0,0,0,.228.477,4.655,4.655,0,0,0,.987,1.161,6.587,6.587,0,0,0,5.317,1.432,10.3,10.3,0,0,0,6.684-4.72,23,23,0,0,0,2.17-4.34c.3-.792.608-1.6.868-2.441a6.749,6.749,0,0,0,.3-2.734,3.765,3.765,0,0,0-1.324-2.463,3.136,3.136,0,0,0-2.68-.477,5.274,5.274,0,0,0-3.57,3.386,5.089,5.089,0,0,0,.445,4.438,5.545,5.545,0,0,0,3.093,2.376,4.916,4.916,0,0,0,3.255-.152,5.426,5.426,0,0,0,2.007-1.367,4.232,4.232,0,0,0,.846-1.27c.141-.326.184-.5.163-.51a6.935,6.935,0,0,1-1.161,1.628,5.5,5.5,0,0,1-1.964,1.226,4.709,4.709,0,0,1-2.984.065,5.133,5.133,0,0,1-2.81-2.235,4.612,4.612,0,0,1-.358-4.015,4.731,4.731,0,0,1,3.255-3.027,2.583,2.583,0,0,1,2.17.391,3.168,3.168,0,0,1,1.085,2.083c.2,1.682-.564,3.331-1.085,4.894a21.7,21.7,0,0,1-2.17,4.34,10.015,10.015,0,0,1-6.315,4.623,6.511,6.511,0,0,1-5.111-1.215,8.2,8.2,0,0,1-1.345-1.552Z" transform="translate(-0.075 -44.406)" fill="#fafafa"/>
    <path id="Caminho_2625" data-name="Caminho 2625" d="M198.63,174.557l.3.25c.217.184.521.412.9.705a23.977,23.977,0,0,0,3.733,2.344,11.426,11.426,0,0,0,3.049,1.02,7.975,7.975,0,0,0,3.809-.25,13.434,13.434,0,0,0,6.869-6.055,22.125,22.125,0,0,0-.2-23.058,11.936,11.936,0,0,0-5.111-4.774,6.663,6.663,0,0,0-3.657-.467,5,5,0,0,0-3.255,1.856,5.317,5.317,0,0,0-1.02,3.7,8.333,8.333,0,0,0,1.172,3.689,12.056,12.056,0,0,0,6.033,4.894,15.528,15.528,0,0,0,7.748.8,15.9,15.9,0,0,0,6.977-2.9,23.937,23.937,0,0,0,8.214-11.5,13.976,13.976,0,0,0,1-6.587,6.6,6.6,0,0,0-1.27-2.995,4.557,4.557,0,0,0-2.648-1.725,5.794,5.794,0,0,0-5.426,1.888,6.2,6.2,0,0,0-1.313,5.2,8.236,8.236,0,0,0,2.224,4.34,10.547,10.547,0,0,0,3.668,2.4,16.526,16.526,0,0,0,6.89,1.085,39.739,39.739,0,0,0,4.34-.445l1.139-.184.38-.076h-.391l-1.139.13c-1,.1-2.474.293-4.34.336a16.764,16.764,0,0,1-6.771-1.085,10.168,10.168,0,0,1-3.527-2.355,7.889,7.889,0,0,1-2.094-4.2,5.816,5.816,0,0,1,1.248-4.85,5.425,5.425,0,0,1,5.035-1.714,4.991,4.991,0,0,1,3.527,4.34,13.2,13.2,0,0,1-1,6.337,23.438,23.438,0,0,1-8.03,11.231,15.485,15.485,0,0,1-6.749,2.778,14.855,14.855,0,0,1-7.455-.77,11.415,11.415,0,0,1-5.751-4.644,7.92,7.92,0,0,1-1.085-3.451,4.709,4.709,0,0,1,.9-3.31,4.5,4.5,0,0,1,2.93-1.66,6.153,6.153,0,0,1,3.364.423,11.426,11.426,0,0,1,4.872,4.557,21.235,21.235,0,0,1,3.31,12.045,21.518,21.518,0,0,1-3.006,10.525,13.13,13.13,0,0,1-6.63,5.957,8.963,8.963,0,0,1-6.663-.662,26.589,26.589,0,0,1-3.765-2.246l-.933-.651A1.822,1.822,0,0,0,198.63,174.557Z" transform="translate(-58.326 -45.213)" fill="#fafafa"/>
    <path id="Caminho_2626" data-name="Caminho 2626" d="M192.22,115.22a3.668,3.668,0,0,0,.347.966,14.892,14.892,0,0,0,1.4,2.441,17.817,17.817,0,0,0,16.081,7.672,14.813,14.813,0,0,0,2.767-.445,3.255,3.255,0,0,0,.977-.347c0-.1-1.432.315-3.765.4a18.675,18.675,0,0,1-15.745-7.509C192.882,116.533,192.329,115.166,192.22,115.22Z" transform="translate(-21.978 -46.761)" fill="#fafafa"/>
    <path id="Caminho_2627" data-name="Caminho 2627" d="M222.179,119.478a10.015,10.015,0,0,1,3.06,1.508,9.864,9.864,0,0,1,1.986,2.778c.065,0,.087-.434-.13-1.085a5.067,5.067,0,0,0-3.841-3.255C222.591,119.326,222.179,119.413,222.179,119.478Z" transform="translate(-67.963 -46.407)" fill="#fafafa"/>
    <path id="Caminho_2628" data-name="Caminho 2628" d="M242.992,126.111a2.322,2.322,0,0,0,.922-.423,7.509,7.509,0,0,0,2.04-1.877,7.411,7.411,0,0,0,1.508-3.841,3.667,3.667,0,0,0-.673-2.441,2.507,2.507,0,0,0-2.507-1.085,2.767,2.767,0,0,0-1.975,1.9,2.593,2.593,0,0,0,.5,2.5,3.5,3.5,0,0,0,3.928,1.085,4.481,4.481,0,0,0,2.17-1.78,2.17,2.17,0,0,0,.4-.933,9.246,9.246,0,0,1-.586.8,4.525,4.525,0,0,1-2.094,1.53,3.114,3.114,0,0,1-3.4-.987,2.105,2.105,0,0,1-.38-2.007,2.268,2.268,0,0,1,1.573-1.508,1.964,1.964,0,0,1,1.953.846,3.255,3.255,0,0,1,.586,2.073,7.249,7.249,0,0,1-1.313,3.646,11.242,11.242,0,0,1-2.659,2.507Z" transform="translate(-111.704 -46.66)" fill="#fafafa"/>
    <path id="Caminho_2629" data-name="Caminho 2629" d="M244.7,113.961a13.747,13.747,0,0,1,3.592-2.507,14.106,14.106,0,0,1,4.34-.738c0-.065-.467-.26-1.3-.315a7.107,7.107,0,0,0-3.255.532,7.39,7.39,0,0,0-2.669,1.877C244.843,113.44,244.637,113.928,244.7,113.961Z" transform="translate(-117.755 -47.172)" fill="#fafafa"/>
    <path id="Caminho_2630" data-name="Caminho 2630" d="M241.64,126.018a1.359,1.359,0,0,0,.206.13l.651.347a26.057,26.057,0,0,0,2.615,1.085,31.532,31.532,0,0,0,10.222,1.921,14.931,14.931,0,0,0,3.472-.336,7.6,7.6,0,0,0,3.418-1.671,5.078,5.078,0,0,0,1.682-3.711,6.3,6.3,0,0,0-1.443-4.08,8.388,8.388,0,0,0-8.681-2.17,10.091,10.091,0,0,0-6.923,6.706,9.907,9.907,0,0,0,2.073,9.408,15.191,15.191,0,0,0,8.03,4.34,46.9,46.9,0,0,0,8.236.836,45.085,45.085,0,0,1,7.107.694,14.41,14.41,0,0,1,8.735,4.981,10.373,10.373,0,0,1,1.671,3.375.728.728,0,0,0,0-.25,2.87,2.87,0,0,0-.174-.716,9.159,9.159,0,0,0-1.28-2.539,14.421,14.421,0,0,0-8.844-5.241,43.407,43.407,0,0,0-7.162-.77,46.292,46.292,0,0,1-8.138-.868,14.747,14.747,0,0,1-7.737-4.189,9.354,9.354,0,0,1-1.942-8.876,9.538,9.538,0,0,1,6.511-6.337,7.9,7.9,0,0,1,8.095,2.018,5.773,5.773,0,0,1,1.345,3.744,4.579,4.579,0,0,1-1.5,3.375,7.237,7.237,0,0,1-3.255,1.6,14.5,14.5,0,0,1-3.364.358,32.879,32.879,0,0,1-10.157-1.725c-1.15-.4-2.029-.76-2.626-1.009A6.413,6.413,0,0,0,241.64,126.018Z" transform="translate(-144.533 -46.6)" fill="#fafafa"/>
    <path id="Caminho_2631" data-name="Caminho 2631" d="M240.67,165.146c.1,0,.467-.911,1.465-2.17a11.155,11.155,0,0,1,11.079-4.178c1.573.3,2.485.76,2.528.673a5.86,5.86,0,0,0-2.441-1.085,10.71,10.71,0,0,0-11.5,4.34,5.849,5.849,0,0,0-1.129,2.42Z" transform="translate(-116.501 -43.116)" fill="#fafafa"/>
    <path id="Caminho_2632" data-name="Caminho 2632" d="M252.2,172.15a5.285,5.285,0,0,0,1.487,2.17,9.1,9.1,0,0,0,11.936.944,5.425,5.425,0,0,0,1.812-1.931c-.076-.076-.694.738-2.04,1.6a9.538,9.538,0,0,1-5.849,1.519,9.646,9.646,0,0,1-5.545-2.42C252.775,172.986,252.287,172.085,252.2,172.15Z" transform="translate(-140.705 -41.916)" fill="#fafafa"/>
    <path id="Caminho_2633" data-name="Caminho 2633" d="M258.85,152.362c0,.087.705-.315,1.855-.619a7.965,7.965,0,0,1,8.312,2.659c.76.922,1.085,1.617,1.15,1.584a3.841,3.841,0,0,0-.836-1.823,7.6,7.6,0,0,0-8.746-2.8A3.863,3.863,0,0,0,258.85,152.362Z" transform="translate(-150.654 -43.722)" fill="#fafafa"/>
    <path id="Caminho_2634" data-name="Caminho 2634" d="M278.9,143.191a5.625,5.625,0,0,0-.2.8,5.752,5.752,0,0,0-.13,1,7.932,7.932,0,0,0,0,1.378,13.673,13.673,0,0,0,3.114,8.084,14.248,14.248,0,0,0,4.633,3.874,14.411,14.411,0,0,0,6.771,1.552,18.229,18.229,0,0,0,13.944-6.89A10.972,10.972,0,0,0,309,149.224a7.151,7.151,0,0,0-.065-4.134,5.328,5.328,0,0,0-2.539-3.1,5.8,5.8,0,0,0-3.82-.445,6.369,6.369,0,0,0-3.255,1.7,7.6,7.6,0,0,0-1.78,2.941,9.906,9.906,0,0,0,.054,6.055,11.426,11.426,0,0,0,2.561,4.34,11.938,11.938,0,0,0,2.984,2.3,11.428,11.428,0,0,0,2.17.89,5.42,5.42,0,0,0,.825.152,16.105,16.105,0,0,1-2.93-1.226,11.719,11.719,0,0,1-5.274-6.511,9.56,9.56,0,0,1,0-5.784,6.934,6.934,0,0,1,1.682-2.734,5.914,5.914,0,0,1,2.973-1.552,5.35,5.35,0,0,1,3.472.412,4.753,4.753,0,0,1,2.257,2.8,6.51,6.51,0,0,1,.054,3.809,10.254,10.254,0,0,1-1.866,3.57,17.806,17.806,0,0,1-13.5,6.717,14.18,14.18,0,0,1-14.345-12.989A21.77,21.77,0,0,1,278.9,143.191Z" transform="translate(-211.138 -44.533)" fill="#fafafa"/>
    <path id="Caminho_2635" data-name="Caminho 2635" d="M317.356,165.568a3.083,3.083,0,0,0,.662-.749,7.792,7.792,0,0,0,1.183-2.452,10.015,10.015,0,0,0,.163-4.037,37.074,37.074,0,0,0-1.085-4.8,34.438,34.438,0,0,0-3.885-8.008c-.608-.955-1.085-1.725-1.5-2.235a3.906,3.906,0,0,0-.619-.781,25.955,25.955,0,0,0,1.769,3.255,40.153,40.153,0,0,1,3.689,7.965,44.394,44.394,0,0,1,1.085,4.709,10.146,10.146,0,0,1,0,3.863,14.454,14.454,0,0,1-1.465,3.266Z" transform="translate(-257.957 -44.438)" fill="#fafafa"/>
    <path id="Caminho_2636" data-name="Caminho 2636" d="M330.231,140.75a2.658,2.658,0,0,0-.326.781,13.56,13.56,0,0,0-.543,2.224,19.89,19.89,0,0,0,3.244,14.508,13.342,13.342,0,0,0,1.432,1.79c.38.391.6.6.629.575s-.727-.966-1.725-2.583a22.7,22.7,0,0,1-2.789-6.847,22.387,22.387,0,0,1-.358-7.379C329.981,141.922,330.329,140.783,330.231,140.75Z" transform="translate(-291.383 -44.588)" fill="#fafafa"/>
    <path id="Caminho_2637" data-name="Caminho 2637" d="M242.8,187.8a2.451,2.451,0,0,0,.467-.25,13.8,13.8,0,0,1,1.324-.716,15.7,15.7,0,0,1,5.3-1.487,16.07,16.07,0,0,1,7.965,1.28,13.672,13.672,0,0,1,3.982,2.637A8.14,8.14,0,0,1,263.4,191.2a3.874,3.874,0,0,1,.543,2.387,2.843,2.843,0,0,1-1.15,2.04,2.322,2.322,0,0,1-2.17.1,3.885,3.885,0,0,1-2.018-3.809,7.715,7.715,0,0,1,4.026-6.511,7.889,7.889,0,0,1,5.317-.694,18.713,18.713,0,0,1,1.931.619,1.888,1.888,0,0,0-.456-.293,7.594,7.594,0,0,0-1.422-.543,7.91,7.91,0,0,0-5.556.564,8.1,8.1,0,0,0-4.34,6.869,5.761,5.761,0,0,0,.467,2.452,3.657,3.657,0,0,0,1.845,1.877,2.875,2.875,0,0,0,2.745-.141,3.4,3.4,0,0,0,1.411-2.441,4.34,4.34,0,0,0-.618-2.724,8.429,8.429,0,0,0-1.671-2.062,14.106,14.106,0,0,0-4.156-2.713,16.277,16.277,0,0,0-8.214-1.2,14.593,14.593,0,0,0-5.349,1.693,9.559,9.559,0,0,0-1.291.814C242.932,187.659,242.78,187.779,242.8,187.8Z" transform="translate(-132.946 -40.888)" fill="#fafafa"/>
    <path id="Caminho_2638" data-name="Caminho 2638" d="M268.52,195.79a7.065,7.065,0,0,0,1.313,2.485c.857,1.291,1.649,2.268,1.78,2.17a7.064,7.064,0,0,0-1.313-2.485C269.442,196.68,268.65,195.7,268.52,195.79Z" transform="translate(-162.592 -39.905)" fill="#fafafa"/>
    <path id="Caminho_2639" data-name="Caminho 2639" d="M278.46,210.4c.087,0,.239-.38.619-.944A5.61,5.61,0,0,1,283.495,207a5.686,5.686,0,0,0,1.085,0,1.764,1.764,0,0,0-1.085-.369,4.937,4.937,0,0,0-4.774,2.658C278.417,209.919,278.395,210.386,278.46,210.4Z" transform="translate(-186.312 -38.983)" fill="#fafafa"/>
    <path id="Caminho_2640" data-name="Caminho 2640" d="M228.819,205c0,.076,1.3.738,3.4,1.942a29.353,29.353,0,0,1,7.379,5.7,15.745,15.745,0,0,1,3.917,8.29,19.6,19.6,0,0,1-.065,3.874,3.256,3.256,0,0,0,.3-1.02,9.831,9.831,0,0,0,.152-2.886,15.191,15.191,0,0,0-3.885-8.626,26.627,26.627,0,0,0-7.6-5.686c-1.085-.553-1.975-.966-2.593-1.237a3.417,3.417,0,0,0-1.009-.347Z" transform="translate(-91.846 -39.12)" fill="#fafafa"/>
    <path id="Caminho_2641" data-name="Caminho 2641" d="M256.391,210.713a3.938,3.938,0,0,0,1.183-1.3,7.259,7.259,0,0,0-.684-8.106,3.179,3.179,0,0,0-1.378-1.085c-.065.087.467.488,1.085,1.335a7.791,7.791,0,0,1,.64,7.672C256.771,210.149,256.315,210.648,256.391,210.713Z" transform="translate(-135.358 -39.527)" fill="#fafafa"/>
    <path id="Caminho_2642" data-name="Caminho 2642" d="M202.847,192a6.536,6.536,0,0,1,.629-.629,4.471,4.471,0,0,1,2.257-1,5.642,5.642,0,0,1,3.787.781,11.578,11.578,0,0,1,3.592,3.8c1.085,1.649,1.975,3.635,3.353,5.567a11.86,11.86,0,0,0,5.979,4.471,11.1,11.1,0,0,0,8.214-.477,11.762,11.762,0,0,0,6.044-6.445,7.021,7.021,0,0,0,.184-4.568,6.369,6.369,0,0,0-2.821-3.451,6.511,6.511,0,0,0-4.188-.966,6.945,6.945,0,0,0-3.722,1.769,9.1,9.1,0,0,0-2.941,6.825,11.242,11.242,0,0,0,2.018,6.2,12.62,12.62,0,0,0,3.928,3.689,15.853,15.853,0,0,0,3.722,1.628,17.559,17.559,0,0,0,2.507.521l.662.076h.239a6.212,6.212,0,0,0-.879-.184,19.048,19.048,0,0,1-2.463-.629,15.872,15.872,0,0,1-3.624-1.682,12.359,12.359,0,0,1-3.754-3.635,10.927,10.927,0,0,1-1.888-5.979,8.681,8.681,0,0,1,2.821-6.435,6.359,6.359,0,0,1,3.44-1.617,6.011,6.011,0,0,1,3.841.89,5.935,5.935,0,0,1,2.572,3.158,6.511,6.511,0,0,1-.184,4.21,11.274,11.274,0,0,1-5.751,6.131,10.536,10.536,0,0,1-7.813.477,11.361,11.361,0,0,1-5.762-4.254c-1.356-1.856-2.29-3.841-3.4-5.5a11.773,11.773,0,0,0-3.776-3.852,5.805,5.805,0,0,0-3.971-.727,4.438,4.438,0,0,0-2.3,1.085,2.746,2.746,0,0,0-.553.76Z" transform="translate(-56.901 -40.478)" fill="#fafafa"/>
    <path id="Caminho_2643" data-name="Caminho 2643" d="M230.294,208.418a4.981,4.981,0,0,0,1.747-1.378,11.936,11.936,0,0,0,3.006-10.07,5.2,5.2,0,0,0-.705-2.17c-.1,0,.163.836.3,2.17a13.238,13.238,0,0,1-2.9,9.766C230.89,207.81,230.228,208.342,230.294,208.418Z" transform="translate(-84.705 -39.988)" fill="#fafafa"/>
    <path id="Caminho_2644" data-name="Caminho 2644" d="M203.041,185.309s.76-.369,2.17-.922a26.043,26.043,0,0,1,15.625-1.172,21.291,21.291,0,0,1,5.209,1.953,3.5,3.5,0,0,1,1.725,2.062,1.975,1.975,0,0,1-1.085,2.17,1.15,1.15,0,0,1-1.085-.347,2.7,2.7,0,0,1-.651-1.2,9.941,9.941,0,0,1-.25-2.886,12.913,12.913,0,0,1,1.389-5.328,12.457,12.457,0,0,1,3.06-3.939,12.252,12.252,0,0,1,3.787-2.17,13.282,13.282,0,0,1,6.283-.629c1.5.239,2.29.575,2.3.521a2.169,2.169,0,0,0-.553-.26,12.066,12.066,0,0,0-8.171,0,12.727,12.727,0,0,0-3.95,2.17,13.021,13.021,0,0,0-3.255,4.058,13.39,13.39,0,0,0-1.476,5.545,10.538,10.538,0,0,0,.26,3.06,3.429,3.429,0,0,0,.792,1.454,1.736,1.736,0,0,0,1.693.488,2.17,2.17,0,0,0,1.291-1.161,2.854,2.854,0,0,0,.239-1.671,4.026,4.026,0,0,0-2-2.431,20.955,20.955,0,0,0-5.371-1.975,25.717,25.717,0,0,0-9.614-.358,24.165,24.165,0,0,0-6.218,1.823,15.356,15.356,0,0,0-1.606.825Q203.019,185.276,203.041,185.309Z" transform="translate(-61.445 -41.891)" fill="#fafafa"/>
    <path id="Caminho_2645" data-name="Caminho 2645" d="M158.28,189.414a20.08,20.08,0,0,1-1.747-1.606,15.072,15.072,0,0,1-3.407-5.425,11.784,11.784,0,0,1,.271-9.18,11.621,11.621,0,0,1,3.461-4.275,9.766,9.766,0,0,1,5.425-2.051,6.261,6.261,0,0,1,2.865.6,3.667,3.667,0,0,1,1.91,1.942,2.789,2.789,0,0,1-.391,2.517,4.091,4.091,0,0,1-2.051,1.53,5.632,5.632,0,0,1-4.7-.8,7.9,7.9,0,0,1-2.854-3.255,16.439,16.439,0,0,1-1.356-6.229,11.949,11.949,0,0,0-.076-1.769,2.04,2.04,0,0,0-.054-.608,2.04,2.04,0,0,0,0,.608v1.769a15.734,15.734,0,0,0,1.15,6.521,8.29,8.29,0,0,0,2.951,3.451,6.076,6.076,0,0,0,5.111.9,4.535,4.535,0,0,0,2.344-1.714,3.309,3.309,0,0,0,.467-3.006,4.112,4.112,0,0,0-2.17-2.257,6.879,6.879,0,0,0-3.136-.662,10.265,10.265,0,0,0-5.784,2.17,12.11,12.11,0,0,0-3.6,4.5,11.394,11.394,0,0,0-1.085,5.089,13.076,13.076,0,0,0,.89,4.449,14.812,14.812,0,0,0,3.635,5.425,9.561,9.561,0,0,0,1.367,1.085A2.957,2.957,0,0,0,158.28,189.414Z" transform="translate(67.877 -42.882)" fill="#fafafa"/>
    <path id="Caminho_2646" data-name="Caminho 2646" d="M178.437,204.267a4.025,4.025,0,0,0,.846-.9,17.471,17.471,0,0,0,1.866-2.821,20.02,20.02,0,0,0-1.4-21.235,17.884,17.884,0,0,0-2.17-2.55,4.632,4.632,0,0,0-.987-.76c-.076.087,1.28,1.237,2.843,3.57a20.617,20.617,0,0,1,1.378,20.823,42.561,42.561,0,0,1-2.376,3.874Z" transform="translate(25.226 -41.588)" fill="#fafafa"/>
    <path id="Caminho_2647" data-name="Caminho 2647" d="M179.19,181.54c.1,0,.553-1.628,1.9-4.026a22.31,22.31,0,0,1,17.145-11.339c2.734-.3,4.449-.065,4.449-.174a4.6,4.6,0,0,0-1.194-.206,19.911,19.911,0,0,0-3.255,0,21.463,21.463,0,0,0-17.47,11.556,18.442,18.442,0,0,0-1.27,3.038A4.339,4.339,0,0,0,179.19,181.54Z" transform="translate(3.271 -42.462)" fill="#fafafa"/>
    <g id="Grupo_1832" data-name="Grupo 1832" transform="translate(117.474 154.898)" opacity="0.3">
      <path id="Caminho_2648" data-name="Caminho 2648" d="M262.791,209.431c1.085.445.944,2.094.076,2.81a4.644,4.644,0,0,1-3.255.694A41.907,41.907,0,0,1,227.46,194.88c9.766,8.041,22.679,11.09,35.06,13.889" transform="translate(-227.46 -194.88)"/>
    </g>
    <g id="Grupo_1833" data-name="Grupo 1833" transform="translate(126.187 123.789)" opacity="0.3">
      <path id="Caminho_2649" data-name="Caminho 2649" d="M254.461,200.8c1.085-1.638.347-3.939-1.085-5.328a18.209,18.209,0,0,0-5.013-2.984,31.663,31.663,0,0,1-14.627-15.007c-1.975-4.275-3.461-9.516-7.834-11.274a42.384,42.384,0,0,0,27.9,33.269" transform="translate(-225.902 -166.21)"/>
    </g>
    <g id="Grupo_1834" data-name="Grupo 1834" transform="translate(181.203 102.119)" opacity="0.3">
      <path id="Caminho_2650" data-name="Caminho 2650" d="M198.929,146.24a110.116,110.116,0,0,0,2.5,35.461,29.873,29.873,0,0,1,1.2,7.476,9.94,9.94,0,0,1-3.6,7.021c-1.8-4.156-1.834-8.16-2.593-12.631-.684-4.026-1.834-13.434-1.834-13.575-.163-8.225,1.78-15.278,4.948-22.689" transform="translate(-194.59 -146.24)"/>
    </g>
    <g id="Grupo_1835" data-name="Grupo 1835" transform="translate(124.699 66.311)" opacity="0.3">
      <path id="Caminho_2651" data-name="Caminho 2651" d="M256.67,113.424a43.318,43.318,0,0,1-12.283,23.048c-2.4,2.333-5.426,4.492-8.735,4.34a20.443,20.443,0,0,0,1.682-12.782,52.855,52.855,0,0,1-8.941,4.861,17.741,17.741,0,0,1-9.983,1.085l-2.062-17.937a3.353,3.353,0,0,1,.184-2.018,1.161,1.161,0,0,1,1.725-.412,1.725,1.725,0,0,1,.336.792c1.215,5.263,1.9,9.983,3.125,15.257.879.868,3.581.51,5.36-.152,1.552-.575,2.17-1.856,3.168-3.147s.846-1.085,2.366-1.714c2.8-1.183,8.171-.239,9.343,2.268s.282,5.816-.5,8.29a37.6,37.6,0,0,0,15.832-21.962" transform="translate(-216.27 -113.24)"/>
    </g>
    <g id="Grupo_1836" data-name="Grupo 1836" transform="translate(99.168 91.952)" opacity="0.3">
      <path id="Caminho_2652" data-name="Caminho 2652" d="M276.03,136.87c.217.434-6.76,23.959-6.76,23.959l9.039-5.154Z" transform="translate(-269.27 -136.87)"/>
    </g>
    <path id="Caminho_2653" data-name="Caminho 2653" d="M258.511,75.532v37.447a9.061,9.061,0,0,1-2.17,5.849h0a27.214,27.214,0,0,1-7.531,6.228l-7.6,4.264-6.25-5.588a9.1,9.1,0,0,1-3.027-6.413c-.108-2.734-.1-5.425-.1-5.425s-10.591-.76-11.589-11.2c-.467-4.926-.619-15-.64-24.274A20.313,20.313,0,0,1,238.339,56h.293a19.413,19.413,0,0,1,19.879,19.532Z" transform="translate(-96.418 -51.801)" fill="#ffbe9d"/>
    <path id="Caminho_2654" data-name="Caminho 2654" d="M231.88,107.834a25.337,25.337,0,0,0,13.271-5.154s-2.734,7.921-13.249,7.845Z" transform="translate(-96.372 -47.828)" fill="#eb996e"/>
    <path id="Caminho_2655" data-name="Caminho 2655" d="M249.781,81.046a1.5,1.5,0,0,0,1.563,1.389,1.432,1.432,0,0,0,1.421-1.476A1.5,1.5,0,0,0,251.2,79.57a1.421,1.421,0,0,0-1.422,1.476Z" transform="translate(-123.409 -49.795)" fill="#263238"/>
    <path id="Caminho_2656" data-name="Caminho 2656" d="M247.5,78.773c.2.174,1.259-.76,2.865-.89s2.854.586,3.006.369-.13-.423-.684-.76a4.112,4.112,0,0,0-2.42-.532,3.928,3.928,0,0,0-2.268.944C247.531,78.329,247.412,78.687,247.5,78.773Z" transform="translate(-121.55 -50.018)" fill="#263238"/>
    <path id="Caminho_2657" data-name="Caminho 2657" d="M235.81,80.346a1.5,1.5,0,0,0,1.563,1.389,1.443,1.443,0,0,0,1.432-1.476,1.508,1.508,0,0,0-1.563-1.389,1.432,1.432,0,0,0-1.432,1.476Z" transform="translate(-94.291 -49.854)" fill="#263238"/>
    <path id="Caminho_2658" data-name="Caminho 2658" d="M232.919,77.846c.206.174,1.27-.749,2.875-.879s2.843.575,3.006.358-.141-.423-.684-.76A4.178,4.178,0,0,0,235.686,76a3.993,3.993,0,0,0-2.268.944C232.962,77.4,232.821,77.759,232.919,77.846Z" transform="translate(-91.16 -50.099)" fill="#263238"/>
    <path id="Caminho_2659" data-name="Caminho 2659" d="M246.995,90.177a10.384,10.384,0,0,0-2.648-.26c-.412,0-.814,0-.9-.326a2.072,2.072,0,0,1,.174-1.237c.3-1.085.618-2.105.955-3.255a62.385,62.385,0,0,0,2.04-8.4,62.079,62.079,0,0,0-2.713,8.214c-.315,1.085-.618,2.17-.9,3.255a2.366,2.366,0,0,0-.087,1.628,1.085,1.085,0,0,0,.727.543,2.723,2.723,0,0,0,.705,0A11.2,11.2,0,0,0,246.995,90.177Z" transform="translate(-110.076 -50.039)" fill="#263238"/>
    <path id="Caminho_2660" data-name="Caminho 2660" d="M242.823,89.78c-.26,0-.119,1.758-1.508,3.114s-3.255,1.324-3.255,1.563.434.315,1.226.271a4.341,4.341,0,0,0,2.724-1.215,3.787,3.787,0,0,0,1.15-2.6C243.17,90.182,242.943,89.758,242.823,89.78Z" transform="translate(-101.086 -48.926)" fill="#263238"/>
    <path id="Caminho_2661" data-name="Caminho 2661" d="M232.417,72.05c.2.423,1.78.087,3.678.152s3.472.456,3.689,0c.1-.2-.2-.586-.846-.955a6.391,6.391,0,0,0-5.621-.152C232.645,71.475,232.33,71.844,232.417,72.05Z" transform="translate(-91.592 -50.565)" fill="#263238"/>
    <path id="Caminho_2662" data-name="Caminho 2662" d="M247.771,74.45c.315.336,1.389-.13,2.713-.26s2.474,0,2.7-.358c.109-.2-.108-.553-.629-.857a3.95,3.95,0,0,0-4.34.5C247.749,73.885,247.63,74.276,247.771,74.45Z" transform="translate(-121.616 -50.392)" fill="#263238"/>
    <path id="Caminho_2663" data-name="Caminho 2663" d="M218.131,64.812h.065a8.247,8.247,0,0,1,3.494,5.133v.217c.662,2.941.836,5.979,1.519,8.92s.553,5.187,3.5,5.849a3.906,3.906,0,0,0,4.1-1.66,2.669,2.669,0,0,0,.271-1.389c0-7.248,1.411-10.059.781-17.579a6.38,6.38,0,0,0-3.06-4.948c-1.671-1-3.689-2.018-5.425-1.085s-3.689,4.438-4.926,5.946" transform="translate(-68.332 -51.638)" fill="#263238"/>
    <path id="Caminho_2664" data-name="Caminho 2664" d="M215.688,78.632c.163-.087,7-2.713,7.368,4.449s-6.912,6.055-6.934,5.849S215.688,78.632,215.688,78.632Z" transform="translate(-56.719 -49.92)" fill="#ffbe9d"/>
    <path id="Caminho_2665" data-name="Caminho 2665" d="M217.358,85.918a2.069,2.069,0,0,0,.347.174,1.215,1.215,0,0,0,.933,0,3.082,3.082,0,0,0,1.291-2.854,4.014,4.014,0,0,0-.445-1.769,1.443,1.443,0,0,0-.987-.911.64.64,0,0,0-.716.38c-.087.206,0,.347-.065.358s-.163-.108-.119-.4a.759.759,0,0,1,.26-.467.89.89,0,0,1,.673-.217A1.747,1.747,0,0,1,219.9,81.3a4.34,4.34,0,0,1,.532,1.975,3.255,3.255,0,0,1-1.66,3.19,1.367,1.367,0,0,1-1.15-.13C217.38,86.092,217.337,85.94,217.358,85.918Z" transform="translate(-55.905 -49.74)" fill="#eb996e"/>
    <path id="Caminho_2666" data-name="Caminho 2666" d="M266.346,59.845c1.53-3.006-3.635-6.706-7.248-7.531s-8.127,1.291-11.545,2.745c-2.17.911-4.275,2.17-6.608,2.17a16,16,0,0,1-4.622-.77,11.752,11.752,0,0,0-4.655-.532,4.34,4.34,0,0,0-3.6,2.745,2.7,2.7,0,0,0,2.17,3.494,3.527,3.527,0,1,0-.391,6.587c-1.085-.694-2.539.705-2.3,1.964a3.7,3.7,0,0,0,2.659,2.507c3.093,1.085,6.511.358,9.527-.933s5.729-3.147,8.681-4.514,7.921-3.8,11.079-2.962c2.333.608,4.123,3.2,5.35,2.485a4.34,4.34,0,0,0,1.986-3.375,12.61,12.61,0,0,0-.477-4.058" transform="translate(-110.883 -52.13)" fill="#263238"/>
    <path id="Caminho_2667" data-name="Caminho 2667" d="M227.164,61.892c.054,0,.412.488,1.248,1.259a9.831,9.831,0,0,0,4.189,2.235,9.06,9.06,0,0,0,6.793-.846c2.333-1.28,4.232-3.635,6.456-5.892a14.91,14.91,0,0,1,7.715-4.514,8.268,8.268,0,0,1,7.053,1.8,6.207,6.207,0,0,1,2,4.481,4.579,4.579,0,0,1-.2,1.335,1.433,1.433,0,0,1-.2.434,10.778,10.778,0,0,0,.119-1.758,6.12,6.12,0,0,0-2.062-4.123,7.834,7.834,0,0,0-6.576-1.53,14.464,14.464,0,0,0-7.335,4.34c-2.17,2.17-4.134,4.612-6.641,5.957a9.766,9.766,0,0,1-11.48-1.758,7.688,7.688,0,0,1-.846-1.085C227.218,62.044,227.142,61.9,227.164,61.892Z" transform="translate(-108.713 -51.974)" fill="#455a64"/>
    <path id="Caminho_2668" data-name="Caminho 2668" d="M226.4,79.609a1.9,1.9,0,0,1-.64-.716,4.829,4.829,0,0,1-.575-2.561c0-2.322,1.8-4.959,1.8-8.16a7.248,7.248,0,0,0-1.15-4.2,5.426,5.426,0,0,0-2.865-2.073,4.709,4.709,0,0,0-2.409-.13c-.575.141-.868.3-.9.25s.239-.282.814-.51a4.46,4.46,0,0,1,2.626-.1,5.794,5.794,0,0,1,3.255,2.17,7.6,7.6,0,0,1,1.324,4.59,13.14,13.14,0,0,1-1.009,4.612,13.967,13.967,0,0,0-1,3.559A5.577,5.577,0,0,0,226.4,79.609Z" transform="translate(-65.637 -51.353)" fill="#455a64"/>
  </g>
  <g id="freepik--Lines--inject-3" transform="translate(0 106.601)">
    <path id="Caminho_2669" data-name="Caminho 2669" d="M260.256,268.88h1.617l4.731.065c4.167.065,10.308.228,18.208.608s17.557,1.085,28.723,2.387c5.567.673,11.535,1.432,17.817,2.474s12.9,2.257,19.792,3.83,14.106,3.44,21.4,5.838a142.865,142.865,0,0,1,22.19,9.147,71.621,71.621,0,0,1,10.634,6.8,33.888,33.888,0,0,1,8.681,9.527c.271.477.553.944.8,1.432l.608,1.53.315.77c.087.26.13.532.206.8l.38,1.606a16.1,16.1,0,0,1-.326,6.63c-1.085,4.395-3.961,8.182-7.292,11.372-6.793,6.391-15.463,10.851-24.458,14.562a201.6,201.6,0,0,1-28.506,9.017,375.213,375.213,0,0,1-62.209,9.158,496.1,496.1,0,0,1-62.936.25,396.869,396.869,0,0,1-58.118-7.6,245.367,245.367,0,0,1-26.346-7.107,130.829,130.829,0,0,1-23.558-10.265,65.223,65.223,0,0,1-9.929-7.064A28.669,28.669,0,0,1,105.5,325.5l-.543-1.324a7.6,7.6,0,0,1-.456-1.345l-.325-1.367c-.054-.228-.13-.456-.163-.684v-.705a13.629,13.629,0,0,1,.412-5.426,19.216,19.216,0,0,1,2.29-4.894,29.6,29.6,0,0,1,3.364-4.134,50.475,50.475,0,0,1,7.943-6.511,81.851,81.851,0,0,1,8.42-5.013,144.785,144.785,0,0,1,16.407-7.314,250.036,250.036,0,0,1,27.518-8.485c7.672-1.91,13.694-3.125,17.785-3.906,2.04-.4,3.613-.662,4.655-.868l1.6-.3s-2.17.315-6.272,1.085-10.124,1.921-17.817,3.809a244.038,244.038,0,0,0-27.572,8.4,145.076,145.076,0,0,0-16.472,7.281,83.727,83.727,0,0,0-8.464,5.024,51.091,51.091,0,0,0-8.019,6.587,30.386,30.386,0,0,0-3.407,4.178,19.53,19.53,0,0,0-2.376,5,14.106,14.106,0,0,0-.434,5.643l.054.716a3.316,3.316,0,0,0,.163.705l.336,1.4a7.6,7.6,0,0,0,.467,1.378l.543,1.356a29.221,29.221,0,0,0,7.281,9.31,65.11,65.11,0,0,0,10,7.14,131.189,131.189,0,0,0,23.612,10.33,244.534,244.534,0,0,0,26.4,7.151,396.552,396.552,0,0,0,58.194,7.6,495.082,495.082,0,0,0,63.012-.239,375.224,375.224,0,0,0,62.306-9.191,200.342,200.342,0,0,0,28.582-9.05c9.017-3.754,17.731-8.214,24.61-14.681,3.375-3.255,6.337-7.1,7.433-11.632a16.667,16.667,0,0,0,.326-6.825l-.4-1.66c-.065-.282-.119-.553-.206-.825l-.315-.792-.64-1.563c-.25-.5-.543-.987-.814-1.476a34.418,34.418,0,0,0-8.844-9.657,72.9,72.9,0,0,0-10.721-6.836,142.375,142.375,0,0,0-22.266-9.147c-7.357-2.387-14.54-4.254-21.442-5.816s-13.542-2.8-19.836-3.787-12.262-1.79-17.839-2.441c-11.177-1.248-20.845-1.91-28.744-2.29s-14.052-.477-18.219-.51h-6.348Z" transform="translate(-71.44 -140.285)" fill="#007eff"/>
    <path id="Caminho_2670" data-name="Caminho 2670" d="M359.211,193.724s.619.141,1.823.38,3.006.586,5.36,1.085c4.709.977,11.643,2.485,20.443,4.894a209.539,209.539,0,0,1,31.273,11.079c2.941,1.346,5.957,2.832,8.963,4.536a85.43,85.43,0,0,1,9,5.773,50.284,50.284,0,0,1,8.3,7.6A26.205,26.205,0,0,1,450,239.4a18.924,18.924,0,0,1-.9,12.142,31.207,31.207,0,0,1-7.509,10.515c-6.424,6.152-14.573,10.851-23.243,14.833-17.481,7.943-37.436,13.271-58.6,17.242a490.066,490.066,0,0,1-67.276,7.422,580.231,580.231,0,0,1-72.7-1.291c-24.805-2.072-48.949-5.718-71.671-11.686a214.47,214.47,0,0,1-32.64-11.2,112.6,112.6,0,0,1-14.638-7.813A56.307,56.307,0,0,1,88.4,259.08c-3.461-4.047-6.011-9.006-6.163-14.236A14.465,14.465,0,0,1,82.3,242.9a14.1,14.1,0,0,1,.206-1.921l.423-1.888a13.858,13.858,0,0,1,.618-1.823,27.6,27.6,0,0,1,3.722-6.652A51.154,51.154,0,0,1,98.288,220.45a100.82,100.82,0,0,1,12.6-7.368,178.652,178.652,0,0,1,25.8-10.124c8.507-2.658,16.8-4.774,24.762-6.511a476.808,476.808,0,0,1,76.619-9.766c9.115-.467,16.211-.488,21.018-.608l5.426-.119,1.856-.065h-1.856l-5.426.065c-4.807.087-11.936.065-21.029.51a471.714,471.714,0,0,0-76.695,9.6c-7.976,1.758-16.277,3.852-24.805,6.511a177.563,177.563,0,0,0-25.88,10.135,99.958,99.958,0,0,0-12.674,7.314,51.771,51.771,0,0,0-11.122,10.254,27.909,27.909,0,0,0-3.8,6.782,12.573,12.573,0,0,0-.629,1.866l-.445,1.931a13.246,13.246,0,0,0-.206,1.975,13.515,13.515,0,0,0-.076,1.986,20.239,20.239,0,0,0,1.888,7.769,28.856,28.856,0,0,0,4.34,6.793A56.492,56.492,0,0,0,100.5,269.974a111.676,111.676,0,0,0,14.812,7.921,215.937,215.937,0,0,0,32.716,11.253c22.787,5.979,46.931,9.636,71.769,11.708a579.168,579.168,0,0,0,72.7,1.28,491.108,491.108,0,0,0,67.276-7.455c21.214-4,41.234-9.354,58.726-17.362,8.681-4.047,16.873-8.735,23.351-14.964a31.717,31.717,0,0,0,7.6-10.656,19.369,19.369,0,0,0,.89-12.414,26.455,26.455,0,0,0-5.718-10.46,50.186,50.186,0,0,0-8.388-7.682,84.815,84.815,0,0,0-9.039-5.773c-3.017-1.7-6.044-3.19-9-4.536A208.576,208.576,0,0,0,386.8,199.844c-8.822-2.376-15.766-3.852-20.487-4.8S359.211,193.724,359.211,193.724Z" transform="translate(-81.72 -147.347)" fill="#007eff"/>
    <path id="Caminho_2671" data-name="Caminho 2671" d="M314.236,344.286l5.426.857c3.548.564,8.768,1.465,15.441,2.919a198.116,198.116,0,0,1,23.872,6.738,112.846,112.846,0,0,1,14.215,6.185,60.773,60.773,0,0,1,7.205,4.406,37.265,37.265,0,0,1,6.63,5.9,21.509,21.509,0,0,1,2.626,3.776,15.093,15.093,0,0,1,1.617,4.34c.054.391.152.781.185,1.183l.076,1.194c0,.792-.108,1.6-.174,2.4a22.855,22.855,0,0,1-.629,2.355l-.456,1.139-.228.575-.3.532a26.759,26.759,0,0,1-6.511,7.672,53.52,53.52,0,0,1-8.746,5.87,116.236,116.236,0,0,1-20.454,8.54,210.407,210.407,0,0,1-22.787,5.827,338.391,338.391,0,0,1-50.2,6,407.326,407.326,0,0,1-54.255-.944c-18.533-1.606-36.568-4.438-53.463-9.212a134.625,134.625,0,0,1-24.089-9.18,60.638,60.638,0,0,1-10.471-6.76c-.825-.619-1.53-1.378-2.29-2.062s-1.378-1.5-2.073-2.235a19.684,19.684,0,0,1-3.082-5.154A13.824,13.824,0,0,1,131.8,375.7a27.5,27.5,0,0,1,7.465-8.681c5.979-4.753,12.772-7.954,19.4-10.612A163.949,163.949,0,0,1,178.4,350.08c6.445-1.66,12.707-2.973,18.707-4.026a371.015,371.015,0,0,1,57.51-5.263l21.192-.109s-7.541-.1-21.192,0a367.507,367.507,0,0,0-57.51,5.154c-6.022,1.085-12.283,2.355-18.74,4.015a163.115,163.115,0,0,0-19.836,6.369c-6.641,2.659-13.455,5.86-19.478,10.645a27.832,27.832,0,0,0-7.6,8.8,14.106,14.106,0,0,0-.488,11.687,20.259,20.259,0,0,0,3.125,5.241c.705.749,1.346,1.563,2.105,2.268a27.732,27.732,0,0,0,2.3,2.073,60.581,60.581,0,0,0,10.536,6.814,134.95,134.95,0,0,0,24.143,9.213,289.651,289.651,0,0,0,53.517,9.223,408.149,408.149,0,0,0,54.32.944,340.222,340.222,0,0,0,50.229-6.022,212.9,212.9,0,0,0,22.787-5.859,115.253,115.253,0,0,0,20.508-8.572,54.252,54.252,0,0,0,8.778-5.914A26.834,26.834,0,0,0,389.9,389l.315-.543.228-.586.467-1.15c.293-.781.412-1.606.629-2.4a9.284,9.284,0,0,0,.174-2.452l-.076-1.215a7.6,7.6,0,0,0-.2-1.194,15.192,15.192,0,0,0-1.639-4.46,21.925,21.925,0,0,0-2.658-3.809,37.24,37.24,0,0,0-6.673-5.935,62.272,62.272,0,0,0-7.248-4.416,111.346,111.346,0,0,0-14.128-6.2,196,196,0,0,0-23.948-6.7c-6.673-1.432-11.936-2.311-15.452-2.854S314.236,344.286,314.236,344.286Z" transform="translate(-74.789 -134.178)" fill="#007eff"/>
    <path id="Caminho_2672" data-name="Caminho 2672" d="M163.99,437.738a11.243,11.243,0,0,1,.9-3.961c1.009-2.485,3.711-5.577,7.954-8.377,8.518-5.61,22.787-10.319,40.713-13.206a247.206,247.206,0,0,1,29.558-2.9,284.61,284.61,0,0,1,34.126.629c6,.467,12.131,1.161,18.349,2.17a173.612,173.612,0,0,1,18.837,3.982c3.158.846,6.315,1.834,9.43,2.973a75.848,75.848,0,0,1,9.212,4.015,37.261,37.261,0,0,1,8.344,5.784c2.463,2.3,4.471,5.425,4.525,8.9s-2.051,6.6-4.514,8.909a37.219,37.219,0,0,1-8.247,5.762,74.194,74.194,0,0,1-9.213,4.015,97.743,97.743,0,0,1-9.43,2.984,173.776,173.776,0,0,1-18.848,3.982c-6.218.987-12.348,1.682-18.349,2.17a282.529,282.529,0,0,1-34.137.629,247.248,247.248,0,0,1-29.645-2.93c-17.948-2.886-32.195-7.6-40.724-13.206-4.243-2.8-6.934-5.892-7.943-8.377a11.211,11.211,0,0,1-.9-3.95,7.306,7.306,0,0,0,.076,1.031,5.36,5.36,0,0,0,.228,1.259,7.978,7.978,0,0,0,.564,1.671c1,2.507,3.689,5.621,7.932,8.442,8.529,5.643,22.787,10.384,40.746,13.293a249.35,249.35,0,0,0,29.623,2.93,285.016,285.016,0,0,0,34.159-.608c6-.477,12.131-1.161,18.36-2.17a170.965,170.965,0,0,0,18.87-3.971c3.169-.846,6.326-1.834,9.451-2.984a77.1,77.1,0,0,0,9.245-4.026,37.859,37.859,0,0,0,8.4-5.816,16.852,16.852,0,0,0,3.19-4.069,9.766,9.766,0,0,0,0-10,16.9,16.9,0,0,0-3.255-4.058,37.862,37.862,0,0,0-8.4-5.816,77.723,77.723,0,0,0-9.234-4.026c-3.136-1.15-6.294-2.17-9.462-2.984a173.872,173.872,0,0,0-18.859-3.971c-6.228-.987-12.359-1.682-18.36-2.17a282.685,282.685,0,0,0-34.159-.608A247.165,247.165,0,0,0,213.481,412c-17.948,2.908-32.217,7.65-40.746,13.293-4.243,2.821-6.934,5.936-7.932,8.442a8.192,8.192,0,0,0-.564,1.671,5.362,5.362,0,0,0-.228,1.259C164.022,437.293,164,437.575,163.99,437.738Z" transform="translate(-66.235 -128.376)" fill="#007eff"/>
    <path id="Caminho_2673" data-name="Caminho 2673" d="M104.62,280.642a3.461,3.461,0,1,0,1.01-2.455A3.461,3.461,0,0,0,104.62,280.642Z" transform="translate(232.855 -139.579)" fill="#007eff"/>
    <ellipse id="Elipse_77" data-name="Elipse 77" cx="3.461" cy="3.461" rx="3.461" ry="3.461" transform="translate(24.195 139.945)" fill="#007eff"/>
    <path id="Caminho_2674" data-name="Caminho 2674" d="M263.1,400.442a3.472,3.472,0,1,0,3.461-3.462A3.472,3.472,0,0,0,263.1,400.442Z" transform="translate(-97.614 -129.384)" fill="#007eff"/>
    <path id="Caminho_2675" data-name="Caminho 2675" d="M169.35,318.266a1.736,1.736,0,1,0,1.736-1.736A1.736,1.736,0,0,0,169.35,318.266Z" transform="translate(101.337 -136.23)" fill="#007eff"/>
    <path id="Caminho_2676" data-name="Caminho 2676" d="M367.86,356.946a1.736,1.736,0,1,0,1.725-1.736,1.736,1.736,0,0,0-1.725,1.736Z" transform="translate(-312.577 -132.938)" fill="#007eff"/>
    <path id="Caminho_2677" data-name="Caminho 2677" d="M241.8,430.776a1.736,1.736,0,1,0,1.725-1.736,1.736,1.736,0,0,0-1.725,1.736Z" transform="translate(-49.729 -126.655)" fill="#007eff"/>
    <ellipse id="Elipse_78" data-name="Elipse 78" cx="0.868" cy="0.868" rx="0.868" ry="0.868" transform="translate(281.57)" fill="#007eff"/>
  </g>
  <g id="freepik--front-screens--inject-3" transform="translate(17.37 90.899)">
    <path id="Caminho_2678" data-name="Caminho 2678" d="M184,280.488c42.069,11.133,82.62,10.287,126.816,0L316,199.67c-45.672,8.887-91.517,7.758-131.981-1.91Z" transform="translate(-75.11 -130.636)" fill="#007eff"/>
    <g id="Grupo_1837" data-name="Grupo 1837" transform="translate(108.89 67.124)" opacity="0.8">
      <path id="Caminho_2679" data-name="Caminho 2679" d="M184,280.488c42.069,11.133,82.62,10.287,126.816,0L316,199.67c-45.672,8.887-91.517,7.758-131.981-1.91Z" transform="translate(-184 -197.76)" fill="#fff"/>
    </g>
    <path id="Caminho_2680" data-name="Caminho 2680" d="M196.429,262.65a1.085,1.085,0,0,0,.271.13l.792.336c.705.282,1.725.738,3.082,1.226a116.39,116.39,0,0,0,11.643,3.646,152.208,152.208,0,0,0,39.91,4.557,233.045,233.045,0,0,0,40-4.275c5.067-.966,9.137-1.856,11.936-2.507,1.4-.315,2.485-.586,3.255-.77l.836-.217c.185-.054.282-.087.271-.1h-.293l-.846.163-3.255.662c-2.81.586-6.9,1.421-11.936,2.322a245.561,245.561,0,0,1-39.932,4.113,157.337,157.337,0,0,1-39.812-4.34c-4.981-1.259-8.952-2.517-11.665-3.483-1.367-.445-2.4-.868-3.114-1.085l-.814-.282A.813.813,0,0,0,196.429,262.65Z" transform="translate(-81.018 -125.114)" fill="#007eff"/>
    <path id="Caminho_2681" data-name="Caminho 2681" d="M227.75,268.041a27.55,27.55,0,0,0,16.19-.542V238.744a40.669,40.669,0,0,0-16.19,0Z" transform="translate(-50.521 -127.217)" fill="#007eff"/>
    <path id="Caminho_2682" data-name="Caminho 2682" d="M250.615,267.559a1.155,1.155,0,0,0,0-.228v-.619c0-.586,0-1.389.076-2.409,0-2.116.1-5.143.174-8.93.108-7.6.271-18.306.456-30.687l-.217.26a43.763,43.763,0,0,1,16.765,0l-.228-.271v.564c-.174,16.993-.336,32.347-.445,43.306l.163-.2a38.809,38.809,0,0,1-7.064.868,26.555,26.555,0,0,1-5.328-.445,24.958,24.958,0,0,1-3.255-.857l-.814-.282a1.159,1.159,0,0,0-.3-.087l.26.119.825.358a22.97,22.97,0,0,0,3.255.966,25.467,25.467,0,0,0,5.371.532,37.066,37.066,0,0,0,7.14-.781h.152v-.217c.163-10.96.38-26.3.618-43.3v-.814h-.239a43.742,43.742,0,0,0-16.971,0l-.217.054v.217c-.1,12.435-.174,23.167-.239,30.828v11.849C250.55,267.526,250.6,267.559,250.615,267.559Z" transform="translate(-99.537 -128.438)" fill="#007eff"/>
    <path id="Caminho_2683" data-name="Caminho 2683" d="M274.78,264.621c4.34,2.344,10.037,2.659,16.2,2.3V219.415a34.637,34.637,0,0,0-16.2,0Z" transform="translate(-148.594 -128.875)" fill="#007eff"/>
    <path id="Caminho_2684" data-name="Caminho 2684" d="M204.782,265.025s0-.445.054-1.226,0-1.942.065-3.32c0-2.886.076-6.89.119-11.654l-.152.228a36.2,36.2,0,0,1,15.593-2.593h0l-.26-.282v16.2l.141-.217a30.264,30.264,0,0,1-6.25,1.78c-1.921.347-3.6.543-5,.684l-3.255.271a10.206,10.206,0,0,0-1.15.13,8.56,8.56,0,0,0,1.15,0,30.593,30.593,0,0,0,3.255-.141c1.4-.141,3.1-.26,5.035-.575a29.037,29.037,0,0,0,6.38-1.725l.141-.065V245.894h-.282a35.95,35.95,0,0,0-15.821,2.7l-.163.054v.174c0,4.829.1,8.887.13,11.817,0,1.356,0,2.441.065,3.255A6.512,6.512,0,0,0,204.782,265.025Z" transform="translate(-1.868 -126.544)" fill="#007eff"/>
    <path id="Caminho_2685" data-name="Caminho 2685" d="M206.14,224.89a16.276,16.276,0,0,0,3.168.2c1.964,0,4.677,0,7.661-.184s5.675-.456,7.6-.716a16.026,16.026,0,0,0,3.125-.564,19.892,19.892,0,0,0-3.158.174c-1.953.152-4.644.369-7.6.543s-5.675.282-7.6.347A21.1,21.1,0,0,0,206.14,224.89Z" transform="translate(-10.822 -128.436)" fill="#007eff"/>
    <path id="Caminho_2686" data-name="Caminho 2686" d="M206.35,228.169a13.952,13.952,0,0,0,2.778,0c1.714-.087,4.08-.239,6.7-.434s4.981-.412,6.684-.6a13.749,13.749,0,0,0,2.745-.412,13.955,13.955,0,0,0-2.778,0c-1.725.087-4.08.239-6.7.434s-4.97.412-6.673.6A14.18,14.18,0,0,0,206.35,228.169Z" transform="translate(-8.612 -128.177)" fill="#007eff"/>
    <path id="Caminho_2687" data-name="Caminho 2687" d="M202.462,233.573v-1.009c0-.64-.054-1.628-.109-2.8-.109-2.452-.271-5.9-.477-10.146l-.206.228a231.884,231.884,0,0,0,29.981-1.671l-.315-.26h0v.89l.054.911c0,.608.065,1.215.109,1.812.065,1.2.13,2.387.206,3.548.141,2.333.271,4.59.4,6.749l.228-.282c-8.681,1.085-16.157,1.519-21.463,1.725l-6.218.184-1.628.054h-.6a3.146,3.146,0,0,0,.543,0c.369,0,.955,0,1.682.054h6.229c5.317-.109,12.826-.5,21.518-1.53h.25v-.26q-.179-3.255-.38-6.749c-.065-1.161-.13-2.344-.206-3.548l-.1-1.812v-1.8h0l-.315-.26a256.1,256.1,0,0,1-30.025,1.834h-.217v.217c.293,4.275.532,7.769.705,10.243.087,1.15.163,2.073.217,2.745a4.827,4.827,0,0,0,.13.933Z" transform="translate(-10.649 -128.947)" fill="#007eff"/>
    <path id="Caminho_2688" data-name="Caminho 2688" d="M229.23,238.407a12.838,12.838,0,0,0,2.094-2.9,10.384,10.384,0,0,0,1.606-3.19,12.839,12.839,0,0,0-2.094,2.9,10.385,10.385,0,0,0-1.606,3.19Z" transform="translate(-41.117 -127.695)" fill="#007eff"/>
    <path id="Caminho_2689" data-name="Caminho 2689" d="M161.159,141l-13.748,83.205s-21,39.3-76.771,48.157l9-74.264S131.221,182.125,161.159,141Z" transform="translate(202.74 -135.466)" fill="#007eff"/>
    <g id="Grupo_1838" data-name="Grupo 1838" transform="translate(273.38 5.534)" opacity="0.8">
      <path id="Caminho_2690" data-name="Caminho 2690" d="M161.159,141l-13.748,83.205s-21,39.3-76.771,48.157l9-74.264S131.221,182.125,161.159,141Z" transform="translate(-70.64 -141)" fill="#fff"/>
    </g>
    <path id="Caminho_2691" data-name="Caminho 2691" d="M77.262,264.652l.347-.087,1.085-.293,3.928-1.2c1.7-.543,3.82-1.085,6.174-2.062l3.787-1.443c1.356-.51,2.778-1.085,4.221-1.736,2.9-1.324,6.12-2.691,9.4-4.536s6.771-3.83,10.33-6.1a103.422,103.422,0,0,0,20.725-17.958,61.459,61.459,0,0,0,7.476-10.428h0l6.294-40.691c.76-5.078,1.378-9.147,1.8-12l.456-3.255.109-.836a1.185,1.185,0,0,0,0-.293,1.085,1.085,0,0,0-.065.282l-.163.836-.553,3.255c-.467,2.843-1.085,6.912-1.964,11.936-1.628,10.222-3.906,24.458-6.511,40.659v-.076a62.133,62.133,0,0,1-7.4,10.308,104.17,104.17,0,0,1-20.617,17.893c-3.537,2.279-6.912,4.416-10.254,6.12s-6.456,3.255-9.343,4.579c-1.432.705-2.854,1.259-4.188,1.769l-3.755,1.476c-2.333.987-4.438,1.573-6.12,2.17l-3.9,1.3-1.009.347A1.475,1.475,0,0,0,77.262,264.652Z" transform="translate(203.313 -133.702)" fill="#007eff"/>
    <path id="Caminho_2692" data-name="Caminho 2692" d="M81.74,239.054s0,.065.184.174l.6.477,2.311,1.8,8.746,6.717.13.108.109-.152c2.951-4.069,6.587-9.1,10.71-14.822l-.326.054,8.214,5.86.271.2.119-.326c3.255-8.681,6.8-18.447,10.591-28.723l1.519-4.134h-.51l6.684,13.282.293.575.206-.608c5.827-16.776,10.764-31.034,13.976-40.29h-.293c.879,3.711,1.573,6.63,2.051,8.681.239.977.434,1.736.564,2.279l.152.586a.672.672,0,0,0,.076.2v-.206a4.351,4.351,0,0,0-.109-.586l-.488-2.3c-.445-2.051-1.085-4.981-1.91-8.681l-.119-.521-.184.51c-3.255,9.234-8.279,23.46-14.193,40.2h.5l-6.673-13.282-.293-.586-.228.608-1.519,4.134c-3.765,10.287-7.346,20.042-10.536,28.744l.391-.119-8.247-5.816-.184-.13-.141.184-10.6,14.844h.25L84.963,241.4,82.6,239.662l-.619-.434Z" transform="translate(203.739 -132.259)" fill="#007eff"/>
    <path id="Caminho_2693" data-name="Caminho 2693" d="M115.72,198.529a5.079,5.079,0,0,0,1.172-.26c.738-.206,1.812-.532,3.114-.966a102,102,0,0,0,9.972-3.928,106.423,106.423,0,0,0,9.581-4.916c1.183-.694,2.17-1.28,2.778-1.7a4.917,4.917,0,0,0,.966-.705,5.033,5.033,0,0,0-1.085.521l-2.865,1.541c-2.42,1.291-5.794,3.027-9.614,4.753s-7.346,3.1-9.918,4.069c-1.2.434-2.17.814-3.049,1.085A4.341,4.341,0,0,0,115.72,198.529Z" transform="translate(171.68 -131.632)" fill="#007eff"/>
    <path id="Caminho_2694" data-name="Caminho 2694" d="M127.07,201.22a11.23,11.23,0,0,0,2.691-.477,62.3,62.3,0,0,0,6.326-1.888,63.122,63.122,0,0,0,6.087-2.55,11.664,11.664,0,0,0,2.376-1.335,14.842,14.842,0,0,0-2.55.977c-1.552.64-3.7,1.508-6.109,2.376s-4.623,1.552-6.239,2.04A14.8,14.8,0,0,0,127.07,201.22Z" transform="translate(158.116 -130.873)" fill="#007eff"/>
    <path id="Caminho_2695" data-name="Caminho 2695" d="M121.2,229.188c0,.694.423,1.248.944,1.248s.933-.553.933-1.248-.423-1.248-.933-1.248S121.2,228.5,121.2,229.188Z" transform="translate(185.959 -128.067)" fill="#007eff"/>
    <ellipse id="Elipse_79" data-name="Elipse 79" cx="0.933" cy="1.248" rx="0.933" ry="1.248" transform="translate(327.57 73.57)" fill="#007eff"/>
    <path id="Caminho_2696" data-name="Caminho 2696" d="M83.41,179.658c0,.684.423,1.248.933,1.248s.933-.564.933-1.248-.412-1.248-.933-1.248S83.41,178.974,83.41,179.658Z" transform="translate(264.766 -132.282)" fill="#007eff"/>
    <path id="Caminho_2697" data-name="Caminho 2697" d="M330,154.64l6.89,84.529s20.15,36.145,75.577,37.523l-6.847-85.1S357.258,189.624,330,154.64Z" transform="translate(-330 -134.305)" fill="#007eff"/>
    <path id="Caminho_2698" data-name="Caminho 2698" d="M379.232,151.829c1.8-5.849,6.185-14.193,16.6-15.929l12.283,113.7s-23.124-4.612-23.742-17.286c-.054-1.085-4.677-57.608-5.838-71.617a22.907,22.907,0,0,1,.694-8.865Z" transform="translate(-378.146 -135.9)" fill="#007eff"/>
    <g id="Grupo_1839" data-name="Grupo 1839" transform="translate(0 20.335)" opacity="0.8">
      <path id="Caminho_2699" data-name="Caminho 2699" d="M330,154.64l6.89,84.529s20.15,36.145,75.577,37.523l-6.847-85.1S357.258,189.624,330,154.64Z" transform="translate(-330 -154.64)" fill="#fff"/>
    </g>
    <path id="Caminho_2700" data-name="Caminho 2700" d="M343.19,174.5a50.067,50.067,0,0,1,8.822,27.334c.054,2.81-.108,5.708.966,8.3s3.852,4.764,6.511,4.026,4.091-4.123,6.565-5.686a7.324,7.324,0,0,1,7.433.163,12.511,12.511,0,0,1,4.883,5.936c2.007,4.633,2.17,9.864,3.624,14.692s5.122,9.7,10.178,9.918c1.845.076,3.668-.477,5.512-.423,3.9.119,7.281,3.017,9.093,6.511s2.365,7.411,2.886,11.274c0,0-29.536,2.821-62.686-36.329Z" transform="translate(-341.508 -132.615)" fill="#007eff"/>
    <path id="Caminho_2701" data-name="Caminho 2701" d="M359.05,221.9c0,1.085.521,1.9,1.161,1.9s1.15-.846,1.15-1.9-.51-1.9-1.15-1.9S359.05,220.857,359.05,221.9Z" transform="translate(-310.416 -128.743)" fill="#007eff"/>
    <path id="Caminho_2702" data-name="Caminho 2702" d="M371.87,189.519c0,1.085.521,1.9,1.161,1.9s1.15-.857,1.15-1.9-.51-1.9-1.15-1.9S371.87,188.466,371.87,189.519Z" transform="translate(-337.147 -131.499)" fill="#007eff"/>
    <path id="Caminho_2703" data-name="Caminho 2703" d="M344.3,178.26a2.6,2.6,0,0,0,.185.477l.629,1.378c.586,1.226,1.4,2.962,2.431,5.154l8.811,18.349.119.25.239-.152L377.6,190.5l-.412-.13c.271.673.575,1.4.868,2.17l13.488,33,.1.228.206-.119c5.208-2.93,9.462-5.284,12.414-6.89,1.487-.8,2.637-1.421,3.429-1.823l.9-.434.315-.141a25.2,25.2,0,0,0-4.753,2.17c-2.995,1.541-7.27,3.841-12.511,6.728l.3.109-13.368-33.085c-.293-.727-.6-1.454-.868-2.17l-.13-.315-.282.184-20.856,13.282.358.1c-3.7-7.52-6.8-13.8-9-18.251l-2.593-5.067-.695-1.335A3.005,3.005,0,0,0,344.3,178.26Z" transform="translate(-341.956 -132.295)" fill="#007eff"/>
  </g>
</svg>
