<svg id="Logo" xmlns="http://www.w3.org/2000/svg" width="118.922" height="28" viewBox="0 0 118.922 28">
  <path id="Caminho_598" data-name="Caminho 598" d="M715.054,162.5a8.652,8.652,0,1,0,8.653,8.652A8.653,8.653,0,0,0,715.054,162.5Zm0,11.536a2.884,2.884,0,1,1,2.884-2.884A2.884,2.884,0,0,1,715.054,174.035Z" transform="translate(-678.539 -157.151)" fill="#2c404a"/>
  <path id="Caminho_599" data-name="Caminho 599" d="M788.809,162.5a8.561,8.561,0,0,0-2.989.532,8.649,8.649,0,0,0-5.663,8.12v14h5.663v-5.88a8.56,8.56,0,0,0,2.989.531,8.652,8.652,0,1,0,0-17.3Zm0,11.537a2.885,2.885,0,1,1,2.885-2.885A2.887,2.887,0,0,1,788.809,174.036Z" transform="translate(-678.539 -157.151)" fill="#2163ff"/>
  <path id="Caminho_600" data-name="Caminho 600" d="M684.2,165.645v2.2h5.663v5.663H684.2v5.978h-5.663V165.645a8.417,8.417,0,0,1,.485-2.831,8.487,8.487,0,0,1,8.01-5.663h5.348v5.663h-5.348A2.831,2.831,0,0,0,684.2,165.645Z" transform="translate(-678.539 -157.151)" fill="#2c404a"/>
  <path id="Caminho_601" data-name="Caminho 601" d="M705.118,173.826v5.663h-1.41a8.423,8.423,0,0,1-2.832-.485,8.511,8.511,0,0,1-5.178-5.178,8.419,8.419,0,0,1-.485-2.832V157.152h5.663v13.842a2.832,2.832,0,0,0,2.832,2.832Z" transform="translate(-678.539 -157.151)" fill="#2c404a"/>
  <path id="Caminho_602" data-name="Caminho 602" d="M756.09,157.27a8.24,8.24,0,0,0-1.416.365,8.515,8.515,0,0,0-5.178,5.179c-.07.2-.132.393-.186.6a8.435,8.435,0,0,0-.3,2.234v5.663a2.831,2.831,0,0,1-5.663,0v-8.494h-5.663v8.494a2.832,2.832,0,0,1-5.663,0v-8.494H726.36v8.494a8.417,8.417,0,0,0,.484,2.831,8.5,8.5,0,0,0,10.841,5.179,8.368,8.368,0,0,0,2.832-1.683,8.495,8.495,0,0,0,8.494,1.683,8.519,8.519,0,0,0,5.179-5.179c.069-.2.132-.393.185-.6a8.435,8.435,0,0,0,.3-2.234v-5.663a2.826,2.826,0,0,1,1.416-2.449Z" transform="translate(-678.539 -157.151)" fill="#2c404a"/>
  <path id="Caminho_603" data-name="Caminho 603" d="M771.663,157.151v14.157a2.832,2.832,0,0,1-5.663,0v-5.663a8.435,8.435,0,0,0-.3-2.234c-.053-.2-.116-.4-.186-.6a8.515,8.515,0,0,0-5.178-5.179,8.239,8.239,0,0,0-1.416-.365V163.2a2.826,2.826,0,0,1,1.416,2.449v5.663a8.435,8.435,0,0,0,.3,2.234c.053.2.116.4.186.6a8.495,8.495,0,0,0,16.019,0,8.417,8.417,0,0,0,.485-2.831V157.151Z" transform="translate(-678.539 -157.151)" fill="#2163ff"/>
</svg>
