<svg _ngcontent-serverApp-c36="" xmlns="http://www.w3.org/2000/svg" xmlns:xlink="http://www.w3.org/1999/xlink" width="551" height="428" viewBox="0 0 551 428"><defs _ngcontent-serverApp-c36=""><filter _ngcontent-serverApp-c36="" id="Retângulo_2483" x="0" y="0" width="551" height="428" filterUnits="userSpaceOnUse"><feOffset _ngcontent-serverApp-c36="" dy="3" input="SourceAlpha"></feOffset><feGaussianBlur _ngcontent-serverApp-c36="" stdDeviation="3" result="blur"></feGaussianBlur><feFlood _ngcontent-serverApp-c36="" flood-color="#007eff" flood-opacity="0.161"></feFlood><feComposite _ngcontent-serverApp-c36="" operator="in" in2="blur"></feComposite><feComposite _ngcontent-serverApp-c36="" in="SourceGraphic"></feComposite></filter><filter _ngcontent-serverApp-c36="" id="Retângulo_2372" x="287.5" y="75.5" width="245" height="164" filterUnits="userSpaceOnUse"><feOffset _ngcontent-serverApp-c36="" dy="3" input="SourceAlpha"></feOffset><feGaussianBlur _ngcontent-serverApp-c36="" stdDeviation="3.5" result="blur-2"></feGaussianBlur><feFlood _ngcontent-serverApp-c36="" flood-color="#007eff" flood-opacity="0.161"></feFlood><feComposite _ngcontent-serverApp-c36="" operator="in" in2="blur-2"></feComposite><feComposite _ngcontent-serverApp-c36="" in="SourceGraphic"></feComposite></filter><filter _ngcontent-serverApp-c36="" id="Retângulo_2372-2" x="18.5" y="75.5" width="180" height="82" filterUnits="userSpaceOnUse"><feOffset _ngcontent-serverApp-c36="" dy="3" input="SourceAlpha"></feOffset><feGaussianBlur _ngcontent-serverApp-c36="" stdDeviation="3.5" result="blur-3"></feGaussianBlur><feFlood _ngcontent-serverApp-c36="" flood-color="#007eff" flood-opacity="0.161"></feFlood><feComposite _ngcontent-serverApp-c36="" operator="in" in2="blur-3"></feComposite><feComposite _ngcontent-serverApp-c36="" in="SourceGraphic"></feComposite></filter><filter _ngcontent-serverApp-c36="" id="Retângulo_2372-3" x="18.5" y="157.5" width="180" height="82" filterUnits="userSpaceOnUse"><feOffset _ngcontent-serverApp-c36="" dy="3" input="SourceAlpha"></feOffset><feGaussianBlur _ngcontent-serverApp-c36="" stdDeviation="3.5" result="blur-4"></feGaussianBlur><feFlood _ngcontent-serverApp-c36="" flood-color="#007eff" flood-opacity="0.161"></feFlood><feComposite _ngcontent-serverApp-c36="" operator="in" in2="blur-4"></feComposite><feComposite _ngcontent-serverApp-c36="" in="SourceGraphic"></feComposite></filter><filter _ngcontent-serverApp-c36="" id="Retângulo_2372-4" x="18.5" y="299.5" width="514" height="72" filterUnits="userSpaceOnUse"><feOffset _ngcontent-serverApp-c36="" dy="3" input="SourceAlpha"></feOffset><feGaussianBlur _ngcontent-serverApp-c36="" stdDeviation="3.5" result="blur-5"></feGaussianBlur><feFlood _ngcontent-serverApp-c36="" flood-color="#007eff" flood-opacity="0.161"></feFlood><feComposite _ngcontent-serverApp-c36="" operator="in" in2="blur-5"></feComposite><feComposite _ngcontent-serverApp-c36="" in="SourceGraphic"></feComposite></filter><filter _ngcontent-serverApp-c36="" id="Retângulo_2497" x="385.5" y="309.5" width="143" height="52" filterUnits="userSpaceOnUse"><feOffset _ngcontent-serverApp-c36="" dy="3" input="SourceAlpha"></feOffset><feGaussianBlur _ngcontent-serverApp-c36="" stdDeviation="3.5" result="blur-6"></feGaussianBlur><feFlood _ngcontent-serverApp-c36="" flood-color="#0eb7c1" flood-opacity="0.161"></feFlood><feComposite _ngcontent-serverApp-c36="" operator="in" in2="blur-6"></feComposite><feComposite _ngcontent-serverApp-c36="" in="SourceGraphic"></feComposite></filter></defs><g _ngcontent-serverApp-c36="" id="Grupo_10223" data-name="Grupo 10223" transform="translate(-3749 -3825)"><g _ngcontent-serverApp-c36="" transform="matrix(1, 0, 0, 1, 3749, 3825)" filter="url(#Retângulo_2483)"><g _ngcontent-serverApp-c36="" id="Retângulo_2483-2" data-name="Retângulo 2483" transform="translate(9 6)" fill="#fff" stroke="#007eff" stroke-width="1"><rect _ngcontent-serverApp-c36="" width="533" height="410" rx="7" stroke="none"></rect><rect _ngcontent-serverApp-c36="" x="0.5" y="0.5" width="532" height="409" rx="6.5" fill="none"></rect></g></g><text _ngcontent-serverApp-c36="" id="Novo_compartilhamento" data-name="Novo compartilhamento" transform="translate(3778 3869)" fill="#5f6e76" font-size="20" font-family="SourceSansPro" font-weight="700"><tspan _ngcontent-serverApp-c36="" x="0" y="0">Novo compartilhamento</tspan></text><text _ngcontent-serverApp-c36="" id="Projeto" transform="translate(3778 3894)" fill="#5f6e76" font-size="15" font-family="SourceSansPro" font-weight="700"><tspan _ngcontent-serverApp-c36="" x="0" y="0">Projeto</tspan></text><text _ngcontent-serverApp-c36="" id="Destinatários" transform="translate(3778 4116)" fill="#5f6e76" font-size="15" font-family="SourceSansPro" font-weight="700"><tspan _ngcontent-serverApp-c36="" x="0" y="0">Destinatários</tspan></text><g _ngcontent-serverApp-c36="" id="Grupo_8914" data-name="Grupo 8914" transform="translate(417 1284)"><g _ngcontent-serverApp-c36="" id="Grupo_8898" data-name="Grupo 8898" transform="translate(3629 2632)"><g _ngcontent-serverApp-c36="" transform="matrix(1, 0, 0, 1, -297, -91)" filter="url(#Retângulo_2372)"><rect _ngcontent-serverApp-c36="" id="Retângulo_2372-5" data-name="Retângulo 2372" width="224" height="143" rx="3" transform="translate(298 83)" fill="#c2e0ff"></rect></g><rect _ngcontent-serverApp-c36="" id="Retângulo_2378" data-name="Retângulo 2378" width="60" height="60" rx="3" transform="translate(11 -1)" fill="#007eff"></rect><rect _ngcontent-serverApp-c36="" id="Retângulo_2502" data-name="Retângulo 2502" width="60" height="60" rx="3" transform="translate(11 69)" fill="#007eff"></rect><rect _ngcontent-serverApp-c36="" id="Retângulo_2499" data-name="Retângulo 2499" width="60" height="60" rx="3" transform="translate(83 -1)" fill="#007eff"></rect><rect _ngcontent-serverApp-c36="" id="Retângulo_2501" data-name="Retângulo 2501" width="60" height="60" rx="3" transform="translate(83 69)" fill="#007eff"></rect><rect _ngcontent-serverApp-c36="" id="Retângulo_2500" data-name="Retângulo 2500" width="60" height="60" rx="3" transform="translate(155 -1)" fill="#007eff"></rect><rect _ngcontent-serverApp-c36="" id="Retângulo_2503" data-name="Retângulo 2503" width="60" height="60" rx="3" transform="translate(155 69)" fill="#007eff"></rect><path _ngcontent-serverApp-c36="" id="ic_get_app_24px" d="M15.146,7.348h-2.9V3H7.9V7.348H5l5.073,5.073ZM5,13.871V15.32H15.146V13.871Z" transform="translate(174.927 19.84)" fill="#fff"></path><path _ngcontent-serverApp-c36="" id="ic_get_app_24px-2" data-name="ic_get_app_24px" d="M15.146,7.348h-2.9V3H7.9V7.348H5l5.073,5.073ZM5,13.871V15.32H15.146V13.871Z" transform="translate(174.927 89.84)" fill="#fff"></path><path _ngcontent-serverApp-c36="" id="ic_get_app_24px-3" data-name="ic_get_app_24px" d="M15.146,7.348h-2.9V3H7.9V7.348H5l5.073,5.073ZM5,13.871V15.32H15.146V13.871Z" transform="translate(102.927 19.84)" fill="#fff"></path><path _ngcontent-serverApp-c36="" id="ic_get_app_24px-4" data-name="ic_get_app_24px" d="M15.146,7.348h-2.9V3H7.9V7.348H5l5.073,5.073ZM5,13.871V15.32H15.146V13.871Z" transform="translate(102.927 89.84)" fill="#fff"></path><path _ngcontent-serverApp-c36="" id="ic_get_app_24px-5" data-name="ic_get_app_24px" d="M15.146,7.348h-2.9V3H7.9V7.348H5l5.073,5.073ZM5,13.871V15.32H15.146V13.871Z" transform="translate(30.927 19.84)" fill="#fff"></path><path _ngcontent-serverApp-c36="" id="ic_get_app_24px-6" data-name="ic_get_app_24px" d="M15.146,7.348h-2.9V3H7.9V7.348H5l5.073,5.073ZM5,13.871V15.32H15.146V13.871Z" transform="translate(30.927 89.84)" fill="#fff"></path></g></g><text _ngcontent-serverApp-c36="" id="Anexos" transform="translate(4046 3894)" fill="#5f6e76" font-size="15" font-family="SourceSansPro" font-weight="700"><tspan _ngcontent-serverApp-c36="" x="0" y="0">Anexos</tspan></text><g _ngcontent-serverApp-c36="" id="Grupo_8939" data-name="Grupo 8939" transform="translate(3777.539 3908)"><g _ngcontent-serverApp-c36="" transform="matrix(1, 0, 0, 1, -28.54, -83)" filter="url(#Retângulo_2372-2)"><rect _ngcontent-serverApp-c36="" id="Retângulo_2372-6" data-name="Retângulo 2372" width="159" height="61" rx="3" transform="translate(29 83)" fill="#b8ddfb"></rect></g><rect _ngcontent-serverApp-c36="" id="Retângulo_2485" data-name="Retângulo 2485" width="5" height="61" transform="translate(0.461)" fill="#007eff"></rect><text _ngcontent-serverApp-c36="" id="Posts_semanais" data-name="Posts semanais" transform="translate(13.461 22)" fill="#007eff" font-size="12" font-family="SourceSansPro" font-weight="700"><tspan _ngcontent-serverApp-c36="" x="0" y="0">Posts semanais</tspan></text><g _ngcontent-serverApp-c36="" id="Grupo_8940" data-name="Grupo 8940" transform="translate(-3680.539 -9835)"><path _ngcontent-serverApp-c36="" id="ic_attach_file_24px" d="M14.773,5.091V14.5a3.273,3.273,0,1,1-6.545,0V4.273a2.045,2.045,0,0,1,4.091,0v8.591a.818.818,0,0,1-1.636,0V5.091H9.455v7.773a2.045,2.045,0,0,0,4.091,0V4.273A3.273,3.273,0,0,0,7,4.273V14.5a4.5,4.5,0,1,0,9,0V5.091Z" transform="translate(3719 9872)" fill="#007eff"></path><g _ngcontent-serverApp-c36="" id="Grupo_501" data-name="Grupo 501"><path _ngcontent-serverApp-c36="" id="ic_textsms_24px" d="M16.4,2H3.6A1.6,1.6,0,0,0,2.008,3.6L2,18l3.2-3.2H16.4A1.6,1.6,0,0,0,18,13.2V3.6A1.6,1.6,0,0,0,16.4,2ZM7.6,9.2H6V7.6H7.6Zm3.2,0H9.2V7.6h1.6Zm3.2,0H12.4V7.6H14Z" transform="translate(3692 9872)" fill="#007eff"></path></g><g _ngcontent-serverApp-c36="" id="Grupo_502" data-name="Grupo 502" transform="translate(-58)"><text _ngcontent-serverApp-c36="" id="_5_8" data-name="5/8" transform="translate(3831 9886)" fill="#007eff" font-size="12" font-family="SourceSansPro"><tspan _ngcontent-serverApp-c36="" x="0" y="0">5/8</tspan></text><path _ngcontent-serverApp-c36="" id="ic_list_24px" d="M3,13H5V11H3Zm0,4H5V15H3ZM3,9H5V7H3Zm4,4H21V11H7Zm0,4H21V15H7ZM7,7V9H21V7Z" transform="translate(3806 9870)" fill="#007eff"></path></g></g></g><g _ngcontent-serverApp-c36="" id="Grupo_8941" data-name="Grupo 8941" transform="translate(3777.539 3990)"><g _ngcontent-serverApp-c36="" transform="matrix(1, 0, 0, 1, -28.54, -165)" filter="url(#Retângulo_2372-3)"><rect _ngcontent-serverApp-c36="" id="Retângulo_2372-7" data-name="Retângulo 2372" width="159" height="61" rx="3" transform="translate(29 165)" fill="#b8ddfb"></rect></g><rect _ngcontent-serverApp-c36="" id="Retângulo_2485-2" data-name="Retângulo 2485" width="5" height="61" transform="translate(0.461)" fill="#007eff"></rect><text _ngcontent-serverApp-c36="" id="Redação_publicitária" data-name="Redação publicitária" transform="translate(13.461 22)" fill="#007eff" font-size="12" font-family="SourceSansPro" font-weight="700"><tspan _ngcontent-serverApp-c36="" x="0" y="0">Redação publicitária</tspan></text><g _ngcontent-serverApp-c36="" id="Grupo_8940-2" data-name="Grupo 8940" transform="translate(-3680.539 -9835)"><path _ngcontent-serverApp-c36="" id="ic_attach_file_24px-2" data-name="ic_attach_file_24px" d="M14.773,5.091V14.5a3.273,3.273,0,1,1-6.545,0V4.273a2.045,2.045,0,0,1,4.091,0v8.591a.818.818,0,0,1-1.636,0V5.091H9.455v7.773a2.045,2.045,0,0,0,4.091,0V4.273A3.273,3.273,0,0,0,7,4.273V14.5a4.5,4.5,0,1,0,9,0V5.091Z" transform="translate(3719 9872)" fill="#007eff"></path><g _ngcontent-serverApp-c36="" id="Grupo_501-2" data-name="Grupo 501"><path _ngcontent-serverApp-c36="" id="ic_textsms_24px-2" data-name="ic_textsms_24px" d="M16.4,2H3.6A1.6,1.6,0,0,0,2.008,3.6L2,18l3.2-3.2H16.4A1.6,1.6,0,0,0,18,13.2V3.6A1.6,1.6,0,0,0,16.4,2ZM7.6,9.2H6V7.6H7.6Zm3.2,0H9.2V7.6h1.6Zm3.2,0H12.4V7.6H14Z" transform="translate(3692 9872)" fill="#007eff"></path></g><g _ngcontent-serverApp-c36="" id="Grupo_502-2" data-name="Grupo 502" transform="translate(-58)"><text _ngcontent-serverApp-c36="" id="_2_7" data-name="2/7" transform="translate(3831 9886)" fill="#007eff" font-size="12" font-family="SourceSansPro"><tspan _ngcontent-serverApp-c36="" x="0" y="0">2/7</tspan></text><path _ngcontent-serverApp-c36="" id="ic_list_24px-2" data-name="ic_list_24px" d="M3,13H5V11H3Zm0,4H5V15H3ZM3,9H5V7H3Zm4,4H21V11H7Zm0,4H21V15H7ZM7,7V9H21V7Z" transform="translate(3806 9870)" fill="#007eff"></path></g></g></g><g _ngcontent-serverApp-c36="" id="Grupo_8942" data-name="Grupo 8942" transform="translate(3777.539 4063)"><g _ngcontent-serverApp-c36="" id="Grupo_8943" data-name="Grupo 8943" transform="translate(-4307.539 -3733)"><g _ngcontent-serverApp-c36="" transform="matrix(1, 0, 0, 1, 4279, 3495)" filter="url(#Retângulo_2372-4)"><rect _ngcontent-serverApp-c36="" id="Retângulo_2372-8" data-name="Retângulo 2372" width="493" height="51" rx="3" transform="translate(29 307)" fill="#b8ddfb"></rect></g><g _ngcontent-serverApp-c36="" id="Grupo_8932" data-name="Grupo 8932" transform="translate(-6)"><g _ngcontent-serverApp-c36="" transform="matrix(1, 0, 0, 1, 4285, 3495)" filter="url(#Retângulo_2497)"><rect _ngcontent-serverApp-c36="" id="Retângulo_2497-2" data-name="Retângulo 2497" width="122" height="31" rx="15.5" transform="translate(396 317)" fill="#007eff"></rect></g><text _ngcontent-serverApp-c36="" id="Compartilhar" transform="translate(4707 3832)" fill="#fff" font-size="12" font-family="SourceSansPro" font-weight="700"><tspan _ngcontent-serverApp-c36="" x="0" y="0">Compartilhar</tspan></text></g></g><text _ngcontent-serverApp-c36="" id="ana_flowup.me" data-name="ana@flowup.me" transform="translate(19.461 98)" fill="#007eff" font-size="12" font-family="SourceSansPro" font-weight="600"><tspan _ngcontent-serverApp-c36="" x="0" y="0">ana@flowup.me</tspan></text><text _ngcontent-serverApp-c36="" id="marcio_flowup.me" data-name="marcio@flowup.me" transform="translate(117.461 98)" fill="#007eff" font-size="12" font-family="SourceSansPro" font-weight="600"><tspan _ngcontent-serverApp-c36="" x="0" y="0">marcio@flowup.me</tspan></text><text _ngcontent-serverApp-c36="" id="antonio_flowup.me" data-name="antonio@flowup.me" transform="translate(232.461 98)" fill="#007eff" font-size="12" font-family="SourceSansPro" font-weight="600"><tspan _ngcontent-serverApp-c36="" x="0" y="0">antonio@flowup.me</tspan></text><line _ngcontent-serverApp-c36="" id="Linha_50" data-name="Linha 50" y2="14" transform="translate(110.961 87.5)" fill="none" stroke="#007eff" stroke-linecap="round" stroke-width="1"></line><line _ngcontent-serverApp-c36="" id="Linha_51" data-name="Linha 51" y2="14" transform="translate(225.961 87.5)" fill="none" stroke="#007eff" stroke-linecap="round" stroke-width="1"></line></g><rect _ngcontent-serverApp-c36="" id="Retângulo_2498" data-name="Retângulo 2498" width="14" height="14" rx="1" transform="translate(3778 4195)" fill="#007eff"></rect><text _ngcontent-serverApp-c36="" id="Gerar_link" data-name="Gerar link" transform="translate(3797 4206)" fill="#007eff" font-size="12" font-family="SourceSansPro" font-weight="600"><tspan _ngcontent-serverApp-c36="" x="0" y="0">Gerar link</tspan></text><path _ngcontent-serverApp-c36="" id="ic_attach_file_24px-3" data-name="ic_attach_file_24px" d="M14.773,5.091V14.5a3.273,3.273,0,1,1-6.545,0V4.273a2.045,2.045,0,0,1,4.091,0v8.591a.818.818,0,0,1-1.636,0V5.091H9.455v7.773a2.045,2.045,0,0,0,4.091,0V4.273A3.273,3.273,0,0,0,7,4.273V14.5a4.5,4.5,0,1,0,9,0V5.091Z" transform="translate(4255 3879)" fill="#007eff"></path></g></svg>				  
				  
