<svg _ngcontent-serverApp-c36="" xmlns="http://www.w3.org/2000/svg" xmlns:xlink="http://www.w3.org/1999/xlink" width="551" height="428" viewBox="0 0 551 428"><defs _ngcontent-serverApp-c36=""><filter _ngcontent-serverApp-c36="" id="Caminho_3977" x="0" y="0" width="551" height="428" filterUnits="userSpaceOnUse"><feOffset _ngcontent-serverApp-c36="" dy="3" input="SourceAlpha"></feOffset><feGaussianBlur _ngcontent-serverApp-c36="" stdDeviation="3" result="blur"></feGaussianBlur><feFlood _ngcontent-serverApp-c36="" flood-color="#fc9b8e" flood-opacity="0.161"></feFlood><feComposite _ngcontent-serverApp-c36="" operator="in" in2="blur"></feComposite><feComposite _ngcontent-serverApp-c36="" in="SourceGraphic"></feComposite></filter><filter _ngcontent-serverApp-c36="" id="Retângulo_2372" x="18.5" y="310.5" width="180" height="94" filterUnits="userSpaceOnUse"><feOffset _ngcontent-serverApp-c36="" dy="3" input="SourceAlpha"></feOffset><feGaussianBlur _ngcontent-serverApp-c36="" stdDeviation="3.5" result="blur-2"></feGaussianBlur><feFlood _ngcontent-serverApp-c36="" flood-color="#fc9b8e" flood-opacity="0.161"></feFlood><feComposite _ngcontent-serverApp-c36="" operator="in" in2="blur-2"></feComposite><feComposite _ngcontent-serverApp-c36="" in="SourceGraphic"></feComposite></filter><filter _ngcontent-serverApp-c36="" id="Retângulo_2372-2" x="18.5" y="168.5" width="180" height="133" filterUnits="userSpaceOnUse"><feOffset _ngcontent-serverApp-c36="" dy="3" input="SourceAlpha"></feOffset><feGaussianBlur _ngcontent-serverApp-c36="" stdDeviation="3.5" result="blur-3"></feGaussianBlur><feFlood _ngcontent-serverApp-c36="" flood-color="#fc9b8e" flood-opacity="0.161"></feFlood><feComposite _ngcontent-serverApp-c36="" operator="in" in2="blur-3"></feComposite><feComposite _ngcontent-serverApp-c36="" in="SourceGraphic"></feComposite></filter><filter _ngcontent-serverApp-c36="" id="Caminho_3978" x="18.5" y="46.5" width="180" height="133" filterUnits="userSpaceOnUse"><feOffset _ngcontent-serverApp-c36="" dy="3" input="SourceAlpha"></feOffset><feGaussianBlur _ngcontent-serverApp-c36="" stdDeviation="3.5" result="blur-4"></feGaussianBlur><feFlood _ngcontent-serverApp-c36="" flood-color="#fc9b8e" flood-opacity="0.161"></feFlood><feComposite _ngcontent-serverApp-c36="" operator="in" in2="blur-4"></feComposite><feComposite _ngcontent-serverApp-c36="" in="SourceGraphic"></feComposite></filter><filter _ngcontent-serverApp-c36="" id="Retângulo_2492" x="185.5" y="168.5" width="180" height="133" filterUnits="userSpaceOnUse"><feOffset _ngcontent-serverApp-c36="" dy="3" input="SourceAlpha"></feOffset><feGaussianBlur _ngcontent-serverApp-c36="" stdDeviation="3.5" result="blur-5"></feGaussianBlur><feFlood _ngcontent-serverApp-c36="" flood-color="#fc9b8e" flood-opacity="0.161"></feFlood><feComposite _ngcontent-serverApp-c36="" operator="in" in2="blur-5"></feComposite><feComposite _ngcontent-serverApp-c36="" in="SourceGraphic"></feComposite></filter><filter _ngcontent-serverApp-c36="" id="Retângulo_2495" x="185.5" y="46.5" width="180" height="133" filterUnits="userSpaceOnUse"><feOffset _ngcontent-serverApp-c36="" dy="3" input="SourceAlpha"></feOffset><feGaussianBlur _ngcontent-serverApp-c36="" stdDeviation="3.5" result="blur-6"></feGaussianBlur><feFlood _ngcontent-serverApp-c36="" flood-color="#fc9b8e" flood-opacity="0.161"></feFlood><feComposite _ngcontent-serverApp-c36="" operator="in" in2="blur-6"></feComposite><feComposite _ngcontent-serverApp-c36="" in="SourceGraphic"></feComposite></filter><filter _ngcontent-serverApp-c36="" id="Retângulo_2493" x="352.5" y="168.5" width="180" height="133" filterUnits="userSpaceOnUse"><feOffset _ngcontent-serverApp-c36="" dy="3" input="SourceAlpha"></feOffset><feGaussianBlur _ngcontent-serverApp-c36="" stdDeviation="3.5" result="blur-7"></feGaussianBlur><feFlood _ngcontent-serverApp-c36="" flood-color="#fc9b8e" flood-opacity="0.161"></feFlood><feComposite _ngcontent-serverApp-c36="" operator="in" in2="blur-7"></feComposite><feComposite _ngcontent-serverApp-c36="" in="SourceGraphic"></feComposite></filter><filter _ngcontent-serverApp-c36="" id="Retângulo_2496" x="352.5" y="46.5" width="180" height="133" filterUnits="userSpaceOnUse"><feOffset _ngcontent-serverApp-c36="" dy="3" input="SourceAlpha"></feOffset><feGaussianBlur _ngcontent-serverApp-c36="" stdDeviation="3.5" result="blur-8"></feGaussianBlur><feFlood _ngcontent-serverApp-c36="" flood-color="#fc9b8e" flood-opacity="0.161"></feFlood><feComposite _ngcontent-serverApp-c36="" operator="in" in2="blur-8"></feComposite><feComposite _ngcontent-serverApp-c36="" in="SourceGraphic"></feComposite></filter><filter _ngcontent-serverApp-c36="" id="Retângulo_2372-3" x="185.5" y="310.5" width="180" height="94" filterUnits="userSpaceOnUse"><feOffset _ngcontent-serverApp-c36="" dy="3" input="SourceAlpha"></feOffset><feGaussianBlur _ngcontent-serverApp-c36="" stdDeviation="3.5" result="blur-9"></feGaussianBlur><feFlood _ngcontent-serverApp-c36="" flood-color="#fc9b8e" flood-opacity="0.161"></feFlood><feComposite _ngcontent-serverApp-c36="" operator="in" in2="blur-9"></feComposite><feComposite _ngcontent-serverApp-c36="" in="SourceGraphic"></feComposite></filter><filter _ngcontent-serverApp-c36="" id="Retângulo_2372-4" x="352.5" y="310.5" width="180" height="94" filterUnits="userSpaceOnUse"><feOffset _ngcontent-serverApp-c36="" dy="3" input="SourceAlpha"></feOffset><feGaussianBlur _ngcontent-serverApp-c36="" stdDeviation="3.5" result="blur-10"></feGaussianBlur><feFlood _ngcontent-serverApp-c36="" flood-color="#fc9b8e" flood-opacity="0.161"></feFlood><feComposite _ngcontent-serverApp-c36="" operator="in" in2="blur-10"></feComposite><feComposite _ngcontent-serverApp-c36="" in="SourceGraphic"></feComposite></filter></defs><g _ngcontent-serverApp-c36="" id="Grupo_10221" data-name="Grupo 10221" transform="translate(-4279 -3482)"><g _ngcontent-serverApp-c36="" transform="matrix(1, 0, 0, 1, 4279, 3482)" filter="url(#Caminho_3977)"><g _ngcontent-serverApp-c36="" id="Caminho_3977-2" data-name="Caminho 3977" transform="translate(9 6)" fill="#fff"><path _ngcontent-serverApp-c36="" d="M 526 409.5 L 7 409.5 C 3.415866613388062 409.5 0.5 406.5841369628906 0.5 403 L 0.5 7 C 0.5 3.415866613388062 3.415866613388062 0.5 7 0.5 L 526 0.5 C 529.5841064453125 0.5 532.5 3.415866613388062 532.5 7 L 532.5 403 C 532.5 406.5841369628906 529.5841064453125 409.5 526 409.5 Z" stroke="none"></path><path _ngcontent-serverApp-c36="" d="M 7 1 C 3.69158935546875 1 1 3.69158935546875 1 7 L 1 403 C 1 406.3084106445312 3.69158935546875 409 7 409 L 526 409 C 529.3084106445312 409 532 406.3084106445312 532 403 L 532 7 C 532 3.69158935546875 529.3084106445312 1 526 1 L 7 1 M 7 0 L 526 0 C 529.8659057617188 0 533 3.134002685546875 533 7 L 533 403 C 533 406.8659973144531 529.8659057617188 410 526 410 L 7 410 C 3.13397216796875 410 0 406.8659973144531 0 403 L 0 7 C 0 3.134002685546875 3.13397216796875 0 7 0 Z" stroke="none" fill="#fc9b8e"></path></g></g><g _ngcontent-serverApp-c36="" id="Grupo_8899" data-name="Grupo 8899" transform="translate(4307.539 3800)"><g _ngcontent-serverApp-c36="" transform="matrix(1, 0, 0, 1, -28.54, -318)" filter="url(#Retângulo_2372)"><rect _ngcontent-serverApp-c36="" id="Retângulo_2372-5" data-name="Retângulo 2372" width="159" height="73" rx="3" transform="translate(29 318)" fill="#ffe4e1"></rect></g><rect _ngcontent-serverApp-c36="" id="Retângulo_2378" data-name="Retângulo 2378" width="103" height="10" rx="3" transform="translate(13.461 35)" fill="#fc9b8e"></rect><rect _ngcontent-serverApp-c36="" id="Retângulo_2484" data-name="Retângulo 2484" width="138" height="10" rx="3" transform="translate(13.461 13)" fill="#fc9b8e"></rect><rect _ngcontent-serverApp-c36="" id="Retângulo_2485" data-name="Retângulo 2485" width="5" height="73" transform="translate(0.461)" fill="#fc9b8e"></rect><g _ngcontent-serverApp-c36="" id="person_black_24dp" transform="translate(13 49)"><path _ngcontent-serverApp-c36="" id="Caminho_3975" data-name="Caminho 3975" d="M0,0H24V24H0Z" fill="none"></path><path _ngcontent-serverApp-c36="" id="Caminho_3976" data-name="Caminho 3976" d="M12,12A4,4,0,1,0,8,8,4,4,0,0,0,12,12Zm0,2c-2.67,0-8,1.34-8,4v1a1,1,0,0,0,1,1H19a1,1,0,0,0,1-1V18C20,15.34,14.67,14,12,14Z" fill="#fc9b8e"></path></g><circle _ngcontent-serverApp-c36="" id="Elipse_250" data-name="Elipse 250" cx="5.5" cy="5.5" r="5.5" transform="translate(140.461 56)" fill="#fc9b8e"></circle></g><g _ngcontent-serverApp-c36="" transform="matrix(1, 0, 0, 1, 4279, 3482)" filter="url(#Retângulo_2372-2)"><rect _ngcontent-serverApp-c36="" id="Retângulo_2372-6" data-name="Retângulo 2372" width="159" height="112" rx="3" transform="translate(29 176)" fill="#fc9b8e"></rect></g><g _ngcontent-serverApp-c36="" transform="matrix(1, 0, 0, 1, 4279, 3482)" filter="url(#Caminho_3978)"><path _ngcontent-serverApp-c36="" id="Caminho_3978-2" data-name="Caminho 3978" d="M3,0H156a3,3,0,0,1,3,3V109a3,3,0,0,1-3,3H3a3,3,0,0,1-3-3V3A3,3,0,0,1,3,0Z" transform="translate(29 54)" fill="#fc9b8e"></path></g><g _ngcontent-serverApp-c36="" transform="matrix(1, 0, 0, 1, 4279, 3482)" filter="url(#Retângulo_2492)"><rect _ngcontent-serverApp-c36="" id="Retângulo_2492-2" data-name="Retângulo 2492" width="159" height="112" rx="3" transform="translate(196 176)" fill="#fc9b8e"></rect></g><g _ngcontent-serverApp-c36="" transform="matrix(1, 0, 0, 1, 4279, 3482)" filter="url(#Retângulo_2495)"><rect _ngcontent-serverApp-c36="" id="Retângulo_2495-2" data-name="Retângulo 2495" width="159" height="112" rx="3" transform="translate(196 54)" fill="#fc9b8e"></rect></g><g _ngcontent-serverApp-c36="" transform="matrix(1, 0, 0, 1, 4279, 3482)" filter="url(#Retângulo_2493)"><rect _ngcontent-serverApp-c36="" id="Retângulo_2493-2" data-name="Retângulo 2493" width="159" height="112" rx="3" transform="translate(363 176)" fill="#fc9b8e"></rect></g><g _ngcontent-serverApp-c36="" transform="matrix(1, 0, 0, 1, 4279, 3482)" filter="url(#Retângulo_2496)"><rect _ngcontent-serverApp-c36="" id="Retângulo_2496-2" data-name="Retângulo 2496" width="159" height="112" rx="3" transform="translate(363 54)" fill="#fc9b8e"></rect></g><g _ngcontent-serverApp-c36="" id="Grupo_8911" data-name="Grupo 8911" transform="translate(4474.539 3800)"><g _ngcontent-serverApp-c36="" transform="matrix(1, 0, 0, 1, -195.54, -318)" filter="url(#Retângulo_2372-3)"><rect _ngcontent-serverApp-c36="" id="Retângulo_2372-7" data-name="Retângulo 2372" width="159" height="73" rx="3" transform="translate(196 318)" fill="#ffe4e1"></rect></g><rect _ngcontent-serverApp-c36="" id="Retângulo_2378-2" data-name="Retângulo 2378" width="103" height="10" rx="3" transform="translate(13.461 35)" fill="#fc9b8e"></rect><rect _ngcontent-serverApp-c36="" id="Retângulo_2484-2" data-name="Retângulo 2484" width="138" height="10" rx="3" transform="translate(13.461 13)" fill="#fc9b8e"></rect><rect _ngcontent-serverApp-c36="" id="Retângulo_2485-2" data-name="Retângulo 2485" width="5" height="73" transform="translate(0.461)" fill="#fc9b8e"></rect><g _ngcontent-serverApp-c36="" id="person_black_24dp-2" data-name="person_black_24dp" transform="translate(13 49)"><path _ngcontent-serverApp-c36="" id="Caminho_3975-2" data-name="Caminho 3975" d="M0,0H24V24H0Z" fill="none"></path><path _ngcontent-serverApp-c36="" id="Caminho_3976-2" data-name="Caminho 3976" d="M12,12A4,4,0,1,0,8,8,4,4,0,0,0,12,12Zm0,2c-2.67,0-8,1.34-8,4v1a1,1,0,0,0,1,1H19a1,1,0,0,0,1-1V18C20,15.34,14.67,14,12,14Z" fill="#fc9b8e"></path></g><circle _ngcontent-serverApp-c36="" id="Elipse_250-2" data-name="Elipse 250" cx="5.5" cy="5.5" r="5.5" transform="translate(140.461 56)" fill="#fc9b8e"></circle></g><g _ngcontent-serverApp-c36="" id="Grupo_8912" data-name="Grupo 8912" transform="translate(4641.539 3800)"><g _ngcontent-serverApp-c36="" transform="matrix(1, 0, 0, 1, -362.54, -318)" filter="url(#Retângulo_2372-4)"><rect _ngcontent-serverApp-c36="" id="Retângulo_2372-8" data-name="Retângulo 2372" width="159" height="73" rx="3" transform="translate(363 318)" fill="#ffe4e1"></rect></g><rect _ngcontent-serverApp-c36="" id="Retângulo_2378-3" data-name="Retângulo 2378" width="103" height="10" rx="3" transform="translate(13.461 35)" fill="#fc9b8e"></rect><rect _ngcontent-serverApp-c36="" id="Retângulo_2484-3" data-name="Retângulo 2484" width="138" height="10" rx="3" transform="translate(13.461 13)" fill="#fc9b8e"></rect><rect _ngcontent-serverApp-c36="" id="Retângulo_2485-3" data-name="Retângulo 2485" width="5" height="73" transform="translate(0.461)" fill="#fc9b8e"></rect><g _ngcontent-serverApp-c36="" id="person_black_24dp-3" data-name="person_black_24dp" transform="translate(13 49)"><path _ngcontent-serverApp-c36="" id="Caminho_3975-3" data-name="Caminho 3975" d="M0,0H24V24H0Z" fill="none"></path><path _ngcontent-serverApp-c36="" id="Caminho_3976-3" data-name="Caminho 3976" d="M12,12A4,4,0,1,0,8,8,4,4,0,0,0,12,12Zm0,2c-2.67,0-8,1.34-8,4v1a1,1,0,0,0,1,1H19a1,1,0,0,0,1-1V18C20,15.34,14.67,14,12,14Z" fill="#fc9b8e"></path></g><circle _ngcontent-serverApp-c36="" id="Elipse_250-3" data-name="Elipse 250" cx="5.5" cy="5.5" r="5.5" transform="translate(140.461 56)" fill="#fc9b8e"></circle></g><text _ngcontent-serverApp-c36="" id="Novas" transform="translate(4308 3790)" fill="#fc9b8e" font-size="12" font-family="SourceSansPro" font-weight="600"><tspan _ngcontent-serverApp-c36="" x="0" y="0">Novas</tspan></text><text _ngcontent-serverApp-c36="" id="Comunicação_de_Updates" data-name="Comunicação
                  de Updates" transform="translate(4388 3711)" fill="#fff" font-size="12" font-family="SourceSansPro" font-weight="700"><tspan _ngcontent-serverApp-c36="" x="-35.598" y="0">Comunicação</tspan><tspan _ngcontent-serverApp-c36="" x="-29.622" y="15">de Updates</tspan></text><text _ngcontent-serverApp-c36="" id="Quadro_de_Reunião" data-name="Quadro de
                  Reunião" transform="translate(4555 3711)" fill="#fff" font-size="12" font-family="SourceSansPro" font-weight="700"><tspan _ngcontent-serverApp-c36="" x="-27.516" y="0">Quadro de</tspan><tspan _ngcontent-serverApp-c36="" x="-21.714" y="15">Reunião</tspan></text><text _ngcontent-serverApp-c36="" id="Equipe_Alfa" data-name="Equipe
                  Alfa" transform="translate(4722 3711)" fill="#fff" font-size="12" font-family="SourceSansPro" font-weight="700"><tspan _ngcontent-serverApp-c36="" x="-18.276" y="0">Equipe</tspan><tspan _ngcontent-serverApp-c36="" x="-10.242" y="15">Alfa</tspan></text><text _ngcontent-serverApp-c36="" id="Projetos_de_Marketing" data-name="Projetos de
                  Marketing" transform="translate(4554 3589)" fill="#fff" font-size="12" font-family="SourceSansPro" font-weight="700"><tspan _ngcontent-serverApp-c36="" x="-31.044" y="0">Projetos de </tspan><tspan _ngcontent-serverApp-c36="" x="-26.88" y="15">Marketing</tspan></text><text _ngcontent-serverApp-c36="" id="Processo_Seletivo" data-name="Processo
                  Seletivo" transform="translate(4722 3589)" fill="#fff" font-size="12" font-family="SourceSansPro" font-weight="700"><tspan _ngcontent-serverApp-c36="" x="-24.822" y="0">Processo </tspan><tspan _ngcontent-serverApp-c36="" x="-21.582" y="15">Seletivo</tspan></text><text _ngcontent-serverApp-c36="" id="Em_Andamento" data-name="Em Andamento" transform="translate(4475 3790)" fill="#fc9b8e" font-size="12" font-family="SourceSansPro" font-weight="600"><tspan _ngcontent-serverApp-c36="" x="0" y="0">Em Andamento</tspan></text><text _ngcontent-serverApp-c36="" id="Finalizadas" transform="translate(4642 3790)" fill="#fc9b8e" font-size="12" font-family="SourceSansPro" font-weight="600"><tspan _ngcontent-serverApp-c36="" x="0" y="0">Finalizadas</tspan></text><text _ngcontent-serverApp-c36="" id="Modelo_de_Quadro" data-name="Modelo de Quadro" transform="translate(4308 3526)" fill="#5f6e76" font-size="20" font-family="SourceSansPro" font-weight="700"><tspan _ngcontent-serverApp-c36="" x="0" y="0">Modelo de Quadro</tspan></text><g _ngcontent-serverApp-c36="" id="Grupo_8919" data-name="Grupo 8919" transform="translate(-3 -11)"><g _ngcontent-serverApp-c36="" id="Grupo_8918" data-name="Grupo 8918" transform="translate(5 -8)"><circle _ngcontent-serverApp-c36="" id="Elipse_251" data-name="Elipse 251" cx="18" cy="18" r="18" transform="translate(4368 3582)" fill="#ffe4e1"></circle><g _ngcontent-serverApp-c36="" id="Grupo_8917" data-name="Grupo 8917" transform="translate(-2.5 -0.5)"><line _ngcontent-serverApp-c36="" id="Linha_48" data-name="Linha 48" y2="12" transform="translate(4388.5 3594.5)" fill="none" stroke="#db6858" stroke-linecap="round" stroke-width="2"></line><line _ngcontent-serverApp-c36="" id="Linha_49" data-name="Linha 49" y2="12" transform="translate(4394.5 3600.5) rotate(90)" fill="none" stroke="#db6858" stroke-linecap="round" stroke-width="2"></line></g></g><text _ngcontent-serverApp-c36="" id="Novo_Modelo" data-name="Novo Modelo" transform="translate(4357 3627)" fill="#fff" font-size="12" font-family="SourceSansPro" font-weight="600"><tspan _ngcontent-serverApp-c36="" x="0" y="0">Novo Modelo</tspan></text></g></g></svg>
		