<svg _ngcontent-serverApp-c37="" xmlns="http://www.w3.org/2000/svg" xmlns:xlink="http://www.w3.org/1999/xlink" width="1089" height="695" viewBox="0 0 1089 695"><defs _ngcontent-serverApp-c37=""><filter _ngcontent-serverApp-c37="" id="Retângulo_18344" x="0" y="0" width="1089" height="695" filterUnits="userSpaceOnUse"><feOffset _ngcontent-serverApp-c37="" dy="3" input="SourceAlpha"></feOffset><feGaussianBlur _ngcontent-serverApp-c37="" stdDeviation="14" result="blur"></feGaussianBlur><feFlood _ngcontent-serverApp-c37="" flood-color="#007eff" flood-opacity="0.502"></feFlood><feComposite _ngcontent-serverApp-c37="" operator="in" in2="blur"></feComposite><feComposite _ngcontent-serverApp-c37="" in="SourceGraphic"></feComposite></filter><filter _ngcontent-serverApp-c37="" id="Retângulo_18345" x="50.5" y="245.5" width="283" height="170" filterUnits="userSpaceOnUse"><feOffset _ngcontent-serverApp-c37="" dy="3" input="SourceAlpha"></feOffset><feGaussianBlur _ngcontent-serverApp-c37="" stdDeviation="3.5" result="blur-2"></feGaussianBlur><feFlood _ngcontent-serverApp-c37="" flood-color="#0eb7c1" flood-opacity="0.161"></feFlood><feComposite _ngcontent-serverApp-c37="" operator="in" in2="blur-2"></feComposite><feComposite _ngcontent-serverApp-c37="" in="SourceGraphic"></feComposite></filter><filter _ngcontent-serverApp-c37="" id="Retângulo_18346" x="50.5" y="224.5" width="283" height="49" filterUnits="userSpaceOnUse"><feOffset _ngcontent-serverApp-c37="" dy="3" input="SourceAlpha"></feOffset><feGaussianBlur _ngcontent-serverApp-c37="" stdDeviation="3.5" result="blur-3"></feGaussianBlur><feFlood _ngcontent-serverApp-c37="" flood-color="#0eb7c1" flood-opacity="0.161"></feFlood><feComposite _ngcontent-serverApp-c37="" operator="in" in2="blur-3"></feComposite><feComposite _ngcontent-serverApp-c37="" in="SourceGraphic"></feComposite></filter><filter _ngcontent-serverApp-c37="" id="Retângulo_18352" x="50.5" y="435.5" width="283" height="170" filterUnits="userSpaceOnUse"><feOffset _ngcontent-serverApp-c37="" dy="3" input="SourceAlpha"></feOffset><feGaussianBlur _ngcontent-serverApp-c37="" stdDeviation="3.5" result="blur-4"></feGaussianBlur><feFlood _ngcontent-serverApp-c37="" flood-color="#0eb7c1" flood-opacity="0.161"></feFlood><feComposite _ngcontent-serverApp-c37="" operator="in" in2="blur-4"></feComposite><feComposite _ngcontent-serverApp-c37="" in="SourceGraphic"></feComposite></filter><filter _ngcontent-serverApp-c37="" id="Retângulo_18353" x="50.5" y="414.5" width="283" height="49" filterUnits="userSpaceOnUse"><feOffset _ngcontent-serverApp-c37="" dy="3" input="SourceAlpha"></feOffset><feGaussianBlur _ngcontent-serverApp-c37="" stdDeviation="3.5" result="blur-5"></feGaussianBlur><feFlood _ngcontent-serverApp-c37="" flood-color="#0eb7c1" flood-opacity="0.161"></feFlood><feComposite _ngcontent-serverApp-c37="" operator="in" in2="blur-5"></feComposite><feComposite _ngcontent-serverApp-c37="" in="SourceGraphic"></feComposite></filter><linearGradient _ngcontent-serverApp-c37="" id="linear-gradient" x1="0.422" y1="0.537" x2="0.352" y2="0.879" gradientUnits="objectBoundingBox"><stop _ngcontent-serverApp-c37="" offset="0" stop-color="#007eff"></stop><stop _ngcontent-serverApp-c37="" offset="0.996" stop-color="#06417e"></stop><stop _ngcontent-serverApp-c37="" offset="1" stop-color="#3c3b6b"></stop></linearGradient><linearGradient _ngcontent-serverApp-c37="" id="linear-gradient-2" x1="0.48" y1="0.467" x2="0.372" y2="0.528" gradientUnits="objectBoundingBox"><stop _ngcontent-serverApp-c37="" offset="0" stop-color="#40447e"></stop><stop _ngcontent-serverApp-c37="" offset="0.996" stop-color="#3c3b6b"></stop></linearGradient><linearGradient _ngcontent-serverApp-c37="" id="linear-gradient-3" x1="0" y1="0.5" x2="1" y2="0.5" xlink:href="#linear-gradient-2"></linearGradient><linearGradient _ngcontent-serverApp-c37="" id="linear-gradient-4" x1="0.639" y1="0.134" x2="-0.192" y2="2.077" gradientUnits="objectBoundingBox"><stop _ngcontent-serverApp-c37="" offset="0" stop-color="#007eff"></stop><stop _ngcontent-serverApp-c37="" offset="0.996" stop-color="#5497dc"></stop><stop _ngcontent-serverApp-c37="" offset="1" stop-color="#f36f56"></stop></linearGradient><linearGradient _ngcontent-serverApp-c37="" id="linear-gradient-5" y1="0.5" x2="1" y2="0.5" gradientUnits="objectBoundingBox"><stop _ngcontent-serverApp-c37="" offset="0" stop-color="#2c404a"></stop><stop _ngcontent-serverApp-c37="" offset="0.996" stop-color="#3c3b6b"></stop><stop _ngcontent-serverApp-c37="" offset="1" stop-color="#3c3b6b"></stop></linearGradient><linearGradient _ngcontent-serverApp-c37="" id="linear-gradient-6" x1="0" y1="0.5" x2="1" y2="0.5" xlink:href="#linear-gradient-2"></linearGradient><linearGradient _ngcontent-serverApp-c37="" id="linear-gradient-7" x1="1.067" y1="-0.121" x2="-0.88" y2="1.467" gradientUnits="objectBoundingBox"><stop _ngcontent-serverApp-c37="" offset="0" stop-color="#007eff"></stop><stop _ngcontent-serverApp-c37="" offset="1" stop-color="#0eb7c1"></stop></linearGradient><linearGradient _ngcontent-serverApp-c37="" id="linear-gradient-8" x1="0.784" y1="-0.259" x2="-0.037" y2="1.897" xlink:href="#linear-gradient-7"></linearGradient><linearGradient _ngcontent-serverApp-c37="" id="linear-gradient-9" x1="0.414" y1="-2.181" x2="0.584" y2="3.513" xlink:href="#linear-gradient-7"></linearGradient><linearGradient _ngcontent-serverApp-c37="" id="linear-gradient-10" x1="0" y1="0.5" x2="1" y2="0.5" xlink:href="#linear-gradient-7"></linearGradient><linearGradient _ngcontent-serverApp-c37="" id="linear-gradient-11" y1="0.5" x2="1" y2="0.5" gradientUnits="objectBoundingBox"><stop _ngcontent-serverApp-c37="" offset="0" stop-color="#0eb7c1"></stop><stop _ngcontent-serverApp-c37="" offset="0.004" stop-color="#0eb7c1"></stop><stop _ngcontent-serverApp-c37="" offset="1" stop-color="#007eff"></stop></linearGradient><linearGradient _ngcontent-serverApp-c37="" id="linear-gradient-12" x1="0.506" y1="0.359" x2="0.407" y2="6.949" gradientUnits="objectBoundingBox"><stop _ngcontent-serverApp-c37="" offset="0" stop-color="#007eff"></stop><stop _ngcontent-serverApp-c37="" offset="0.996" stop-color="#7bbcff"></stop><stop _ngcontent-serverApp-c37="" offset="1" stop-color="#3c3b6b"></stop></linearGradient><linearGradient _ngcontent-serverApp-c37="" id="linear-gradient-13" y1="0.5" x2="1" y2="0.5" gradientUnits="objectBoundingBox"><stop _ngcontent-serverApp-c37="" offset="0" stop-color="#007eff"></stop><stop _ngcontent-serverApp-c37="" offset="0.004" stop-color="#0eb7c1"></stop><stop _ngcontent-serverApp-c37="" offset="1" stop-color="#007eff"></stop></linearGradient></defs><g _ngcontent-serverApp-c37="" id="Grupo_10274" data-name="Grupo 10274" transform="translate(-4602 -2468)"><g _ngcontent-serverApp-c37="" transform="matrix(1, 0, 0, 1, 4602, 2468)" filter="url(#Retângulo_18344)"><g _ngcontent-serverApp-c37="" id="Retângulo_18344-2" data-name="Retângulo 18344" transform="translate(42 39)" fill="#fff" stroke="#007eff" stroke-width="1"><rect _ngcontent-serverApp-c37="" width="1005" height="611" rx="20" stroke="none"></rect><rect _ngcontent-serverApp-c37="" x="0.5" y="0.5" width="1004" height="610" rx="19.5" fill="none"></rect></g></g><text _ngcontent-serverApp-c37="" id="Título" transform="translate(4663 2529)" fill="#5f6e76" font-size="28" font-family="Gotham" font-weight="700"><tspan _ngcontent-serverApp-c37="" x="0" y="26">100% Seguro</tspan></text><text _ngcontent-serverApp-c37="" id="Com_o_armazenamento_na_nuvem_os_dados_no_sistema_estão_sob_proteção_sem_risco_de_perda_ou_vazamento_de_informações." data-name="Com o armazenamento na nuvem, os dados no sistema estão sob proteção,
          sem risco de perda ou vazamento de informações." transform="translate(4663 2584)" fill="#5f6e76" font-size="17" font-family="SourceSansPro"><tspan _ngcontent-serverApp-c37="" x="0" y="0">Com o armazenamento na nuvem, os dados no sistema estão sob proteção, </tspan><tspan _ngcontent-serverApp-c37="" x="0" y="22">sem risco de perda ou vazamento de informações.</tspan></text><g _ngcontent-serverApp-c37="" id="Grupo_10261" data-name="Grupo 10261" transform="translate(-1 -219)"><g _ngcontent-serverApp-c37="" transform="matrix(1, 0, 0, 1, 4603, 2687)" filter="url(#Retângulo_18345)"><rect _ngcontent-serverApp-c37="" id="Retângulo_18345-2" data-name="Retângulo 18345" width="262" height="149" rx="3" transform="translate(61 253)" fill="#c2e0ff"></rect></g><g _ngcontent-serverApp-c37="" transform="matrix(1, 0, 0, 1, 4603, 2687)" filter="url(#Retângulo_18346)"><path _ngcontent-serverApp-c37="" id="Retângulo_18346-2" data-name="Retângulo 18346" d="M3,0H259a3,3,0,0,1,3,3V28a0,0,0,0,1,0,0H0a0,0,0,0,1,0,0V3A3,3,0,0,1,3,0Z" transform="translate(61 232)" fill="#007eff"></path></g><circle _ngcontent-serverApp-c37="" id="Elipse_598" data-name="Elipse 598" cx="5.5" cy="5.5" r="5.5" transform="translate(4674 2928)" fill="#fff"></circle><circle _ngcontent-serverApp-c37="" id="Elipse_599" data-name="Elipse 599" cx="5.5" cy="5.5" r="5.5" transform="translate(4690 2928)" fill="#fff"></circle><circle _ngcontent-serverApp-c37="" id="Elipse_600" data-name="Elipse 600" cx="5.5" cy="5.5" r="5.5" transform="translate(4705 2928)" fill="#fff"></circle><rect _ngcontent-serverApp-c37="" id="Retângulo_18347" data-name="Retângulo 18347" width="81" height="11" rx="3" transform="translate(4674 2965)" fill="#007eff"></rect><rect _ngcontent-serverApp-c37="" id="Retângulo_18348" data-name="Retângulo 18348" width="27" height="11" rx="3" transform="translate(4890 2965)" fill="#007eff"></rect><rect _ngcontent-serverApp-c37="" id="Retângulo_18349" data-name="Retângulo 18349" width="243" height="45" rx="3" transform="translate(4674 2987)" fill="#007eff"></rect><rect _ngcontent-serverApp-c37="" id="Retângulo_18350" data-name="Retângulo 18350" width="243" height="11" rx="3" transform="translate(4674 3043)" fill="#007eff"></rect><rect _ngcontent-serverApp-c37="" id="Retângulo_18351" data-name="Retângulo 18351" width="243" height="11" rx="3" transform="translate(4674 3059)" fill="#007eff"></rect></g><g _ngcontent-serverApp-c37="" id="Grupo_10262" data-name="Grupo 10262" transform="translate(-1 -29)"><g _ngcontent-serverApp-c37="" transform="matrix(1, 0, 0, 1, 4603, 2497)" filter="url(#Retângulo_18352)"><rect _ngcontent-serverApp-c37="" id="Retângulo_18352-2" data-name="Retângulo 18352" width="262" height="149" rx="3" transform="translate(61 443)" fill="#c2e0ff"></rect></g><g _ngcontent-serverApp-c37="" transform="matrix(1, 0, 0, 1, 4603, 2497)" filter="url(#Retângulo_18353)"><path _ngcontent-serverApp-c37="" id="Retângulo_18353-2" data-name="Retângulo 18353" d="M3,0H259a3,3,0,0,1,3,3V28a0,0,0,0,1,0,0H0a0,0,0,0,1,0,0V3A3,3,0,0,1,3,0Z" transform="translate(61 422)" fill="#007eff"></path></g><circle _ngcontent-serverApp-c37="" id="Elipse_601" data-name="Elipse 601" cx="5.5" cy="5.5" r="5.5" transform="translate(4674 2928)" fill="#fff"></circle><circle _ngcontent-serverApp-c37="" id="Elipse_602" data-name="Elipse 602" cx="5.5" cy="5.5" r="5.5" transform="translate(4690 2928)" fill="#fff"></circle><circle _ngcontent-serverApp-c37="" id="Elipse_603" data-name="Elipse 603" cx="5.5" cy="5.5" r="5.5" transform="translate(4705 2928)" fill="#fff"></circle><rect _ngcontent-serverApp-c37="" id="Retângulo_18354" data-name="Retângulo 18354" width="81" height="11" rx="3" transform="translate(4674 2965)" fill="#007eff"></rect><rect _ngcontent-serverApp-c37="" id="Retângulo_18355" data-name="Retângulo 18355" width="27" height="11" rx="3" transform="translate(4890 2965)" fill="#007eff"></rect><rect _ngcontent-serverApp-c37="" id="Retângulo_18356" data-name="Retângulo 18356" width="243" height="45" rx="3" transform="translate(4674 2987)" fill="#007eff"></rect><rect _ngcontent-serverApp-c37="" id="Retângulo_18357" data-name="Retângulo 18357" width="243" height="11" rx="3" transform="translate(4674 3043)" fill="#007eff"></rect><rect _ngcontent-serverApp-c37="" id="Retângulo_18358" data-name="Retângulo 18358" width="243" height="11" rx="3" transform="translate(4674 3059)" fill="#007eff"></rect></g><g _ngcontent-serverApp-c37="" id="Grupo_10273" data-name="Grupo 10273"><g _ngcontent-serverApp-c37="" id="Grupo_10271" data-name="Grupo 10271" transform="translate(-1604.695 266.078)"><circle _ngcontent-serverApp-c37="" id="Elipse_604" data-name="Elipse 604" cx="222.007" cy="222.007" r="222.007" transform="translate(6737.097 2336.205)" fill="#f4f7fa"></circle><g _ngcontent-serverApp-c37="" id="Grupo_10264" data-name="Grupo 10264" transform="translate(6738.439 2493.581)"><path _ngcontent-serverApp-c37="" id="Caminho_9366" data-name="Caminho 9366" d="M874.2,2823.714,435.9,2820.1v10.673a5.7,5.7,0,0,0,4.5,5.793l123.94,21.025a18.133,18.133,0,0,0,4.452.2l300.649-23.968a5.467,5.467,0,0,0,4.757-5.657Z" transform="translate(-431.509 -2611.175)" fill="url(#linear-gradient)"></path><g _ngcontent-serverApp-c37="" id="Grupo_10263" data-name="Grupo 10263"><path _ngcontent-serverApp-c37="" id="Caminho_9367" data-name="Caminho 9367" d="M690.719,1645.034l-274.7,19.531a8.213,8.213,0,0,1-8.919-8.294V1458.735a8.934,8.934,0,0,1,8.919-8.935H690.734c4.056,0,7.318,3.613,7.318,8.065V1636.45C698.053,1640.9,694.775,1644.744,690.719,1645.034Z" transform="translate(-407.1 -1449.8)" fill="url(#linear-gradient-2)"></path><path _ngcontent-serverApp-c37="" id="Caminho_9368" data-name="Caminho 9368" d="M719.434,1645.034l-274.715,19.531a8.213,8.213,0,0,1-8.919-8.294V1458.735a8.934,8.934,0,0,1,8.919-8.935H719.434c4.056,0,7.318,3.613,7.318,8.065V1636.45C726.753,1640.9,723.475,1644.744,719.434,1645.034Z" transform="translate(-431.424 -1449.8)" fill="url(#linear-gradient-3)"></path><path _ngcontent-serverApp-c37="" id="Caminho_9369" data-name="Caminho 9369" d="M777.312,1696.174l-255.855,16.97a6.727,6.727,0,0,1-7.257-6.8V1533.385a7.307,7.307,0,0,1,7.257-7.318L777.327,1525c3.339-.015,6.038,2.943,6.038,6.617V1689.13C783.365,1692.8,780.651,1695.961,777.312,1696.174Z" transform="translate(-497.871 -1513.534)" fill="url(#linear-gradient-4)"></path><path _ngcontent-serverApp-c37="" id="Caminho_9370" data-name="Caminho 9370" d="M1423.627,1466.824a3.168,3.168,0,1,1-3.156-3.324A3.241,3.241,0,0,1,1423.627,1466.824Z" transform="translate(-1263.278 -1461.411)" fill="#fff"></path><path _ngcontent-serverApp-c37="" id="Caminho_9371" data-name="Caminho 9371" d="M653.233,1590.862c-21.178-11.465-37.827,3.065-53.9-11.267-9.743-8.691-4.955-15.17-16.954-28.146-13.28-14.378-21.925-9.544-35.266-22.489-16.878-16.36-8.431-29.091-22.961-40.846-17.625-14.256-36.653-1.067-53.424-14.728-7.242-5.9-11.206-14.469-13.28-23.587H441.014a5.228,5.228,0,0,0-5.214,5.245v204.763a4.792,4.792,0,0,0,5.214,4.864l279.975-19.989a4.46,4.46,0,0,0,3.37-2.073c-20.492-.747-33.085-7.669-41.136-14.8C667.489,1613.824,670.218,1600.041,653.233,1590.862Z" transform="translate(-431.424 -1449.8)" fill="#fff" opacity="0.48"></path></g><path _ngcontent-serverApp-c37="" id="Caminho_9372" data-name="Caminho 9372" d="M730.466,2724.188,435.9,2744.741l128.438,21.788a18.133,18.133,0,0,0,4.452.2l305.422-24.349-139.05-18.052A24.229,24.229,0,0,0,730.466,2724.188Z" transform="translate(-431.509 -2529.839)" fill="url(#linear-gradient-5)"></path><path _ngcontent-serverApp-c37="" id="Caminho_9373" data-name="Caminho 9373" d="M717.7,2766.166,962.943,2748.8l75.9,9.773-243.124,18.57Z" transform="translate(-670.344 -2550.746)" opacity="0.3" fill="url(#linear-gradient-6)"></path></g><path _ngcontent-serverApp-c37="" id="Caminho_9374" data-name="Caminho 9374" d="M660.367,1320.7s-50.284-96.237,18.189-159.358l-14.972-4.635,49.216-8.2-18.906,36.379-4.635-12.716S638.991,1210.325,660.367,1320.7Z" transform="translate(6131.771 1299.143)" fill="url(#linear-gradient-7)"></path><path _ngcontent-serverApp-c37="" id="Caminho_9375" data-name="Caminho 9375" d="M899.8,2140.815s97.777,47.234,158.718-23.19l5.108,14.82,6.647-49.445-35.769,20.034,12.853,4.239C1047.342,2107.257,1010.8,2158.715,899.8,2140.815Z" transform="translate(5913.759 507.123)" fill="#fff" opacity="0.69"></path><g _ngcontent-serverApp-c37="" id="Grupo_10267" data-name="Grupo 10267" transform="translate(6854.211 2375.352)"><path _ngcontent-serverApp-c37="" id="Caminho_9376" data-name="Caminho 9376" d="M1366.637,687.175l-220.65-7.517a12.893,12.893,0,0,0-13.386,12.99V853.685a13.065,13.065,0,0,0,13.386,13.143l220.65-5.077c6.388-.152,11.557-5.839,11.557-12.716V700.013C1378.194,693.137,1373.025,687.389,1366.637,687.175Z" transform="translate(-1132.585 -679.651)" fill="url(#linear-gradient-8)"></path><path _ngcontent-serverApp-c37="" id="Caminho_9377" data-name="Caminho 9377" d="M1160.6,874.731V720.511a11.948,11.948,0,0,1,12.38-12.045l214.521,7.029c5.946.2,10.734,5.519,10.734,11.892v143.09c0,6.373-4.8,11.648-10.734,11.786l-214.521,4.65A12.107,12.107,0,0,1,1160.6,874.731Z" transform="translate(-1156.316 -704.067)" fill="#fff" opacity="0.74"></path><path _ngcontent-serverApp-c37="" id="Caminho_9378" data-name="Caminho 9378" d="M1366.637,687.175l-220.65-7.517a12.893,12.893,0,0,0-13.386,12.99V702.3l245.609,6.632V700C1378.194,693.137,1373.025,687.389,1366.637,687.175Z" transform="translate(-1132.585 -679.651)" fill="url(#linear-gradient-9)"></path><path _ngcontent-serverApp-c37="" id="Caminho_9379" data-name="Caminho 9379" d="M1240.306,736.1a4.2,4.2,0,0,1-4.345,4.239,4.533,4.533,0,0,1-4.361-4.513,4.2,4.2,0,0,1,4.361-4.239A4.531,4.531,0,0,1,1240.306,736.1Z" transform="translate(-1216.491 -723.667)" fill="#fff"></path><path _ngcontent-serverApp-c37="" id="Caminho_9380" data-name="Caminho 9380" d="M1340.214,739.27a4.165,4.165,0,0,1-4.3,4.223,4.5,4.5,0,0,1-4.315-4.482,4.178,4.178,0,0,1,4.315-4.223A4.475,4.475,0,0,1,1340.214,739.27Z" transform="translate(-1301.244 -726.379)" fill="#fff"></path><path _ngcontent-serverApp-c37="" id="Caminho_9381" data-name="Caminho 9381" d="M1439.238,742.355a4.154,4.154,0,0,1-4.269,4.208,4.456,4.456,0,0,1-4.269-4.467,4.154,4.154,0,0,1,4.269-4.208A4.466,4.466,0,0,1,1439.238,742.355Z" transform="translate(-1385.234 -729.007)" fill="#fff"></path><path _ngcontent-serverApp-c37="" id="Caminho_9382" data-name="Caminho 9382" d="M1451.4,1158.864l-216.5,1.021V1096.2l216.5,3.187Z" transform="translate(-1219.287 -1032.69)" fill="url(#linear-gradient-10)"></path><path _ngcontent-serverApp-c37="" id="Caminho_9383" data-name="Caminho 9383" d="M1451.4,1570.188l-216.5,2.073v-6.831l216.5-1.631Z" transform="translate(-1219.287 -1428.997)" fill="#fff"></path><path _ngcontent-serverApp-c37="" id="Caminho_9384" data-name="Caminho 9384" d="M1451.4,1672.888l-216.5,3.187v-6.831l216.5-2.744Z" transform="translate(-1219.287 -1516.038)" fill="#fff"></path><g _ngcontent-serverApp-c37="" id="Grupo_10265" data-name="Grupo 10265" transform="translate(15.613 47.44)"><path _ngcontent-serverApp-c37="" id="Caminho_9385" data-name="Caminho 9385" d="M1351.339,993.072,1234.9,990.8v6.831l116.439,2.043Z" transform="translate(-1234.9 -990.8)" fill="#fff"></path><path _ngcontent-serverApp-c37="" id="Caminho_9386" data-name="Caminho 9386" d="M2573.8,1017v6.419l12.365.213v-6.388Z" transform="translate(-2369.662 -1013.005)" fill="#fff"></path></g><g _ngcontent-serverApp-c37="" id="Grupo_10266" data-name="Grupo 10266" transform="translate(0)" opacity="0.5"><path _ngcontent-serverApp-c37="" id="Caminho_9387" data-name="Caminho 9387" d="M1280.667,769.675c-25.782-37.507-70.364-25.675-98.555-67.085a91.527,91.527,0,0,1-10.9-22.062l-25.325-.869a12.893,12.893,0,0,0-13.387,12.99V853.684a13.065,13.065,0,0,0,13.387,13.143l167.82-3.857a142.576,142.576,0,0,1-13.585-24.3C1285.089,804.117,1296.219,792.3,1280.667,769.675Z" transform="translate(-1132.5 -679.651)" fill="#fff"></path></g></g><g _ngcontent-serverApp-c37="" id="Grupo_10270" data-name="Grupo 10270" transform="translate(7020.135 2396.208)"><path _ngcontent-serverApp-c37="" id="Caminho_9388" data-name="Caminho 9388" d="M2195.908,971.39,2054.251,969.9c-6.693-.076-12.152,5.611-12.152,12.685v223.638c0,7.074,5.458,12.426,12.152,11.969l141.657-9.758c6.083-.412,10.993-6.19,10.993-12.9V983.648C2206.9,976.94,2201.992,971.466,2195.908,971.39Z" transform="translate(-2042.085 -969.895)" fill="url(#linear-gradient-11)"></path><path _ngcontent-serverApp-c37="" id="Caminho_9389" data-name="Caminho 9389" d="M2067.6,1225.621V1008.554c0-6.541,5.047-11.8,11.237-11.755l135.97,1.25c5.641.046,10.2,5.138,10.2,11.359v206.166c0,6.221-4.559,11.572-10.2,11.953l-135.97,9.194C2072.631,1237.132,2067.6,1232.161,2067.6,1225.621Z" transform="translate(-2063.697 -992.696)" fill="#fff" opacity="0.74"></path><path _ngcontent-serverApp-c37="" id="Caminho_9390" data-name="Caminho 9390" d="M2195.908,971.39,2054.251,969.9c-6.693-.076-12.152,5.611-12.152,12.685v9.194l164.8.579v-8.706C2206.9,976.94,2201.992,971.466,2195.908,971.39Z" transform="translate(-2042.085 -969.895)" fill="url(#linear-gradient-12)"></path><path _ngcontent-serverApp-c37="" id="Caminho_9391" data-name="Caminho 9391" d="M2139.9,1022.592a4.045,4.045,0,0,1-3.949,4.147,4.1,4.1,0,0,1-3.949-4.193,4.035,4.035,0,0,1,3.949-4.147A4.115,4.115,0,0,1,2139.9,1022.592Z" transform="translate(-2118.278 -1011.004)" fill="#fff"></path><path _ngcontent-serverApp-c37="" id="Caminho_9392" data-name="Caminho 9392" d="M2230.622,1023.376a4,4,0,0,1-3.9,4.117,4.066,4.066,0,0,1-3.919-4.178,3.983,3.983,0,0,1,3.919-4.117A4.074,4.074,0,0,1,2230.622,1023.376Z" transform="translate(-2195.234 -1011.681)" fill="#fff"></path><path _ngcontent-serverApp-c37="" id="Caminho_9393" data-name="Caminho 9393" d="M2320.461,1024.062a3.981,3.981,0,0,1-3.873,4.1A4.048,4.048,0,0,1,2312.7,1024a3.974,3.974,0,0,1,3.888-4.1A4.046,4.046,0,0,1,2320.461,1024.062Z" transform="translate(-2271.427 -1012.275)" fill="#fff"></path><path _ngcontent-serverApp-c37="" id="Caminho_9394" data-name="Caminho 9394" d="M2272.8,1483.24l-137.8,6.968V1359.62l137.8-1.22Z" transform="translate(-2120.821 -1299.166)" fill="url(#linear-gradient-13)"></path><path _ngcontent-serverApp-c37="" id="Caminho_9395" data-name="Caminho 9395" d="M2272.8,2238.621l-137.8,7.654v-6.51l137.8-7.364Z" transform="translate(-2120.821 -2039.91)" fill="#fff"></path><path _ngcontent-serverApp-c37="" id="Caminho_9396" data-name="Caminho 9396" d="M2272.8,2338.821l-137.8,8.355v-6.51l137.8-8.065Z" transform="translate(-2120.821 -2124.833)" fill="#fff"></path><g _ngcontent-serverApp-c37="" id="Grupo_10268" data-name="Grupo 10268" transform="translate(14.179 44.597)"><path _ngcontent-serverApp-c37="" id="Caminho_9397" data-name="Caminho 9397" d="M2240.843,1263.2l-105.843.412v6.51l105.843-.625Z" transform="translate(-2135 -1263.078)" fill="#fff"></path><path _ngcontent-serverApp-c37="" id="Caminho_9398" data-name="Caminho 9398" d="M2961.8,1262.446v6.251l11.74-.076V1262.4Z" transform="translate(-2835.74 -1262.4)" fill="#fff"></path></g><g _ngcontent-serverApp-c37="" id="Grupo_10269" data-name="Grupo 10269" transform="translate(0 0.015)" opacity="0.15"><path _ngcontent-serverApp-c37="" id="Caminho_9399" data-name="Caminho 9399" d="M2158.592,1105.143c-22.779-29.99-51.351-30.844-67.269-62.938-11.526-23.236-9.88-49.674-4.772-71.873l-32.4-.335c-6.693-.076-12.152,5.611-12.152,12.685V1206.32c0,7.074,5.458,12.426,12.152,11.969l127.371-8.767C2185.441,1152.865,2171.825,1122.554,2158.592,1105.143Z" transform="translate(-2042 -969.995)" fill="#fff"></path></g></g><g _ngcontent-serverApp-c37="" id="cloud_done_black_24dp" transform="translate(6597.695 2369.575)"><path _ngcontent-serverApp-c37="" id="Caminho_9400" data-name="Caminho 9400" d="M0,0H124.006V124.006H0Z" fill="none"></path><path _ngcontent-serverApp-c37="" id="Caminho_9401" data-name="Caminho 9401" d="M99.98,35.208A38.713,38.713,0,0,0,27.643,24.874,30.989,30.989,0,0,0,31,86.671h67.17A25.76,25.76,0,0,0,99.98,35.208ZM55.338,67.5a5.146,5.146,0,0,1-7.285,0L37.2,56.7a5.152,5.152,0,0,1,7.285-7.285L51.669,56.6,74.817,33.451A5.152,5.152,0,0,1,82.1,40.737L55.338,67.5Z" transform="translate(0 16.668)" fill="#2ba5e9"></path></g><g _ngcontent-serverApp-c37="" id="cloud_upload_black_24dp" transform="translate(6772.492 2727.168)"><path _ngcontent-serverApp-c37="" id="Caminho_9402" data-name="Caminho 9402" d="M0,0H66.47V66.47H0Z" fill="none"></path><path _ngcontent-serverApp-c37="" id="Caminho_9403" data-name="Caminho 9403" d="M53.592,20.728a20.751,20.751,0,0,0-38.774-5.539,16.611,16.611,0,0,0,1.8,33.124h36a13.808,13.808,0,0,0,.969-27.585Zm-14.817,8.2V40H27.7V28.926H19.387L32.266,16.048a1.371,1.371,0,0,1,1.966,0L47.083,28.926Z" transform="translate(0 7.078)" fill="#2ba5e9"></path></g><g _ngcontent-serverApp-c37="" id="cloud_upload_black_24dp-2" data-name="cloud_upload_black_24dp" transform="translate(7143.847 2462.244)"><path _ngcontent-serverApp-c37="" id="Caminho_9404" data-name="Caminho 9404" d="M0,0H21.344V21.344H0Z" fill="none"></path><path _ngcontent-serverApp-c37="" id="Caminho_9405" data-name="Caminho 9405" d="M17.209,9.372A6.663,6.663,0,0,0,4.758,7.593a5.334,5.334,0,0,0,.578,10.637H16.9a4.434,4.434,0,0,0,.311-8.858ZM12.451,12v3.557H8.893V12H6.225l4.135-4.135a.44.44,0,0,1,.631,0L15.119,12Z" transform="translate(0 -0.443)" fill="#fff"></path></g></g><g _ngcontent-serverApp-c37="" id="lock_black_24dp_1_" data-name="lock_black_24dp (1)" transform="translate(4954 2927)"><g _ngcontent-serverApp-c37="" id="Grupo_10272" data-name="Grupo 10272"><path _ngcontent-serverApp-c37="" id="Caminho_9406" data-name="Caminho 9406" d="M0,0H64V64H0Z" fill="none"></path><path _ngcontent-serverApp-c37="" id="Caminho_9407" data-name="Caminho 9407" d="M0,0H64V64H0Z" fill="none" opacity="0.87"></path></g><path _ngcontent-serverApp-c37="" id="Caminho_9408" data-name="Caminho 9408" d="M41.331,19.665H38.664V14.332a13.332,13.332,0,1,0-26.665,0v5.333H9.333A5.349,5.349,0,0,0,4,25V51.663A5.349,5.349,0,0,0,9.333,57h32a5.349,5.349,0,0,0,5.333-5.333V25A5.349,5.349,0,0,0,41.331,19.665Zm-16,24a5.333,5.333,0,1,1,5.333-5.333A5.349,5.349,0,0,1,25.332,43.664Zm-8-24V14.332a8,8,0,1,1,16,0v5.333Z" transform="translate(6.666 1.666)" fill="#007eff"></path></g><path _ngcontent-serverApp-c37="" id="security_black_24dp" d="M11.877,1.374,4.29,4.745A2.177,2.177,0,0,0,3,6.729v5.094c0,6.016,4.162,11.641,9.755,13.007,5.593-1.366,9.755-6.991,9.755-13.007V6.729a2.177,2.177,0,0,0-1.29-1.984L13.633,1.374a2.155,2.155,0,0,0-1.756,0ZM12.755,12.9h7.587c-.574,4.466-3.555,8.444-7.587,9.69V12.907H5.168V6.729l7.587-3.371V12.9Z" transform="translate(5269.332 2726.02)" fill="#007eff"></path></g><text _ngcontent-serverApp-c37="" id="Compartilhamento" transform="translate(4663 2675)" fill="#007eff" font-size="20" font-family="SourceSansPro" font-weight="700"><tspan _ngcontent-serverApp-c37="" x="0" y="0">Compartilhamento</tspan></text></g></svg>