<svg id="campaign_black_24dp_1_" data-name="campaign_black_24dp (1)" xmlns="http://www.w3.org/2000/svg" width="20" height="20" viewBox="0 0 20 20">
  <g id="Grupo_10220" data-name="Grupo 10220">
    <rect id="Retângulo_18278" data-name="Retângulo 18278" width="20" height="20" fill="none"/>
  </g>
  <path id="Caminho_9309" data-name="Caminho 9309" d="M18,11.833h0a.836.836,0,0,0,.833.833H20.5a.836.836,0,0,0,.833-.833h0A.836.836,0,0,0,20.5,11H18.833A.836.836,0,0,0,18,11.833Z" transform="translate(-3 -1.833)" fill="#fff"/>
  <path id="Caminho_9310" data-name="Caminho 9310" d="M16.557,16.749a.805.805,0,0,0,.167,1.142c.442.325.908.675,1.35,1.008a.815.815,0,0,0,1.15-.167c0-.008.008-.008.008-.017a.815.815,0,0,0-.167-1.15c-.442-.333-.908-.683-1.342-1.008a.827.827,0,0,0-1.158.175A.029.029,0,0,1,16.557,16.749Z" transform="translate(-2.732 -2.732)" fill="#fff"/>
  <path id="Caminho_9311" data-name="Caminho 9311" d="M19.243,4.74c0-.008-.008-.008-.008-.017a.817.817,0,0,0-1.15-.167c-.442.333-.917.683-1.35,1.017a.816.816,0,0,0-.158,1.15c0,.008.008.008.008.017a.816.816,0,0,0,1.15.167c.442-.325.908-.683,1.35-1.017A.828.828,0,0,0,19.243,4.74Z" transform="translate(-2.735 -0.732)" fill="#fff"/>
  <path id="Caminho_9312" data-name="Caminho 9312" d="M7,8.5H3.667A1.672,1.672,0,0,0,2,10.167v1.667A1.672,1.672,0,0,0,3.667,13.5H4.5V16a.836.836,0,0,0,.833.833h0A.836.836,0,0,0,6.167,16V13.5H7L11.167,16V6Z" transform="translate(-0.333 -1)" fill="#fff"/>
  <path id="Caminho_9313" data-name="Caminho 9313" d="M15.25,11.442A3.733,3.733,0,0,0,14,8.65v5.575A3.7,3.7,0,0,0,15.25,11.442Z" transform="translate(-2.333 -1.442)" fill="#fff"/>
</svg>
