<svg xmlns="http://www.w3.org/2000/svg" width="17" height="17" viewBox="0 0 17 17">
  <g id="construction_black_24dp" transform="translate(0 0.026)">
    <g id="Grupo_10228" data-name="Grupo 10228">
      <rect id="Ret창ngulo_18283" data-name="Ret창ngulo 18283" width="17" height="17" transform="translate(0 -0.027)" fill="none"/>
      <rect id="Ret창ngulo_18284" data-name="Ret창ngulo 18284" width="17" height="17" transform="translate(0 -0.027)" fill="none"/>
    </g>
    <g id="Grupo_10230" data-name="Grupo 10230" transform="translate(1.796 1.848)">
      <g id="Grupo_10229" data-name="Grupo 10229">
        <path id="Caminho_9317" data-name="Caminho 9317" d="M18.923,16.544,15.429,13.05l-1.5,1.5,3.494,3.494a1.054,1.054,0,0,0,1.5,0A1.067,1.067,0,0,0,18.923,16.544Z" transform="translate(-5.875 -5.668)" fill="#fff"/>
        <path id="Caminho_9318" data-name="Caminho 9318" d="M13.226,7.837A2.478,2.478,0,0,0,15.7,5.362a2.444,2.444,0,0,0-.29-1.132L13.5,6.14,12.448,5.086l1.91-1.91a2.444,2.444,0,0,0-1.132-.29,2.478,2.478,0,0,0-2.475,2.475,2.412,2.412,0,0,0,.149.82L9.591,7.491,8.332,6.232h0a.7.7,0,0,0,0-1l-.5-.5,1.5-1.5a2.121,2.121,0,0,0-3,0l-1.994,2a.7.7,0,0,0,0,1l.5.5h-1.8a.475.475,0,0,0-.354.149.5.5,0,0,0,0,.707l1.8,1.8a.5.5,0,0,0,.707,0,.5.5,0,0,0,.149-.354v-1.8l.5.5a.7.7,0,0,0,1,0L8.092,8.99,3.6,13.481a1.054,1.054,0,0,0,0,1.5h0a1.054,1.054,0,0,0,1.5,0l7.3-7.291A2.485,2.485,0,0,0,13.226,7.837Z" transform="translate(-2.54 -2.613)" fill="#fff"/>
      </g>
    </g>
  </g>
</svg>
