<svg xmlns="http://www.w3.org/2000/svg" width="15.757" height="15.757" viewBox="0 0 15.757 15.757">
  <path id="memory_black_24dp" d="M12.629,8.252h-3.5a.878.878,0,0,0-.875.875v3.5a.878.878,0,0,0,.875.875h3.5a.878.878,0,0,0,.875-.875v-3.5A.878.878,0,0,0,12.629,8.252Zm-.875,3.5H10V10h1.751Zm7-2.626a.878.878,0,0,0-.875-.875h-.875V6.5a1.756,1.756,0,0,0-1.751-1.751H13.5V3.875a.875.875,0,0,0-1.751,0v.875H10V3.875a.875.875,0,0,0-1.751,0v.875H6.5A1.756,1.756,0,0,0,4.751,6.5V8.252H3.875a.875.875,0,0,0,0,1.751h.875v1.751H3.875a.875.875,0,0,0,0,1.751h.875v1.751A1.756,1.756,0,0,0,6.5,17.006H8.252v.875a.875.875,0,1,0,1.751,0v-.875h1.751v.875a.875.875,0,1,0,1.751,0v-.875h1.751a1.756,1.756,0,0,0,1.751-1.751V13.5h.875a.875.875,0,1,0,0-1.751h-.875V10h.875A.878.878,0,0,0,18.757,9.128ZM14.38,15.255h-7A.878.878,0,0,1,6.5,14.38v-7A.878.878,0,0,1,7.377,6.5h7a.878.878,0,0,1,.875.875v7A.878.878,0,0,1,14.38,15.255Z" transform="translate(-3 -3)" fill="#fff"/>
</svg>
