<svg id="task_black_24dp" xmlns="http://www.w3.org/2000/svg" width="18.514" height="18.514" viewBox="0 0 18.514 18.514">
  <g id="Grupo_10235" data-name="Grupo 10235">
    <path id="Caminho_9321" data-name="Caminho 9321" d="M0,0H18.513V18.513H0Z" fill="none"/>
  </g>
  <g id="Grupo_10236" data-name="Grupo 10236" transform="translate(3.086 1.543)">
    <path id="Caminho_9322" data-name="Caminho 9322" d="M15.887,6.173,12.161,2.447A1.541,1.541,0,0,0,11.074,2H5.543A1.541,1.541,0,0,0,4.008,3.543L4,15.885a1.541,1.541,0,0,0,1.535,1.543H14.8a1.547,1.547,0,0,0,1.543-1.543V7.269A1.548,1.548,0,0,0,15.887,6.173ZM8.806,13.795,7.17,12.159a.768.768,0,0,1,0-1.088h0a.768.768,0,0,1,1.088,0l1.088,1.088,2.731-2.731a.768.768,0,0,1,1.088,0h0a.768.768,0,0,1,0,1.088L9.893,13.787A.761.761,0,0,1,8.806,13.795ZM11.714,7.4a.774.774,0,0,1-.771-.771V3.157L15.185,7.4Z" transform="translate(-4 -2)" fill="#fff"/>
  </g>
</svg>
