<svg id="gps_fixed_black_24dp" xmlns="http://www.w3.org/2000/svg" width="16.302" height="16.302" viewBox="0 0 16.302 16.302">
  <path id="Caminho_9319" data-name="Caminho 9319" d="M0,0H16.3V16.3H0Z" fill="none"/>
  <path id="Caminho_9320" data-name="Caminho 9320" d="M8.472,5.755a2.717,2.717,0,1,0,2.717,2.717A2.716,2.716,0,0,0,8.472,5.755Zm6.073,2.038A6.109,6.109,0,0,0,9.151,2.4v-.72a.679.679,0,0,0-1.359,0V2.4A6.109,6.109,0,0,0,2.4,7.793h-.72a.679.679,0,0,0,0,1.359H2.4a6.109,6.109,0,0,0,5.393,5.393v.72a.679.679,0,0,0,1.359,0v-.72a6.109,6.109,0,0,0,5.393-5.393h.72a.679.679,0,0,0,0-1.359h-.72ZM8.472,13.227a4.755,4.755,0,1,1,4.755-4.755A4.751,4.751,0,0,1,8.472,13.227Z" transform="translate(-0.321 -0.321)" fill="#fff"/>
</svg>
